<?xml version="1.0" encoding="iso-8859-1"?>
<!-- Generator: Adobe Illustrator 19.0.0, SVG Export Plug-In . SVG Version: 6.00 Build 0)  -->
<svg version="1.1" id="Capa_1" xmlns="http://www.w3.org/2000/svg" xmlns:xlink="http://www.w3.org/1999/xlink" x="0px" y="0px"
	 viewBox="0 0 512 512" style="enable-background:new 0 0 512 512;" xml:space="preserve">
<path style="fill:#A38DCE;" d="M381.228,496.678H130.771c-40.523,0-74.904-29.742-80.736-69.843L8.501,141.285
	C1.342,92.07,39.504,47.956,89.237,47.956h333.527c49.733,0,87.894,44.114,80.736,93.329l-41.534,285.55
	C456.132,466.936,421.751,496.678,381.228,496.678z"/>
<path style="fill:#8C70C2;" d="M459.356,56.585c12.274,16.59,18.366,37.881,15.117,60.225l-41.534,285.55
	c-5.832,40.1-40.214,69.843-80.736,69.843H101.744c-13.117,0-25.58-3.132-36.65-8.707c14.959,20.272,38.984,33.183,65.678,33.183
	h250.457c40.523,0,74.904-29.742,80.736-69.843l41.534-285.55C508.754,105.161,489.591,71.785,459.356,56.585z"/>
<path style="fill:#BDBCB4;" d="M280.476,47.956h-48.951V31.639c0-9.012,7.305-16.317,16.317-16.317h16.317
	c9.012,0,16.317,7.305,16.317,16.317V47.956z"/>
<path style="fill:#EEEEEC;" d="M256,117.304c-48.363,0-95.386,9.269-139.764,27.552l31.077,75.435
	c34.47-14.2,71.038-21.4,108.687-21.4c37.647,0,74.212,7.2,108.68,21.398l31.075-75.437C351.38,126.572,304.36,117.304,256,117.304z
	"/>
<path style="fill:#DEDED9;" d="M265.227,178.493c-37.649,0-74.217,7.201-108.687,21.4l-25.089-60.899
	c-5.103,1.843-10.178,3.785-15.215,5.86l31.077,75.435c34.47-14.2,71.038-21.4,108.687-21.4c37.647,0,74.212,7.2,108.68,21.398
	l8.518-20.678C338.937,185.603,302.616,178.493,265.227,178.493z"/>
<g>
	<path style="fill:#FDC572;" d="M200.93,396.735c0-30.414,24.656-55.07,55.07-55.07s55.07,24.656,55.07,55.07
		s-24.656,42.833-55.07,42.833C225.586,439.568,200.93,427.15,200.93,396.735z"/>
	<path style="fill:#FDC572;" d="M207.049,304.951c0-10.138,8.219-24.476,18.357-24.476c10.138,0,18.357,14.338,18.357,24.476
		s-8.219,18.357-18.357,18.357C215.268,323.308,207.049,315.089,207.049,304.951z"/>
	<path style="fill:#FDC572;" d="M268.238,304.951c0-10.138,8.219-24.476,18.357-24.476s18.357,14.338,18.357,24.476
		s-8.219,18.357-18.357,18.357C276.457,323.308,268.238,315.089,268.238,304.951z"/>
	<path style="fill:#FDC572;" d="M317.19,341.665c0-10.138,8.219-24.476,18.357-24.476s18.357,14.338,18.357,24.476
		s-8.219,18.357-18.357,18.357C325.409,360.022,317.19,351.803,317.19,341.665z"/>
	<path style="fill:#FDC572;" d="M158.097,341.665c0-10.138,8.219-24.476,18.357-24.476c10.138,0,18.357,14.338,18.357,24.476
		s-8.219,18.357-18.357,18.357C166.316,360.022,158.097,351.803,158.097,341.665z"/>
</g>
<path d="M490.251,71.161c-16.963-19.608-41.561-30.854-67.488-30.854H288.125v-8.668c0-13.215-10.751-23.966-23.966-23.966h-16.317
	c-13.215,0-23.966,10.751-23.966,23.966v8.668H89.237c-25.927,0-50.525,11.246-67.488,30.854
	C4.788,90.768-2.8,116.729,0.931,142.387l41.534,285.551c3.085,21.212,13.713,40.617,29.925,54.641
	c16.211,14.025,36.946,21.748,58.381,21.748h178.26c4.225,0,7.649-3.424,7.649-7.649s-3.424-7.649-7.649-7.649h-178.26
	c-36.464,0-67.919-27.211-73.167-63.293L16.07,140.186c-3.092-21.259,3.195-42.769,17.249-59.016s34.436-25.564,55.918-25.564
	h333.526c21.482,0,41.864,9.318,55.918,25.564c14.054,16.246,20.341,37.757,17.249,59.016l-41.534,285.549
	c-5.248,36.084-36.703,63.294-73.167,63.294h-36.505c-4.225,0-7.649,3.424-7.649,7.649s3.424,7.649,7.649,7.649h36.505
	c21.436,0,42.17-7.723,58.381-21.748c16.211-14.024,26.839-33.429,29.925-54.642l41.534-285.55
	C514.8,116.729,507.212,90.768,490.251,71.161z M239.173,40.307v-8.668c0-4.78,3.889-8.668,8.668-8.668h16.317
	c4.78,0,8.668,3.889,8.668,8.668v8.668H239.173z"/>
<path d="M367.622,227.349c1.872-0.78,3.358-2.272,4.131-4.148l31.075-75.437c1.589-3.856-0.312-8.399-4.159-9.985
	c-45.304-18.662-93.304-28.124-142.668-28.124c-49.369,0-97.372,9.463-142.676,28.128c-3.906,1.609-5.768,6.08-4.159,9.985
	l31.077,75.435c1.587,3.853,6.127,5.748,9.985,4.159c33.543-13.818,69.13-20.824,105.774-20.824
	c36.642,0,72.227,7.005,105.768,20.822C363.644,228.133,365.749,228.128,367.622,227.349z M297.187,194.105l7.152-42.909
	c0.694-4.167-2.121-8.108-6.287-8.802c-4.183-0.703-8.109,2.12-8.803,6.286l-7.282,43.695c-8.592-0.75-17.25-1.134-25.966-1.134
	c-36.074,0-71.19,6.441-104.49,19.155l-25.258-61.308c17.133-6.637,34.659-11.896,52.49-15.805l3.622,17.039
	c0.866,4.077,4.994,6.758,9.072,5.891c4.076-0.868,6.757-4.994,5.891-9.072l-3.573-16.811c17.939-3.131,36.161-4.91,54.597-5.292
	v16.74c0,4.168,3.481,7.649,7.649,7.649c4.168,0,7.649-3.481,7.649-7.649v-16.74c18.437,0.382,36.66,2.162,54.597,5.292
	l-3.573,16.811c-0.867,4.077,1.814,8.204,5.891,9.072c4.077,0.868,8.206-1.814,9.072-5.891l3.622-17.04
	c17.829,3.908,35.351,9.165,52.482,15.801l-25.256,61.31C340.005,202.576,318.839,197.14,297.187,194.105z"/>
<path d="M256,447.217c39.273,0,62.719-18.872,62.719-50.481c0-34.583-28.136-62.719-62.719-62.719s-62.719,28.136-62.719,62.719
	C193.281,428.345,216.727,447.217,256,447.217z M256,349.314c26.149,0,47.422,21.272,47.422,47.422
	c0,30.613-29.712,35.184-47.422,35.184s-47.422-4.571-47.422-35.184C208.579,370.586,229.851,349.314,256,349.314z"/>
<path d="M199.4,304.951c0,14.34,11.666,26.005,26.005,26.005s26.005-11.666,26.005-26.005c0-12.789-10.373-32.124-26.005-32.124
	S199.4,292.163,199.4,304.951z M236.114,304.951c0,5.905-4.803,10.708-10.708,10.708s-10.708-4.803-10.708-10.708
	c0-7.235,6.105-16.827,10.708-16.827S236.114,297.717,236.114,304.951z"/>
<path d="M260.59,304.951c0,14.34,11.666,26.005,26.005,26.005c14.34,0,26.005-11.666,26.005-26.005
	c0-12.789-10.373-32.124-26.005-32.124S260.59,292.163,260.59,304.951z M297.303,304.951c0,5.905-4.803,10.708-10.708,10.708
	s-10.708-4.803-10.708-10.708c0-7.235,6.105-16.827,10.708-16.827S297.303,297.717,297.303,304.951z"/>
<path d="M361.552,341.665c0-12.789-10.373-32.124-26.005-32.124s-26.005,19.336-26.005,32.124c0,14.34,11.666,26.005,26.005,26.005
	C349.886,367.67,361.552,356.004,361.552,341.665z M335.547,352.373c-5.905,0-10.708-4.803-10.708-10.708
	c0-7.235,6.105-16.827,10.708-16.827s10.708,9.592,10.708,16.827C346.255,347.57,341.451,352.373,335.547,352.373z"/>
<path d="M176.454,367.67c14.34,0,26.005-11.666,26.005-26.005c0-12.789-10.373-32.124-26.005-32.124s-26.005,19.336-26.005,32.124
	C150.449,356.004,162.114,367.67,176.454,367.67z M176.454,324.838c4.603,0,10.708,9.592,10.708,16.827
	c0,5.905-4.803,10.708-10.708,10.708s-10.708-4.803-10.708-10.708C165.746,334.43,171.851,324.838,176.454,324.838z"/>
<g>
</g>
<g>
</g>
<g>
</g>
<g>
</g>
<g>
</g>
<g>
</g>
<g>
</g>
<g>
</g>
<g>
</g>
<g>
</g>
<g>
</g>
<g>
</g>
<g>
</g>
<g>
</g>
<g>
</g>
</svg>
