<?xml version="1.0" encoding="iso-8859-1"?>
<!-- Generator: Adobe Illustrator 19.0.0, SVG Export Plug-In . SVG Version: 6.00 Build 0)  -->
<svg version="1.1" id="Capa_1" xmlns="http://www.w3.org/2000/svg" xmlns:xlink="http://www.w3.org/1999/xlink" x="0px" y="0px"
	 viewBox="0 0 512 512" style="enable-background:new 0 0 512 512;" xml:space="preserve">
<path style="fill:#EEEEEC;" d="M320.125,368.219h-128.25c-17.708,0-32.063-14.355-32.063-32.063V87.671
	c0-17.708,14.355-32.063,32.063-32.063h128.25c17.708,0,32.063,14.355,32.063,32.063v248.485
	C352.188,353.864,337.833,368.219,320.125,368.219z"/>
<path style="fill:#DEDED9;" d="M323.978,55.847c2.645,4.662,4.163,10.049,4.163,15.793v248.485
	c0,17.708-14.355,32.063-32.063,32.063h-128.25c-1.305,0-2.589-0.087-3.853-0.238c5.51,9.712,15.936,16.27,27.899,16.27h128.25
	c17.708,0,32.063-14.355,32.063-32.063V87.671C352.188,71.268,339.868,57.752,323.978,55.847z"/>
<path style="fill:#F498AC;" d="M159.812,159.812v176.344c0,17.708,14.355,32.063,32.063,32.063h128.25
	c17.708,0,32.063-14.355,32.063-32.063V159.812H159.812z"/>
<path style="fill:#F17E97;" d="M328.141,159.812v160.313c0,17.708-14.355,32.063-32.063,32.063h-128.25
	c-1.305,0-2.589-0.087-3.853-0.238c5.51,9.712,15.936,16.27,27.899,16.27h128.25c17.708,0,32.063-14.355,32.063-32.063V159.812
	H328.141z"/>
<polygon style="fill:#FFFFFF;" points="296.078,231.953 272.031,231.953 272.031,207.906 239.969,207.906 239.969,231.953 
	215.922,231.953 215.922,264.016 239.969,264.016 239.969,288.063 272.031,288.063 272.031,264.016 296.078,264.016 "/>
<path style="fill:#EEEEEC;" d="M256,456.391L256,456.391c-13.281,0-24.047-10.766-24.047-24.047v-64.125h48.094v64.125
	C280.047,445.625,269.281,456.391,256,456.391z"/>
<rect x="231.953" y="368.219" style="fill:#DEDED9;" width="48.094" height="24.381"/>
<path style="fill:#F498AC;" d="M256,456.391L256,456.391c-13.281,0-24.047-10.766-24.047-24.047v-24.047h48.094v24.047
	C280.047,445.625,269.281,456.391,256,456.391z"/>
<path d="M320.125,48.094h-56.611v-2.238c9.308-3.144,16.031-11.953,16.031-22.31C279.546,10.563,268.983,0,256,0
	s-23.546,10.563-23.546,23.546c0,10.355,6.723,19.164,16.031,22.31v2.238h-56.611c-21.823,0-39.577,17.755-39.577,39.577v248.485
	c0,21.823,17.755,39.577,39.577,39.577h32.564v56.611c0,14.814,10.261,27.269,24.047,30.651v41.49c0,4.151,3.364,7.515,7.515,7.515
	c4.151,0,7.515-3.364,7.515-7.515v-41.49c13.786-3.382,24.047-15.837,24.047-30.651v-56.611h32.564
	c21.823,0,39.577-17.755,39.577-39.577V228.28c0-4.151-3.364-7.515-7.515-7.515s-7.515,3.364-7.515,7.515v107.877
	c0,13.536-11.012,24.548-24.548,24.548h-128.25c-13.536,0-24.548-11.012-24.548-24.548v-8.517h24.548
	c4.151,0,7.515-3.364,7.515-7.515s-3.364-7.515-7.515-7.515h-24.548v-49.096h24.548c4.151,0,7.515-3.364,7.515-7.515
	c0-4.151-3.364-7.515-7.515-7.515h-24.548v-49.096h24.548c4.151,0,7.515-3.364,7.515-7.515s-3.364-7.515-7.515-7.515h-24.548
	v-17.033h177.346v24.543c0,4.151,3.364,7.515,7.515,7.515s7.515-3.364,7.515-7.515V87.671
	C359.703,65.849,341.948,48.094,320.125,48.094z M256,15.029c4.696,0,8.517,3.82,8.517,8.517s-3.82,8.517-8.517,8.517
	c-4.696,0-8.517-3.82-8.517-8.517S251.304,15.029,256,15.029z M256,448.877c-9.116,0-16.532-7.417-16.532-16.532v-16.532h33.065
	v16.532C272.532,441.46,265.116,448.877,256,448.877z M272.532,375.734v25.049h-33.065v-25.049H272.532z M167.327,152.297v-17.033
	h24.548c4.151,0,7.515-3.364,7.515-7.515c0-4.151-3.364-7.515-7.515-7.515h-24.548V87.671c0-13.536,11.012-24.548,24.548-24.548
	h128.25c13.536,0,24.548,11.012,24.548,24.548v64.626H167.327z"/>
<path d="M239.969,295.577h32.063c4.151,0,7.515-3.364,7.515-7.515V271.53h16.532c4.151,0,7.515-3.364,7.515-7.515v-32.063
	c0-4.151-3.364-7.515-7.515-7.515h-16.532v-16.532c0-4.151-3.364-7.515-7.515-7.515h-32.063c-4.151,0-7.515,3.364-7.515,7.515
	v16.532h-16.532c-4.151,0-7.515,3.364-7.515,7.515v32.063c0,4.151,3.364,7.515,7.515,7.515h16.532v16.532
	C232.454,292.214,235.818,295.577,239.969,295.577z M223.436,256.501v-17.033h16.532c4.151,0,7.515-3.364,7.515-7.515v-16.532
	h17.033v16.532c0,4.151,3.364,7.515,7.515,7.515h16.532v17.033h-16.532c-4.151,0-7.515,3.364-7.515,7.515v16.532h-17.033v-16.532
	c0-4.151-3.364-7.515-7.515-7.515H223.436z"/>
<g>
</g>
<g>
</g>
<g>
</g>
<g>
</g>
<g>
</g>
<g>
</g>
<g>
</g>
<g>
</g>
<g>
</g>
<g>
</g>
<g>
</g>
<g>
</g>
<g>
</g>
<g>
</g>
<g>
</g>
</svg>
