<?xml version="1.0" encoding="iso-8859-1"?>
<!-- Generator: Adobe Illustrator 19.0.0, SVG Export Plug-In . SVG Version: 6.00 Build 0)  -->
<svg version="1.1" id="Capa_1" xmlns="http://www.w3.org/2000/svg" xmlns:xlink="http://www.w3.org/1999/xlink" x="0px" y="0px"
	 viewBox="0 0 512.001 512.001" style="enable-background:new 0 0 512.001 512.001;" xml:space="preserve">
<polygon style="fill:#F9CBD5;" points="159.813,504.486 416.313,504.486 416.313,159.815 384.251,87.672 159.813,87.672 "/>
<polygon style="fill:#F6B1C0;" points="384.251,504.486 416.313,504.486 416.313,159.815 384.251,87.672 "/>
<polygon style="fill:#F498AC;" points="352.188,504.486 95.687,504.486 95.687,159.815 127.75,87.672 384.251,87.672 
	352.188,159.815 "/>
<g>
	<path style="fill:#FDC572;" d="M169.832,302.091c0-29.881,24.224-54.106,54.106-54.106s54.106,24.224,54.106,54.106
		c0,29.881-24.224,42.082-54.106,42.082S169.832,331.973,169.832,302.091z"/>
	<path style="fill:#FDC572;" d="M175.844,211.915c0-9.96,8.075-24.047,18.035-24.047s18.035,14.087,18.035,24.047
		s-8.075,18.035-18.035,18.035S175.844,221.876,175.844,211.915z"/>
	<path style="fill:#FDC572;" d="M235.961,211.915c0-9.96,8.075-24.047,18.035-24.047c9.96,0,18.035,14.087,18.035,24.047
		s-8.075,18.035-18.035,18.035C244.036,229.95,235.961,221.876,235.961,211.915z"/>
	<path style="fill:#FDC572;" d="M284.055,247.985c0-9.96,8.075-24.047,18.035-24.047s18.035,14.087,18.035,24.047
		c0,9.96-8.075,18.035-18.035,18.035S284.055,257.947,284.055,247.985z"/>
	<path style="fill:#FDC572;" d="M127.75,247.985c0-9.96,8.075-24.047,18.035-24.047s18.035,14.087,18.035,24.047
		c0,9.96-8.075,18.035-18.035,18.035S127.75,257.947,127.75,247.985z"/>
</g>
<polygon style="fill:#F9CBD5;" points="384.251,87.672 127.75,87.672 127.75,7.515 159.813,23.547 191.875,7.515 223.938,23.547 
	256,7.515 288.063,23.547 320.126,7.515 352.188,23.547 384.251,7.515 "/>
<rect x="127.75" y="63.625" style="fill:#F6B1C0;" width="256.501" height="24.047"/>
<polygon style="fill:#EEEEEC;" points="272.032,440.361 95.687,440.361 95.687,376.236 272.032,376.236 312.11,408.298 "/>
<path d="M423.181,156.764l-31.415-70.686V7.515c0-5.482-5.963-9.177-10.875-6.721l-28.702,14.352L323.487,0.794
	c-2.115-1.059-4.607-1.059-6.722,0l-28.702,14.352L259.362,0.794c-2.115-1.059-4.607-1.059-6.722,0l-28.702,14.352L195.236,0.794
	c-2.115-1.059-4.606-1.059-6.721,0l-28.702,14.352L131.11,0.794c-4.912-2.456-10.875,1.24-10.875,6.721v78.562L88.82,156.763
	c-0.426,0.955-0.647,2.008-0.647,3.052v344.671c0,4.151,3.365,7.515,7.515,7.515h320.626c4.151,0,7.515-3.364,7.515-7.515V159.815
	C423.828,158.764,423.609,157.725,423.181,156.764z M135.265,19.674l21.187,10.594c2.115,1.059,4.606,1.059,6.721,0l28.702-14.351
	l28.702,14.351c2.115,1.059,4.606,1.059,6.721,0L256,15.917l28.702,14.351c2.115,1.059,4.607,1.059,6.722,0l28.701-14.351
	l28.702,14.351c2.115,1.059,4.607,1.059,6.722,0l21.186-10.594v60.483H135.265V19.674z M103.202,383.75h166.194l30.685,24.548
	l-30.685,24.548H103.202V383.75z M103.202,496.971v-49.096h168.83c1.706,0,3.362-0.581,4.695-1.647l40.078-32.063
	c3.701-2.962,3.701-8.774,0-11.736l-40.078-32.063c-1.333-1.065-2.988-1.647-4.695-1.647h-168.83V167.328H261.01
	c4.151,0,7.515-3.364,7.515-7.515s-3.364-7.515-7.515-7.515H107.252l25.383-57.112h240.054l-25.382,57.112h-51.228
	c-4.151,0-7.515,3.364-7.515,7.515s3.364,7.515,7.515,7.515h48.595v329.644H103.202z M408.799,496.971h-49.096V161.41l24.548-55.235
	l24.548,55.235V496.971z"/>
<path d="M223.938,240.47c-33.977,0-61.62,27.643-61.62,61.62c0,31.056,23.036,49.597,61.62,49.597
	c38.585,0,61.62-18.541,61.62-49.597C285.558,268.113,257.915,240.47,223.938,240.47z M223.938,336.658
	c-17.4,0-46.591-4.491-46.591-34.568c0-25.691,20.901-46.591,46.591-46.591c25.691,0,46.591,20.9,46.591,46.591
	C270.529,332.168,241.338,336.658,223.938,336.658z"/>
<path d="M193.879,237.465c14.089,0,25.55-11.461,25.55-25.55c0-12.565-10.19-31.562-25.55-31.562s-25.55,18.997-25.55,31.562
	C168.329,226.003,179.792,237.465,193.879,237.465z M193.879,195.382c4.523,0,10.521,9.424,10.521,16.532
	c0,5.801-4.719,10.521-10.521,10.521s-10.521-4.719-10.521-10.521C183.358,204.808,189.356,195.382,193.879,195.382z"/>
<path d="M253.996,237.465c14.089,0,25.55-11.461,25.55-25.55c0-12.565-10.191-31.562-25.55-31.562s-25.55,18.997-25.55,31.562
	C228.447,226.003,239.909,237.465,253.996,237.465z M253.996,195.382c4.523,0,10.521,9.424,10.521,16.532
	c0,5.801-4.719,10.521-10.521,10.521c-5.801,0-10.521-4.719-10.521-10.521C243.476,204.808,249.475,195.382,253.996,195.382z"/>
<path d="M302.09,216.423c-15.359,0-25.55,18.997-25.55,31.562c0,14.089,11.461,25.55,25.55,25.55s25.55-11.461,25.55-25.55
	C327.64,235.421,317.449,216.423,302.09,216.423z M302.09,258.506c-5.801,0-10.521-4.719-10.521-10.521
	c0-7.108,5.998-16.532,10.521-16.532s10.521,9.424,10.521,16.532C312.611,253.787,307.892,258.506,302.09,258.506z"/>
<path d="M171.335,247.985c0-12.565-10.19-31.562-25.55-31.562s-25.55,18.997-25.55,31.562c0,14.089,11.461,25.55,25.55,25.55
	S171.335,262.074,171.335,247.985z M145.785,258.506c-5.801,0-10.521-4.719-10.521-10.521c0-7.108,5.998-16.532,10.521-16.532
	s10.521,9.424,10.521,16.532C156.306,253.787,151.586,258.506,145.785,258.506z"/>
<path d="M159.813,464.909H127.75c-4.15,0-7.515,3.364-7.515,7.515c0,4.151,3.365,7.515,7.515,7.515h32.063
	c4.15,0,7.515-3.364,7.515-7.515C167.327,468.272,163.963,464.909,159.813,464.909z"/>
<path d="M264.016,464.909h-72.141c-4.15,0-7.515,3.364-7.515,7.515c0,4.151,3.365,7.515,7.515,7.515h72.141
	c4.151,0,7.515-3.364,7.515-7.515C271.531,468.272,268.167,464.909,264.016,464.909z"/>
<path d="M183.859,400.784h-56.11c-4.15,0-7.515,3.364-7.515,7.515c0,4.151,3.365,7.515,7.515,7.515h56.11
	c4.15,0,7.515-3.364,7.515-7.515C191.374,404.147,188.01,400.784,183.859,400.784z"/>
<path d="M256,400.784h-40.078c-4.15,0-7.515,3.364-7.515,7.515c0,4.151,3.365,7.515,7.515,7.515H256
	c4.151,0,7.515-3.364,7.515-7.515C263.515,404.147,260.151,400.784,256,400.784z"/>
<g>
</g>
<g>
</g>
<g>
</g>
<g>
</g>
<g>
</g>
<g>
</g>
<g>
</g>
<g>
</g>
<g>
</g>
<g>
</g>
<g>
</g>
<g>
</g>
<g>
</g>
<g>
</g>
<g>
</g>
</svg>
