<?xml version="1.0" encoding="iso-8859-1"?>
<!-- Generator: Adobe Illustrator 19.0.0, SVG Export Plug-In . SVG Version: 6.00 Build 0)  -->
<svg version="1.1" id="Capa_1" xmlns="http://www.w3.org/2000/svg" xmlns:xlink="http://www.w3.org/1999/xlink" x="0px" y="0px"
	 viewBox="0 0 512 512" style="enable-background:new 0 0 512 512;" xml:space="preserve">
<path style="fill:#75E0F1;" d="M368.218,31.561c-51.29,0-90.761-14.408-112.219-24.047c-21.458,9.639-60.929,24.047-112.219,24.047
	c-23.523,0-65.433-3.031-112.219-24.047c0,40.078,0,192.376,0,232.454c1.198,41.627,56.11,192.376,224.438,264.517
	c168.329-72.141,223.24-222.889,224.438-264.517c0-40.078,0-192.376,0-232.454C433.651,28.53,391.741,31.561,368.218,31.561z"/>
<path style="fill:#EEEEEC;" d="M255.999,469.334c-76.108-35.867-122.454-88.042-148.29-126.447
	c-32.149-47.79-43.513-90.001-44.086-103.471V52.89c26.129,7.074,53.232,10.734,80.157,10.734c38.139,0,76.645-7.346,112.219-21.334
	c35.574,13.987,74.08,21.334,112.219,21.334c26.925,0,54.028-3.66,80.157-10.734v186.527c-0.573,13.469-11.937,55.68-44.086,103.471
	C378.453,381.292,332.107,433.468,255.999,469.334z"/>
<path style="fill:#DEDED9;" d="M424.328,58.379v170.31c-0.573,13.469-11.937,55.68-44.086,103.471
	c-25.651,38.131-71.537,89.828-146.68,125.668c7.179,3.983,14.645,7.834,22.438,11.507c76.108-35.867,122.454-88.042,148.29-126.447
	c32.149-47.79,43.513-90.001,44.086-103.471V52.89C440.438,55.038,432.411,56.867,424.328,58.379z"/>
<rect x="363.434" y="168.665" transform="matrix(-0.7071 -0.7071 0.7071 -0.7071 514.3534 590.4592)" style="fill:#8B8A7B;" width="32.062" height="40.078"/>
<polygon style="fill:#FDC572;" points="393.64,231.215 336.961,174.537 223.603,287.895 223.603,321.902 200.93,344.575 
	223.603,367.246 246.274,344.575 280.281,344.575 "/>
<polygon style="fill:#FCB74F;" points="393.64,231.215 377.29,214.865 247.58,344.574 280.281,344.574 "/>
<rect x="207.57" y="328.54" transform="matrix(-0.7071 0.7071 -0.7071 -0.7071 625.3588 430.1097)" style="fill:#6A6956;" width="32.062" height="32.062"/>
<polygon style="fill:#AED45B;" points="264.015,151.796 223.936,151.796 223.936,111.718 175.842,111.718 175.842,151.796 
	135.764,151.796 135.764,199.89 175.842,199.89 175.842,239.968 223.936,239.968 223.936,199.89 264.015,199.89 "/>
<path d="M484.519,1.205c-2.139-1.385-4.834-1.588-7.161-0.546c-34.063,15.3-71.802,23.388-109.14,23.388
	c-37.337,0-75.077-8.087-109.14-23.388c-1.959-0.879-4.199-0.879-6.158,0c-34.064,15.3-71.803,23.388-109.14,23.388
	c-37.338,0-75.079-8.087-109.14-23.388c-4.891-2.195-10.594,1.504-10.594,6.855v232.454c0,0.072,0.001,0.144,0.003,0.216
	c0.713,24.778,16.921,74.4,50.822,124.795c30.208,44.905,85.639,106.758,178.168,146.413c0.945,0.405,1.953,0.607,2.961,0.607
	s2.015-0.202,2.961-0.607c92.529-39.655,147.96-101.508,178.168-146.413c33.9-50.394,50.109-100.015,50.822-124.795
	c0.002-0.072,0.003-0.144,0.003-0.216V7.514C487.952,4.965,486.659,2.589,484.519,1.205z M472.923,239.855
	c-0.59,18.999-13.909,65.662-48.265,116.734c-28.756,42.747-81.273,101.455-168.658,139.707
	c-87.385-38.252-139.902-96.959-168.658-139.707c-34.356-51.072-47.675-97.735-48.265-116.734V18.864
	C72.207,32.11,108.167,39.076,143.78,39.076c38.322,0,77.046-8.065,112.219-23.347c35.173,15.282,73.897,23.347,112.219,23.347
	c35.613,0,71.573-6.965,104.704-20.212V239.855z"/>
<path d="M258.748,35.297c-1.767-0.694-3.732-0.694-5.499,0c-34.631,13.616-72.485,20.813-109.47,20.813
	c-26.215,0-52.523-3.524-78.193-10.472c-2.258-0.611-4.673-0.136-6.531,1.286s-2.948,3.628-2.948,5.968v186.527
	c0,0.106,0.002,0.213,0.007,0.32c0.701,16.475,13.636,60.189,45.359,107.346c25.944,38.565,73.256,92.26,151.322,129.05
	c1.014,0.479,2.109,0.717,3.203,0.717s2.189-0.238,3.203-0.717c78.065-36.79,125.378-90.485,151.322-129.05
	c31.723-47.156,44.657-90.869,45.359-107.346c0.004-0.106,0.007-0.213,0.007-0.32V124.739c0-4.151-3.365-7.515-7.515-7.515
	c-4.15,0-7.515,3.364-7.515,7.515v114.508c-0.615,12.697-11.816,53.378-42.807,99.446c-24.531,36.467-68.997,87.042-142.054,122.316
	c-73.058-35.274-117.524-85.85-142.054-122.316c-30.991-46.068-42.191-86.749-42.807-99.446V62.554
	c23.931,5.7,48.319,8.585,72.642,8.585c37.872,0,76.607-7.182,112.219-20.789c35.613,13.607,74.346,20.789,112.219,20.789
	c24.321,0,48.711-2.885,72.642-8.584v25.447c0,4.151,3.365,7.515,7.515,7.515c4.15,0,7.515-3.364,7.515-7.515V52.89
	c0-2.34-1.089-4.546-2.948-5.968c-1.859-1.423-4.274-1.899-6.531-1.286c-25.67,6.949-51.978,10.472-78.193,10.472
	C331.232,56.109,293.378,48.912,258.748,35.297z"/>
<path d="M410.999,202.522c3.056,3.055,8.217,2.851,11.027-0.432c2.519-2.942,2.337-7.461-0.4-10.197l-45.344-45.344
	c-2.935-2.934-7.693-2.934-10.627,0c-2.935,2.936-2.935,7.693,0,10.628l6.022,6.022l-17.712,17.712l-11.69-11.69
	c-2.935-2.934-7.693-2.934-10.627,0L218.289,282.581c-1.41,1.41-2.201,3.32-2.201,5.314v30.894l-20.471,20.471
	c-2.894,2.895-2.894,7.734,0,10.628l6.022,6.022l-23.026,23.025c-2.736,2.736-2.918,7.255-0.4,10.197
	c2.809,3.281,7.971,3.487,11.027,0.432l23.026-23.026l6.023,6.022c2.896,2.895,7.732,2.895,10.627,0l20.471-20.471h30.894
	c1.993,0,3.905-0.792,5.313-2.2l113.358-113.359c2.935-2.936,2.935-7.693,0-10.628l-11.69-11.69l17.712-17.712L410.999,202.522z
	 M211.558,344.575l12.045-12.044l12.045,12.044l-12.045,12.045L211.558,344.575z M277.169,337.06h-27.781l-18.27-18.271v-27.782
	l9.489-9.489l17.359,17.359c3.056,3.055,8.217,2.851,11.027-0.432c2.519-2.942,2.337-7.461-0.4-10.197l-17.358-17.358l23.38-23.38
	l17.359,17.358c3.056,3.055,8.217,2.851,11.027-0.432c2.519-2.942,2.337-7.461-0.4-10.197l-17.358-17.358l23.38-23.38l17.358,17.359
	c3.056,3.055,8.217,2.851,11.027-0.432c2.519-2.942,2.337-7.461-0.4-10.197l-17.358-17.358l17.713-17.713l46.052,46.052
	L277.169,337.06z M376.637,203.584l-12.045-12.045l17.712-17.712l12.045,12.045L376.637,203.584z"/>
<path d="M175.842,247.483h48.094c4.15,0,7.515-3.364,7.515-7.515v-32.564h32.564c4.15,0,7.515-3.364,7.515-7.515v-48.094
	c0-4.151-3.365-7.515-7.515-7.515h-32.564v-32.564c0-4.151-3.365-7.515-7.515-7.515h-48.094c-4.15,0-7.515,3.364-7.515,7.515v32.564
	h-32.564c-4.15,0-7.515,3.364-7.515,7.515v48.094c0,4.151,3.365,7.515,7.515,7.515h32.564v32.564
	C168.328,244.119,171.692,247.483,175.842,247.483z M143.279,192.375v-33.065h32.564c4.15,0,7.515-3.364,7.515-7.515v-32.564h33.065
	v32.564c0,4.151,3.365,7.515,7.515,7.515H256.5v33.065h-32.564c-4.15,0-7.515,3.364-7.515,7.515v32.564h-33.065V199.89
	c0-4.151-3.365-7.515-7.515-7.515H143.279z"/>
<g>
</g>
<g>
</g>
<g>
</g>
<g>
</g>
<g>
</g>
<g>
</g>
<g>
</g>
<g>
</g>
<g>
</g>
<g>
</g>
<g>
</g>
<g>
</g>
<g>
</g>
<g>
</g>
<g>
</g>
</svg>
