<?xml version="1.0" encoding="iso-8859-1"?>
<!-- Generator: Adobe Illustrator 19.0.0, SVG Export Plug-In . SVG Version: 6.00 Build 0)  -->
<svg version="1.1" id="Capa_1" xmlns="http://www.w3.org/2000/svg" xmlns:xlink="http://www.w3.org/1999/xlink" x="0px" y="0px"
	 viewBox="0 0 512 512" style="enable-background:new 0 0 512 512;" xml:space="preserve">
<g>
	<path style="fill:#CDCDC7;" d="M87.671,343.17c0-94.626,75.363-171.335,168.329-171.335s168.329,76.709,168.329,171.335
		S348.966,476.431,256,476.431S87.671,437.796,87.671,343.17z"/>
	<path style="fill:#CDCDC7;" d="M7.515,187.867c0-26.562,21.532-56.11,48.094-56.11s48.094,29.548,48.094,56.11
		s-21.532,48.094-48.094,48.094S7.515,214.429,7.515,187.867z"/>
	<path style="fill:#CDCDC7;" d="M127.75,91.679c0-26.562,21.532-56.11,48.094-56.11s48.094,29.548,48.094,56.11
		s-21.532,48.094-48.094,48.094S127.75,118.241,127.75,91.679z"/>
	<path style="fill:#CDCDC7;" d="M504.485,187.867c0-26.562-21.532-56.11-48.094-56.11s-48.094,29.548-48.094,56.11
		s21.532,48.094,48.094,48.094S504.485,214.429,504.485,187.867z"/>
	<path style="fill:#CDCDC7;" d="M384.25,91.679c0-26.562-21.532-56.11-48.094-56.11s-48.094,29.548-48.094,56.11
		s21.532,48.094,48.094,48.094S384.25,118.241,384.25,91.679z"/>
</g>
<path style="fill:#F17E97;" d="M167.828,356.196C167.828,307.5,256,203.898,256,203.898s88.172,103.601,88.172,152.297
	S304.696,444.368,256,444.368S167.828,404.892,167.828,356.196z"/>
<path style="fill:#EE6482;" d="M256,203.898c0,0-5.126,6.026-12.896,15.836c25.936,33.559,69.006,94.409,69.006,128.446
	c0,48.696-39.476,88.172-88.172,88.172c-1.685,0-3.359-0.052-5.021-0.145c11.274,5.234,23.836,8.161,37.083,8.161
	c48.696,0,88.172-39.476,88.172-88.172S256,203.898,256,203.898z"/>
<polygon style="fill:#FFFFFF;" points="304.094,332.149 272.031,332.149 272.031,300.086 239.969,300.086 239.969,332.149 
	207.906,332.149 207.906,364.211 239.969,364.211 239.969,396.274 272.031,396.274 272.031,364.211 304.094,364.211 "/>
<path d="M401.615,256.833c-3.687,1.905-5.131,6.44-3.225,10.126c12.054,23.318,18.424,49.672,18.424,76.212
	c0,42.097-15.516,74.387-46.119,95.973c-27.612,19.478-67.272,29.772-114.695,29.772s-87.083-10.294-114.695-29.772
	c-30.603-21.586-46.119-53.876-46.119-95.973c0-90.33,72.141-163.82,160.814-163.82c47.417,0,92.192,21.174,122.844,58.093
	c2.615,3.149,7.433,3.596,10.583,0.981c3.15-2.615,3.596-7.432,0.981-10.583C356.89,187.473,307.901,164.321,256,164.321
	c-96.96,0-175.843,80.232-175.843,178.849c0,24.044,4.72,45.617,14.029,64.119c8.804,17.497,21.742,32.346,38.456,44.136
	c30.16,21.275,72.817,32.52,123.358,32.52s93.198-11.245,123.358-32.52c16.714-11.79,29.652-26.639,38.456-44.136
	c9.309-18.502,14.029-40.075,14.029-64.119c0-28.932-6.952-57.672-20.102-83.113C409.835,256.37,405.301,254.926,401.615,256.833z"
	/>
<path d="M111.217,187.867c0-14.842-5.748-30.425-15.77-42.756c-10.939-13.458-25.087-20.869-39.839-20.869
	s-28.899,7.41-39.839,20.869C5.748,157.441,0,173.025,0,187.867c0,30.663,24.946,55.609,55.609,55.609
	S111.217,218.53,111.217,187.867z M55.609,228.446c-22.376,0-40.579-18.204-40.579-40.579c0-22.011,18.1-48.595,40.579-48.595
	s40.579,26.584,40.579,48.595C96.188,210.243,77.984,228.446,55.609,228.446z"/>
<path d="M175.843,147.288c30.663,0,55.609-24.946,55.609-55.609c0-14.842-5.748-30.425-15.77-42.756
	c-10.939-13.458-25.087-20.869-39.839-20.869s-28.899,7.41-39.839,20.869c-10.022,12.33-15.77,27.914-15.77,42.756
	C120.235,122.342,145.181,147.288,175.843,147.288z M175.843,43.084c22.479,0,40.579,26.584,40.579,48.595
	c0,22.376-18.204,40.579-40.579,40.579s-40.579-18.204-40.579-40.579C135.264,69.668,153.365,43.084,175.843,43.084z"/>
<path d="M496.23,145.111c-10.939-13.458-25.087-20.869-39.839-20.869s-28.899,7.41-39.839,20.869
	c-10.022,12.33-15.77,27.914-15.77,42.756c0,30.663,24.946,55.609,55.609,55.609S512,218.53,512,187.867
	C512,173.025,506.252,157.441,496.23,145.111z M456.391,228.446c-22.376,0-40.579-18.204-40.579-40.579
	c0-22.011,18.1-48.595,40.579-48.595s40.579,26.584,40.579,48.595C496.971,210.243,478.767,228.446,456.391,228.446z"/>
<path d="M336.157,147.288c30.663,0,55.609-24.946,55.609-55.609c0-14.842-5.748-30.425-15.77-42.756
	c-10.939-13.458-25.087-20.869-39.839-20.869s-28.899,7.41-39.839,20.869c-10.022,12.33-15.77,27.914-15.77,42.756
	C280.548,122.342,305.494,147.288,336.157,147.288z M336.157,43.084c22.479,0,40.579,26.584,40.579,48.595
	c0,22.376-18.204,40.579-40.579,40.579s-40.579-18.204-40.579-40.579C295.577,69.668,313.678,43.084,336.157,43.084z"/>
<path d="M256,196.384c-2.203,0-4.295,0.967-5.722,2.644c-3.674,4.316-89.965,106.293-89.965,157.168
	c0,52.762,42.925,95.687,95.687,95.687s95.687-42.925,95.687-95.687c0-50.875-86.291-152.852-89.965-157.168
	C260.295,197.35,258.203,196.384,256,196.384z M336.658,356.196c0,44.475-36.183,80.658-80.658,80.658s-80.658-36.183-80.658-80.658
	c0-34.958,53.732-107.722,80.658-140.567C282.927,248.465,336.658,321.218,336.658,356.196z"/>
<path d="M232.454,300.086v24.548h-24.548c-4.15,0-7.515,3.364-7.515,7.515v32.063c0,4.151,3.365,7.515,7.515,7.515h24.548v24.548
	c0,4.151,3.365,7.515,7.515,7.515h32.063c4.15,0,7.515-3.364,7.515-7.515v-24.548h24.548c4.15,0,7.515-3.364,7.515-7.515v-32.063
	c0-4.151-3.365-7.515-7.515-7.515h-24.548v-24.548c0-4.151-3.365-7.515-7.515-7.515h-32.063
	C235.819,292.571,232.454,295.935,232.454,300.086z M247.483,332.149v-24.548h17.033v24.548c0,4.151,3.365,7.515,7.515,7.515h24.548
	v17.033h-24.548c-4.15,0-7.515,3.364-7.515,7.515v24.548h-17.033v-24.548c0-4.151-3.365-7.515-7.515-7.515h-24.548v-17.033h24.548
	C244.119,339.663,247.483,336.3,247.483,332.149z"/>
<g>
</g>
<g>
</g>
<g>
</g>
<g>
</g>
<g>
</g>
<g>
</g>
<g>
</g>
<g>
</g>
<g>
</g>
<g>
</g>
<g>
</g>
<g>
</g>
<g>
</g>
<g>
</g>
<g>
</g>
</svg>
