<?xml version="1.0" encoding="iso-8859-1"?>
<!-- Generator: Adobe Illustrator 19.0.0, SVG Export Plug-In . SVG Version: 6.00 Build 0)  -->
<svg version="1.1" id="Capa_1" xmlns="http://www.w3.org/2000/svg" xmlns:xlink="http://www.w3.org/1999/xlink" x="0px" y="0px"
	 viewBox="0 0 511.999 511.999" style="enable-background:new 0 0 511.999 511.999;" xml:space="preserve">
<rect x="239.939" y="127.741" style="fill:#FDC572;" width="32.066" height="128.262"/>
<rect x="239.939" y="127.741" style="fill:#FCB74F;" width="32.066" height="48.098"/>
<path style="fill:#FDC572;" d="M296.058,63.607c-16.734,0-31.465,8.549-40.082,21.515c-8.617-12.965-23.348-21.515-40.082-21.515
	c-26.564,0-48.098,21.534-48.098,48.098s21.534,48.098,48.098,48.098c16.734,0,31.465-8.549,40.082-21.515
	c8.617,12.965,23.348,21.515,40.082,21.515c26.564,0,48.098-21.534,48.098-48.098S322.622,63.607,296.058,63.607z M215.894,127.738
	c-8.854,0-16.033-7.179-16.033-16.033s7.179-16.033,16.033-16.033c8.854,0,16.033,7.179,16.033,16.033
	S224.748,127.738,215.894,127.738z M296.058,127.738c-8.854,0-16.033-7.179-16.033-16.033s7.179-16.033,16.033-16.033
	c8.854,0,16.033,7.179,16.033,16.033S304.912,127.738,296.058,127.738z"/>
<path style="fill:#53D9ED;" d="M352.173,264.016c-84.008-54.26-233.074-17.651-344.704,112.229H424.32
	C405.589,302.529,366.768,273.443,352.173,264.016z"/>
<path style="fill:#3DC9D9;" d="M352.173,264.016c-11.856-7.659-25.01-13.504-39.17-17.535c16.82,13.033,44.18,40.814,60.384,95.58
	c1.523,5.149-2.313,10.322-7.681,10.322H29.412c-7.45,7.572-14.775,15.522-21.944,23.862H424.32
	C405.589,302.529,366.768,273.443,352.173,264.016z"/>
<path style="fill:#98E8F4;" d="M151.763,296.081c-17.709,0-32.066,14.356-32.066,32.066h64.131
	C183.829,310.438,169.472,296.081,151.763,296.081z"/>
<path d="M296.058,135.253c12.985,0,23.548-10.564,23.548-23.548s-10.564-23.548-23.548-23.548
	c-12.985,0-23.548,10.564-23.548,23.548S283.074,135.253,296.058,135.253z M296.058,103.187c4.697,0,8.517,3.821,8.517,8.517
	c0,4.697-3.821,8.517-8.517,8.517c-4.697,0-8.517-3.821-8.517-8.517C287.541,107.008,291.361,103.187,296.058,103.187z"/>
<path d="M215.894,88.157c-12.985,0-23.548,10.564-23.548,23.548s10.564,23.548,23.548,23.548c12.985,0,23.548-10.564,23.548-23.548
	S228.879,88.157,215.894,88.157z M215.894,120.222c-4.697,0-8.517-3.821-8.517-8.517c0-4.697,3.821-8.517,8.517-8.517
	c4.697,0,8.517,3.821,8.517,8.517C224.412,116.401,220.59,120.222,215.894,120.222z"/>
<path d="M112.182,328.147c0,4.151,3.364,7.515,7.515,7.515h64.131c4.151,0,7.515-3.364,7.515-7.515
	c0-21.825-17.756-39.581-39.581-39.581S112.182,306.322,112.182,328.147z M175.137,320.632h-46.748
	c3.182-9.873,12.457-17.035,23.374-17.035S171.956,310.758,175.137,320.632z"/>
<circle cx="80.117" cy="344.684" r="7.515"/>
<path d="M468.41,368.73h-38.316c-13.782-49.79-39.863-89.078-73.844-111.027c-21.819-14.093-47.632-22.421-76.726-24.765V164.81
	c5.281,1.642,10.844,2.508,16.534,2.508c30.666,0,55.614-24.948,55.614-55.614s-24.948-55.614-55.614-55.614
	c-15.295,0-29.688,6.242-40.082,17.062c-10.394-10.821-24.787-17.062-40.082-17.062c-30.666,0-55.614,24.948-55.614,55.614
	s24.948,55.614,55.614,55.614c5.69,0,11.253-0.867,16.534-2.508v69.447c-14.515,1.882-29.349,5.083-44.418,9.626
	C121.265,264.001,55.124,309.269,1.77,371.346c-4.109,4.78-0.589,12.414,5.7,12.414h309.299c4.151,0,7.515-3.364,7.515-7.515
	s-3.364-7.515-7.515-7.515H24.225c49.415-53.539,108.598-92.513,168.123-110.456c60.271-18.168,115.583-13.884,155.747,12.055
	c17.664,11.41,48.974,39.067,66.38,98.401h-61.969c-4.151,0-7.515,3.364-7.515,7.515s3.364,7.515,7.515,7.515h71.814h44.09
	c15.747,0,28.558,12.811,28.558,28.558s-12.811,28.558-28.558,28.558H223.911c-4.151,0-7.515,3.364-7.515,7.515
	s3.364,7.515,7.515,7.515H468.41c24.035,0,43.589-19.554,43.589-43.589S492.445,368.73,468.41,368.73z M175.311,111.705
	c0-22.378,18.205-40.583,40.583-40.583c13.622,0,26.266,6.788,33.823,18.159c2.921,4.397,9.597,4.397,12.518,0
	c7.557-11.371,20.201-18.159,33.823-18.159c22.378,0,40.583,18.205,40.583,40.583s-18.205,40.583-40.583,40.583
	c-13.622,0-26.266-6.788-33.823-18.159c-2.921-4.397-9.597-4.397-12.518,0c-7.557,11.371-20.201,18.159-33.823,18.159
	C193.517,152.288,175.311,134.083,175.311,111.705z M247.459,232.774V157.5c3.057-2.109,5.913-4.533,8.517-7.244
	c2.604,2.712,5.46,5.134,8.517,7.244v74.78C258.876,232.228,253.196,232.392,247.459,232.774z"/>
<g>
</g>
<g>
</g>
<g>
</g>
<g>
</g>
<g>
</g>
<g>
</g>
<g>
</g>
<g>
</g>
<g>
</g>
<g>
</g>
<g>
</g>
<g>
</g>
<g>
</g>
<g>
</g>
<g>
</g>
</svg>
