<?xml version="1.0" encoding="iso-8859-1"?>
<!-- Generator: Adobe Illustrator 19.0.0, SVG Export Plug-In . SVG Version: 6.00 Build 0)  -->
<svg version="1.1" id="Capa_1" xmlns="http://www.w3.org/2000/svg" xmlns:xlink="http://www.w3.org/1999/xlink" x="0px" y="0px"
	 viewBox="0 0 512 512" style="enable-background:new 0 0 512 512;" xml:space="preserve">
<polygon style="fill:#A38DCE;" points="348.699,117.526 284.213,117.526 284.213,36.919 348.699,44.98 "/>
<polygon style="fill:#8C70C2;" points="348.699,44.98 324.013,41.894 324.013,117.526 348.699,117.526 "/>
<path style="fill:#EEEEEC;" d="M421.246,504.443h-209.58V182.013c0-35.615,28.872-64.486,64.486-64.486h80.608
	c35.615,0,64.486,28.872,64.486,64.486V504.443z"/>
<path style="fill:#DEDED9;" d="M356.76,117.526h-80.608c-18.483,0-35.138,7.788-46.896,20.248c7.066-2.66,14.717-4.126,22.713-4.126
	h96.729c26.711,0,48.365,21.653,48.365,48.365v322.431h24.182V182.013C421.246,146.398,392.374,117.526,356.76,117.526z"/>
<rect x="211.666" y="198.134" style="fill:#AED45B;" width="209.58" height="257.945"/>
<rect x="397.064" y="198.134" style="fill:#9AC932;" width="24.182" height="257.945"/>
<ellipse style="fill:#9C9B8E;" cx="316.456" cy="336.175" rx="40.304" ry="48.365"/>
<circle style="fill:#8B8A7B;" cx="316.456" cy="279.75" r="16.122"/>
<path d="M206.124,77.223c0,4.174,3.383,7.557,7.557,7.557h6.046c4.174,0,7.557-3.382,7.557-7.557s-3.382-7.557-7.557-7.557h-6.046
	C209.507,69.666,206.124,73.048,206.124,77.223z"/>
<path d="M139.656,69.666h-11.689c-4.174,0-7.557,3.382-7.557,7.557s3.383,7.557,7.557,7.557h11.689c4.174,0,7.557-3.382,7.557-7.557
	S143.831,69.666,139.656,69.666z"/>
<path d="M182.512,69.666h-11.688c-4.174,0-7.557,3.382-7.557,7.557s3.382,7.557,7.557,7.557h11.688c4.174,0,7.557-3.382,7.557-7.557
	S186.687,69.666,182.512,69.666z"/>
<path d="M96.8,69.666h-6.046c-4.174,0-7.557,3.382-7.557,7.557s3.382,7.557,7.557,7.557H96.8c4.174,0,7.557-3.382,7.557-7.557
	S100.974,69.666,96.8,69.666z"/>
<path d="M218.683,106.66c-1.551-3.876-5.947-5.759-9.824-4.211l-11.226,4.491c-3.622,1.449-5.579,5.57-4.4,9.292
	c1.308,4.13,5.983,6.354,10.014,4.742l11.227-4.491C218.348,114.932,220.233,110.535,218.683,106.66z"/>
<path d="M167.697,118.914l-11.228,4.491c-3.621,1.449-5.579,5.57-4.4,9.292c1.308,4.131,5.982,6.354,10.013,4.742l11.228-4.491
	c3.875-1.551,5.76-5.948,4.211-9.823C175.97,119.248,171.57,117.364,167.697,118.914z"/>
<path d="M126.533,135.38l-11.227,4.49c-3.622,1.449-5.579,5.571-4.4,9.292c1.308,4.131,5.982,6.354,10.013,4.742l11.227-4.49
	c3.875-1.55,5.76-5.948,4.211-9.823C134.808,135.716,130.408,133.83,126.533,135.38z"/>
<path d="M197.633,47.506l11.226,4.491c4.031,1.611,8.706-0.61,10.014-4.742c1.179-3.722-0.779-7.842-4.4-9.292l-11.227-4.491
	c-3.872-1.551-8.271,0.334-9.823,4.211C191.873,41.558,193.758,45.955,197.633,47.506z"/>
<path d="M115.307,14.575l11.227,4.49c4.03,1.612,8.706-0.611,10.013-4.742c1.179-3.721-0.779-7.843-4.4-9.292l-11.227-4.49
	c-3.872-1.548-8.273,0.335-9.823,4.211C109.546,8.628,111.432,13.026,115.307,14.575z"/>
<path d="M156.47,31.04l11.228,4.491c4.03,1.612,8.706-0.612,10.013-4.742c1.179-3.721-0.779-7.842-4.4-9.292l-11.228-4.491
	c-3.872-1.55-8.273,0.334-9.823,4.211C150.709,25.093,152.595,29.49,156.47,31.04z"/>
<path d="M356.76,109.97h-0.504V44.98c0-3.811-2.837-7.026-6.619-7.499l-64.486-8.061c-4.445-0.549-8.495,3.019-8.495,7.499v73.051
	h-0.504c-39.724,0-72.043,32.319-72.043,72.043v322.431c0,4.174,3.382,7.557,7.557,7.557h209.58c4.174,0,7.557-3.382,7.557-7.557
	V266.986c0-4.174-3.382-7.557-7.557-7.557c-4.174,0-7.557,3.383-7.557,7.557v181.536H219.223V205.691h194.466v24.351
	c0,4.174,3.382,7.557,7.557,7.557c4.174,0,7.557-3.382,7.557-7.557v-48.029C428.803,142.288,396.484,109.97,356.76,109.97z
	 M291.77,45.479l49.372,6.172v58.319H291.77V45.479z M413.689,463.636v33.251H219.223v-33.251H413.689z M219.223,190.577v-8.565
	c0-31.391,25.539-56.929,56.929-56.929h80.608c31.391,0,56.929,25.539,56.929,56.929v8.565H219.223z"/>
<circle cx="316.456" cy="77.223" r="7.557"/>
<path d="M372.881,343.732c2.004,0,3.926-0.796,5.344-2.213l16.122-16.122c2.951-2.952,2.951-7.736,0-10.688
	c-2.952-2.95-7.736-2.95-10.688,0l-13.908,13.909h-5.885c-0.83-7.06-2.805-13.789-5.735-19.864l17.141-5.713
	c1.901-0.634,3.472-1.997,4.369-3.79l8.061-16.122c1.867-3.733,0.354-8.272-3.379-10.139c-3.734-1.869-8.273-0.354-10.139,3.379
	l-6.661,13.322l-18.052,6.017c-3.089-3.459-6.589-6.448-10.427-8.854c0.707-2.244,1.091-4.631,1.091-7.106
	c0-13.056-10.622-23.678-23.679-23.678c-13.056,0-23.678,10.622-23.678,23.678c0,2.475,0.383,4.862,1.091,7.106
	c-3.838,2.405-7.336,5.395-10.426,8.854l-18.052-6.017l-6.661-13.322c-1.865-3.732-6.403-5.244-10.139-3.379
	c-3.732,1.867-5.246,6.405-3.379,10.139l8.061,16.122c0.897,1.792,2.468,3.156,4.369,3.79l17.142,5.714
	c-2.93,6.076-4.906,12.805-5.736,19.864h-5.885l-13.908-13.909c-2.952-2.95-7.736-2.95-10.688,0c-2.951,2.952-2.951,7.736,0,10.688
	l16.122,16.122c1.418,1.417,3.339,2.213,5.344,2.213h9.014c0.705,6.071,2.242,11.835,4.481,17.129h-5.434
	c-2.004,0-3.926,0.796-5.344,2.213l-16.122,16.122c-2.751,2.752-2.934,7.296-0.401,10.254c2.825,3.301,8.015,3.505,11.09,0.434
	l13.908-13.909h11.656c8.646,9.96,20.507,16.122,33.579,16.122c13.073,0,24.933-6.161,33.579-16.122h11.656l13.908,13.909
	c3.074,3.072,8.263,2.868,11.09-0.434c2.532-2.958,2.35-7.503-0.401-10.254l-16.122-16.122c-1.418-1.417-3.339-2.213-5.344-2.213
	h-5.434c2.239-5.294,3.775-11.058,4.481-17.129h9.011V343.732z M316.456,271.185c4.723,0,8.565,3.842,8.565,8.565
	s-3.842,8.565-8.565,8.565c-4.723,0-8.565-3.842-8.565-8.565S311.734,271.185,316.456,271.185z M316.456,376.983
	c-18.057,0-32.747-18.306-32.747-40.808c0-16.023,7.565-30.463,19.115-37.083c3.858,2.727,8.559,4.336,13.632,4.336
	c5.073,0,9.774-1.609,13.632-4.336c11.55,6.62,19.115,21.056,19.115,37.083C349.203,358.677,334.513,376.983,316.456,376.983z"/>
<g>
</g>
<g>
</g>
<g>
</g>
<g>
</g>
<g>
</g>
<g>
</g>
<g>
</g>
<g>
</g>
<g>
</g>
<g>
</g>
<g>
</g>
<g>
</g>
<g>
</g>
<g>
</g>
<g>
</g>
</svg>
