<?xml version="1.0" encoding="iso-8859-1"?>
<!-- Generator: Adobe Illustrator 19.0.0, SVG Export Plug-In . SVG Version: 6.00 Build 0)  -->
<svg version="1.1" id="Capa_1" xmlns="http://www.w3.org/2000/svg" xmlns:xlink="http://www.w3.org/1999/xlink" x="0px" y="0px"
	 viewBox="0 0 512 512" style="enable-background:new 0 0 512 512;" xml:space="preserve">
<path style="fill:#8B8A7B;" d="M472.423,488.454H39.577v-40.078c0-13.281,10.766-24.047,24.047-24.047h384.751
	c13.281,0,24.047,10.766,24.047,24.047V488.454z"/>
<path style="fill:#7A7A69;" d="M448.376,424.329h-32.063c13.281,0,24.047,10.766,24.047,24.047v40.078h32.063v-40.078
	C472.423,435.095,461.657,424.329,448.376,424.329z"/>
<path style="fill:#F17E97;" d="M416.313,424.329H95.687V280.047c0-88.538,71.774-160.313,160.313-160.313l0,0
	c88.538,0,160.313,71.774,160.313,160.313V424.329z"/>
<path style="fill:#EE6482;" d="M256,119.734L256,119.734c-5.412,0-10.758,0.272-16.031,0.796
	c81.011,8.044,144.282,76.389,144.282,159.518V384.25c0,8.854-7.177,16.031-16.031,16.031H95.687v24.047h320.626V280.047
	C416.313,191.508,344.539,119.734,256,119.734z"/>
<g>
	<path style="fill:#FFFFFF;" d="M201.894,306.098c0-29.881,24.224-54.106,54.106-54.106s54.106,24.224,54.106,54.106
		c0,29.881-24.224,42.082-54.106,42.082S201.894,335.979,201.894,306.098z"/>
	<path style="fill:#FFFFFF;" d="M207.906,215.922c0-9.96,8.075-24.047,18.035-24.047s18.035,14.087,18.035,24.047
		s-8.075,18.035-18.035,18.035S207.906,225.882,207.906,215.922z"/>
	<path style="fill:#FFFFFF;" d="M268.023,215.922c0-9.96,8.075-24.047,18.035-24.047c9.96,0,18.035,14.087,18.035,24.047
		s-8.075,18.035-18.035,18.035C276.098,233.957,268.023,225.882,268.023,215.922z"/>
	<path style="fill:#FFFFFF;" d="M316.117,251.992c0-9.96,8.075-24.047,18.035-24.047c9.96,0,18.035,14.087,18.035,24.047
		c0,9.96-8.075,18.035-18.035,18.035C324.192,270.027,316.117,261.953,316.117,251.992z"/>
	<path style="fill:#FFFFFF;" d="M159.812,251.992c0-9.96,8.075-24.047,18.035-24.047s18.035,14.087,18.035,24.047
		c0,9.96-8.075,18.035-18.035,18.035S159.812,261.953,159.812,251.992z"/>
</g>
<path d="M448.376,416.814h-24.548v-36.07c0-4.151-3.365-7.515-7.515-7.515s-7.515,3.364-7.515,7.515v36.07H103.202V280.047
	c0-84.254,68.545-152.798,152.798-152.798s152.798,68.545,152.798,152.798v65.127c0,4.151,3.365,7.515,7.515,7.515
	s7.515-3.364,7.515-7.515v-65.127c0-92.54-75.287-167.828-167.828-167.828S88.172,187.507,88.172,280.047v136.767H63.624
	c-17.403,0-31.562,14.159-31.562,31.562v40.078c0,4.151,3.365,7.515,7.515,7.515h432.845c4.15,0,7.515-3.364,7.515-7.515v-40.078
	C479.937,430.973,465.779,416.814,448.376,416.814z M464.908,480.939H47.092v-32.564c0-9.116,7.416-16.532,16.532-16.532h384.751
	c9.116,0,16.532,7.417,16.532,16.532V480.939z"/>
<path d="M256,355.695c38.584,0,61.62-18.541,61.62-49.597c0-33.977-27.643-61.62-61.62-61.62s-61.62,27.643-61.62,61.62
	C194.38,337.154,217.416,355.695,256,355.695z M256,259.507c25.69,0,46.591,20.9,46.591,46.591
	c0,30.077-29.191,34.568-46.591,34.568s-46.591-4.491-46.591-34.568C209.409,280.407,230.31,259.507,256,259.507z"/>
<path d="M225.941,241.472c14.089,0,25.55-11.461,25.55-25.55c0-12.565-10.19-31.562-25.55-31.562s-25.55,18.997-25.55,31.562
	C200.391,230.01,211.853,241.472,225.941,241.472z M225.941,199.389c4.523,0,10.521,9.424,10.521,16.532
	c0,5.801-4.719,10.521-10.521,10.521c-5.801,0-10.521-4.719-10.521-10.521C215.421,208.814,221.418,199.389,225.941,199.389z"/>
<path d="M311.609,215.922c0-12.565-10.19-31.562-25.55-31.562s-25.55,18.997-25.55,31.562c0,14.089,11.461,25.55,25.55,25.55
	C300.147,241.472,311.609,230.01,311.609,215.922z M275.538,215.922c0-7.108,5.998-16.532,10.521-16.532
	c4.523,0,10.521,9.424,10.521,16.532c0,5.801-4.719,10.521-10.521,10.521C280.257,226.442,275.538,221.723,275.538,215.922z"/>
<path d="M359.703,251.992c0-12.565-10.19-31.562-25.55-31.562s-25.55,18.997-25.55,31.562c0,14.089,11.461,25.55,25.55,25.55
	C348.241,277.542,359.703,266.081,359.703,251.992z M323.632,251.992c0-7.108,5.998-16.532,10.521-16.532
	c4.523,0,10.521,9.424,10.521,16.532c0,5.801-4.719,10.521-10.521,10.521C328.351,262.513,323.632,257.794,323.632,251.992z"/>
<path d="M177.847,220.431c-15.36,0-25.55,18.997-25.55,31.562c0,14.089,11.461,25.55,25.55,25.55c14.089,0,25.55-11.461,25.55-25.55
	C203.397,239.428,193.207,220.431,177.847,220.431z M177.847,262.513c-5.801,0-10.521-4.719-10.521-10.521
	c0-7.108,5.998-16.532,10.521-16.532s10.521,9.424,10.521,16.532C188.368,257.794,183.649,262.513,177.847,262.513z"/>
<path d="M239.969,307.601h8.517v8.517c0,4.151,3.365,7.515,7.515,7.515c4.15,0,7.515-3.364,7.515-7.515v-8.517h8.517
	c4.15,0,7.515-3.364,7.515-7.515c0-4.151-3.365-7.515-7.515-7.515h-8.517v-8.517c0-4.151-3.365-7.515-7.515-7.515
	c-4.15,0-7.515,3.364-7.515,7.515v8.517h-8.517c-4.15,0-7.515,3.364-7.515,7.515C232.454,304.237,235.819,307.601,239.969,307.601z"
	/>
<path d="M455.952,196.727c0.959,0,1.933-0.185,2.873-0.574l29.622-12.27c3.835-1.588,5.655-5.984,4.067-9.818
	s-5.985-5.654-9.818-4.067l-29.622,12.27c-3.162,1.31-5.078,4.709-4.551,8.093C449.085,193.979,452.289,196.727,455.952,196.727z"/>
<path d="M409.034,126.512c1.923,0,3.846-0.733,5.313-2.2l22.671-22.671c2.935-2.936,2.935-7.693,0-10.628
	c-2.934-2.934-7.692-2.934-10.627,0l-22.671,22.671C399.091,118.312,402.461,126.512,409.034,126.512z"/>
<path d="M335.946,79.025c3.786,1.571,8.252-0.286,9.818-4.067l12.27-29.622c1.588-3.834-0.232-8.23-4.067-9.818
	c-3.836-1.592-8.23,0.232-9.818,4.067l-12.271,29.622C330.291,73.042,332.112,77.437,335.946,79.025z"/>
<path d="M256,63.123c4.15,0,7.515-3.364,7.515-7.515V23.546c0-4.151-3.365-7.515-7.515-7.515c-4.15,0-7.515,3.364-7.515,7.515
	v32.063C248.485,59.76,251.85,63.123,256,63.123z"/>
<path d="M166.236,74.959c1.672,4.037,6.582,5.801,10.451,3.768c3.391-1.781,4.898-5.986,3.434-9.52l-12.27-29.622
	c-1.588-3.834-5.984-5.654-9.818-4.067c-3.834,1.588-5.655,5.984-4.067,9.818L166.236,74.959z"/>
<path d="M97.653,124.311c3.056,3.055,8.217,2.851,11.027-0.432c2.519-2.942,2.337-7.461-0.4-10.197l-22.671-22.67
	c-2.935-2.934-7.693-2.934-10.627,0c-2.935,2.936-2.935,7.693,0,10.628L97.653,124.311z"/>
<path d="M23.554,183.882l29.622,12.27c4.042,1.678,8.76-0.562,10.055-4.725c1.137-3.657-0.77-7.696-4.303-9.16l-29.622-12.27
	c-3.833-1.592-8.23,0.232-9.818,4.067C17.899,177.899,19.72,182.294,23.554,183.882z"/>
<path d="M47.092,272.031c0-4.151-3.365-7.515-7.515-7.515H7.515c-4.15,0-7.515,3.364-7.515,7.515s3.365,7.515,7.515,7.515h32.063
	C43.727,279.546,47.092,276.182,47.092,272.031z"/>
<path d="M504.485,264.517h-32.063c-4.15,0-7.515,3.364-7.515,7.515s3.365,7.515,7.515,7.515h32.063c4.15,0,7.515-3.364,7.515-7.515
	S508.635,264.517,504.485,264.517z"/>
<g>
</g>
<g>
</g>
<g>
</g>
<g>
</g>
<g>
</g>
<g>
</g>
<g>
</g>
<g>
</g>
<g>
</g>
<g>
</g>
<g>
</g>
<g>
</g>
<g>
</g>
<g>
</g>
<g>
</g>
</svg>
