<?xml version="1.0" encoding="iso-8859-1"?>
<!-- Generator: Adobe Illustrator 19.0.0, SVG Export Plug-In . SVG Version: 6.00 Build 0)  -->
<svg version="1.1" id="Capa_1" xmlns="http://www.w3.org/2000/svg" xmlns:xlink="http://www.w3.org/1999/xlink" x="0px" y="0px"
	 viewBox="0 0 512 512" style="enable-background:new 0 0 512 512;" xml:space="preserve">
<rect x="79.656" y="71.64" style="fill:#A38DCE;" width="352.689" height="432.845"/>
<polygon style="fill:#8C70C2;" points="408.297,71.64 119.734,71.64 119.734,487.786 336.157,487.786 408.297,416.313 "/>
<polygon style="fill:#EEEEEC;" points="392.266,71.64 119.734,71.64 119.734,472.423 320.794,472.423 392.266,400.95 "/>
<polygon style="fill:#DEDED9;" points="320.794,472.423 392.266,400.95 320.794,400.95 "/>
<path style="fill:#8B8A7B;" d="M288.063,55.609V39.577c0-17.708-14.355-32.063-32.063-32.063l0,0
	c-17.708,0-32.063,14.355-32.063,32.063v16.031h-32.063v40.078h128.25V55.609H288.063z"/>
<rect x="191.875" y="79.656" style="fill:#7A7A69;" width="128.25" height="16.031"/>
<path style="fill:#F498AC;" d="M201.894,253.996c0-29.881,24.224-54.106,54.106-54.106s54.106,24.224,54.106,54.106
	S285.881,296.078,256,296.078S201.894,283.877,201.894,253.996z"/>
<g>
	<path style="fill:#F17E97;" d="M207.906,163.82c0-9.96,8.075-24.047,18.035-24.047s18.035,14.087,18.035,24.047
		s-8.075,18.035-18.035,18.035S207.906,173.78,207.906,163.82z"/>
	<path style="fill:#F17E97;" d="M268.023,163.82c0-9.96,8.075-24.047,18.035-24.047c9.96,0,18.035,14.087,18.035,24.047
		s-8.075,18.035-18.035,18.035C276.098,181.855,268.023,173.78,268.023,163.82z"/>
	<path style="fill:#F17E97;" d="M316.117,199.89c0-9.96,8.075-24.047,18.035-24.047c9.96,0,18.035,14.087,18.035,24.047
		s-8.075,18.035-18.035,18.035C324.192,217.926,316.117,209.851,316.117,199.89z"/>
	<path style="fill:#F17E97;" d="M159.812,199.89c0-9.96,8.075-24.047,18.035-24.047s18.035,14.087,18.035,24.047
		s-8.075,18.035-18.035,18.035S159.812,209.851,159.812,199.89z"/>
</g>
<path d="M432.344,263.515c4.151,0,7.515-3.364,7.515-7.515V71.64c0-4.151-3.364-7.515-7.515-7.515H327.64v-8.517
	c0-4.151-3.364-7.515-7.515-7.515h-24.548v-8.517C295.577,17.755,277.823,0,256,0s-39.577,17.755-39.577,39.577v8.517h-24.548
	c-4.151,0-7.515,3.364-7.515,7.515v8.517H79.656c-4.151,0-7.515,3.364-7.515,7.515v432.845c0,4.151,3.364,7.515,7.515,7.515h352.689
	c4.151,0,7.515-3.364,7.515-7.515V291.569c0-4.151-3.364-7.515-7.515-7.515s-7.515,3.364-7.515,7.515v205.401H87.17V79.155h25.049
	v393.268c0,4.151,3.364,7.515,7.515,7.515h201.059c1.974,0,3.918-0.805,5.314-2.2l71.474-71.474c1.396-1.396,2.2-3.34,2.2-5.314
	V79.155h25.049V256C424.83,260.151,428.193,263.515,432.344,263.515z M199.389,63.123h24.548c4.151,0,7.515-3.364,7.515-7.515
	V39.577c0-13.536,11.012-24.548,24.548-24.548s24.548,11.012,24.548,24.548v16.031c0,4.151,3.364,7.515,7.515,7.515h24.548v25.049
	H199.389V63.123z M328.307,454.281v-45.817h45.817L328.307,454.281z M384.751,393.434h-63.959c-4.151,0-7.515,3.364-7.515,7.515
	v63.959H127.249V79.155h57.112v16.532c0,4.151,3.364,7.515,7.515,7.515h128.25c4.151,0,7.515-3.364,7.515-7.515V79.155h57.112
	V393.434z"/>
<circle cx="256" cy="40.078" r="7.515"/>
<path d="M320.125,328.642h-128.25c-4.151,0-7.515,3.364-7.515,7.515s3.364,7.515,7.515,7.515h128.25
	c4.151,0,7.515-3.364,7.515-7.515S324.276,328.642,320.125,328.642z"/>
<path d="M320.125,360.704h-128.25c-4.151,0-7.515,3.364-7.515,7.515s3.364,7.515,7.515,7.515h128.25
	c4.151,0,7.515-3.364,7.515-7.515S324.276,360.704,320.125,360.704z"/>
<path d="M256,392.767h-64.125c-4.151,0-7.515,3.364-7.515,7.515s3.364,7.515,7.515,7.515H256c4.151,0,7.515-3.364,7.515-7.515
	S260.151,392.767,256,392.767z"/>
<path d="M194.38,253.996c0,31.056,23.035,49.597,61.62,49.597s61.62-18.541,61.62-49.597c0-33.977-27.643-61.62-61.62-61.62
	S194.38,220.019,194.38,253.996z M256,207.405c25.691,0,46.591,20.9,46.591,46.591c0,30.077-29.191,34.568-46.591,34.568
	s-46.591-4.491-46.591-34.568C209.409,228.305,230.309,207.405,256,207.405z"/>
<path d="M225.941,189.37c14.089,0,25.55-11.461,25.55-25.55c0-12.565-10.191-31.562-25.55-31.562s-25.55,18.997-25.55,31.562
	C200.391,177.908,211.853,189.37,225.941,189.37z M225.941,147.288c4.523,0,10.521,9.424,10.521,16.532
	c0,5.801-4.719,10.521-10.521,10.521c-5.801,0-10.521-4.719-10.521-10.521C215.421,156.712,221.418,147.288,225.941,147.288z"/>
<path d="M286.059,189.37c14.089,0,25.55-11.461,25.55-25.55c0-12.565-10.191-31.562-25.55-31.562s-25.55,18.997-25.55,31.562
	C260.509,177.908,271.97,189.37,286.059,189.37z M286.059,147.288c4.523,0,10.521,9.424,10.521,16.532
	c0,5.801-4.719,10.521-10.521,10.521c-5.801,0-10.521-4.719-10.521-10.521C275.538,156.712,281.536,147.288,286.059,147.288z"/>
<path d="M308.603,199.89c0,14.089,11.461,25.55,25.55,25.55c14.089,0,25.55-11.461,25.55-25.55c0-12.565-10.191-31.562-25.55-31.562
	S308.603,187.326,308.603,199.89z M344.673,199.89c0,5.801-4.719,10.521-10.521,10.521c-5.801,0-10.521-4.719-10.521-10.521
	c0-7.108,5.998-16.532,10.521-16.532C338.675,183.358,344.673,192.783,344.673,199.89z"/>
<path d="M203.397,199.89c0-12.565-10.191-31.562-25.55-31.562s-25.55,18.997-25.55,31.562c0,14.089,11.461,25.55,25.55,25.55
	C191.936,225.44,203.397,213.979,203.397,199.89z M177.847,210.411c-5.801,0-10.521-4.719-10.521-10.521
	c0-7.108,5.998-16.532,10.521-16.532s10.521,9.424,10.521,16.532C188.368,205.692,183.649,210.411,177.847,210.411z"/>
<path d="M239.969,255.499h8.517v8.517c0,4.151,3.364,7.515,7.515,7.515c4.151,0,7.515-3.364,7.515-7.515v-8.517h8.517
	c4.151,0,7.515-3.364,7.515-7.515s-3.364-7.515-7.515-7.515h-8.517v-8.517c0-4.151-3.364-7.515-7.515-7.515
	c-4.151,0-7.515,3.364-7.515,7.515v8.517h-8.517c-4.151,0-7.515,3.364-7.515,7.515S235.818,255.499,239.969,255.499z"/>
<g>
</g>
<g>
</g>
<g>
</g>
<g>
</g>
<g>
</g>
<g>
</g>
<g>
</g>
<g>
</g>
<g>
</g>
<g>
</g>
<g>
</g>
<g>
</g>
<g>
</g>
<g>
</g>
<g>
</g>
</svg>
