<?xml version="1.0" encoding="iso-8859-1"?>
<!-- Generator: Adobe Illustrator 19.0.0, SVG Export Plug-In . SVG Version: 6.00 Build 0)  -->
<svg version="1.1" id="Capa_1" xmlns="http://www.w3.org/2000/svg" xmlns:xlink="http://www.w3.org/1999/xlink" x="0px" y="0px"
	 viewBox="0 0 511.999 511.999" style="enable-background:new 0 0 511.999 511.999;" xml:space="preserve">
<path style="fill:#FDC572;" d="M79.64,183.875c0-97.401,78.959-176.36,176.36-176.36s176.36,78.959,176.36,176.36
	S256,504.53,256,504.53S79.64,281.276,79.64,183.875z"/>
<path style="fill:#FCB74F;" d="M256,7.515c-5.406,0-10.751,0.257-16.033,0.732c89.885,8.102,160.327,83.632,160.327,175.627
	c0,79.287-116.861,241.966-160.327,299.732C249.897,496.804,256,504.53,256,504.53s176.36-223.254,176.36-320.654
	S353.401,7.515,256,7.515z"/>
<circle style="fill:#DEDED9;" cx="256.002" cy="183.875" r="136.278"/>
<circle style="fill:#F7F7F6;" cx="256.002" cy="183.875" r="115.907"/>
<g>
	<path style="fill:#75E0F1;" d="M201.889,213.937c0-29.884,24.226-54.11,54.11-54.11s54.11,24.226,54.11,54.11
		s-24.226,42.086-54.11,42.086S201.889,243.821,201.889,213.937z"/>
	<path style="fill:#75E0F1;" d="M207.902,123.753c0-9.961,8.076-24.049,18.037-24.049c9.961,0,18.037,14.088,18.037,24.049
		s-8.075,18.037-18.037,18.037C215.976,141.789,207.902,133.714,207.902,123.753z"/>
	<path style="fill:#75E0F1;" d="M268.024,123.753c0-9.961,8.075-24.049,18.037-24.049c9.961,0,18.037,14.088,18.037,24.049
		s-8.075,18.037-18.037,18.037C276.1,141.789,268.024,133.714,268.024,123.753z"/>
	<path style="fill:#75E0F1;" d="M316.122,159.826c0-9.961,8.075-24.049,18.037-24.049c9.961,0,18.037,14.088,18.037,24.049
		c0,9.961-8.075,18.037-18.037,18.037C324.198,177.863,316.122,169.788,316.122,159.826z"/>
	<path style="fill:#75E0F1;" d="M159.803,159.826c0-9.961,8.075-24.049,18.037-24.049c9.961,0,18.037,14.088,18.037,24.049
		c0,9.961-8.075,18.037-18.037,18.037C167.878,177.863,159.803,169.788,159.803,159.826z"/>
</g>
<path d="M256,0C154.611,0,72.124,82.485,72.124,183.875c0,41.869,30.075,109.476,89.39,200.941
	c43.774,67.502,88.145,123.811,88.588,124.372c2.962,3.748,8.832,3.749,11.794,0c0.443-0.562,44.814-56.87,88.589-124.372
	c59.314-91.465,89.389-159.072,89.389-200.941C439.875,82.485,357.389,0,256,0z M255.999,492.261
	C225.485,452.513,87.154,267.67,87.154,183.875c0-93.101,75.744-168.845,168.845-168.845s168.845,75.744,168.845,168.845
	C424.844,267.65,286.513,452.509,255.999,492.261z"/>
<path d="M362.334,87.077c-2.797-3.069-7.548-3.292-10.617-0.496c-3.069,2.795-3.291,7.548-0.496,10.617
	c21.629,23.747,33.541,54.53,33.541,86.678c0,71-57.763,128.763-128.763,128.763s-128.763-57.763-128.763-128.763
	S185,55.112,256,55.112c24.191,0,47.763,6.744,68.166,19.503c3.519,2.199,8.157,1.132,10.357-2.388s1.131-8.157-2.388-10.357
	C309.339,47.617,283.012,40.082,256,40.082c-79.288,0-143.793,64.506-143.793,143.793S176.712,327.669,256,327.669
	s143.793-64.506,143.793-143.793C399.793,147.975,386.489,113.598,362.334,87.077z"/>
<path d="M256,263.538c38.589,0,61.626-18.543,61.626-49.601c0-33.98-27.645-61.626-61.626-61.626s-61.626,27.645-61.626,61.626
	C194.374,244.995,217.411,263.538,256,263.538z M256,167.342c25.693,0,46.595,20.902,46.595,46.595
	c0,30.079-29.194,34.571-46.595,34.571s-46.595-4.491-46.595-34.571C209.405,188.243,230.306,167.342,256,167.342z"/>
<path d="M225.938,149.305c14.09,0,25.552-11.462,25.552-25.552c0-12.566-10.191-31.564-25.552-31.564s-25.552,18.999-25.552,31.564
	C200.386,137.842,211.849,149.305,225.938,149.305z M225.938,107.219c4.523,0,10.521,9.425,10.521,16.534
	c0,5.802-4.72,10.521-10.521,10.521s-10.521-4.72-10.521-10.521C215.417,116.644,221.414,107.219,225.938,107.219z"/>
<path d="M311.613,123.753c0-12.566-10.192-31.564-25.552-31.564c-15.36,0-25.552,18.999-25.552,31.564
	c0,14.09,11.462,25.552,25.552,25.552C300.151,149.305,311.613,137.842,311.613,123.753z M275.54,123.753
	c0-7.109,5.998-16.534,10.521-16.534c4.523,0,10.521,9.425,10.521,16.534c0,5.802-4.72,10.521-10.521,10.521
	S275.54,129.554,275.54,123.753z"/>
<path d="M359.711,159.826c0-12.566-10.192-31.564-25.552-31.564c-15.36,0-25.552,18.999-25.552,31.564
	c0,14.09,11.462,25.552,25.552,25.552C348.249,185.378,359.711,173.916,359.711,159.826z M323.638,159.826
	c0-7.109,5.998-16.534,10.521-16.534c4.523,0,10.521,9.425,10.521,16.534c0,5.802-4.72,10.521-10.521,10.521
	S323.638,165.628,323.638,159.826z"/>
<path d="M177.84,128.262c-15.361,0-25.552,18.999-25.552,31.564c0,14.09,11.462,25.552,25.552,25.552
	c14.09,0,25.552-11.462,25.552-25.552C203.392,147.261,193.201,128.262,177.84,128.262z M177.84,170.348
	c-5.802,0-10.521-4.72-10.521-10.521c0-7.109,5.998-16.534,10.521-16.534s10.521,9.425,10.521,16.534
	C188.362,165.628,183.641,170.348,177.84,170.348z"/>
<path d="M239.967,215.44h8.517v8.517c0,4.151,3.365,7.515,7.515,7.515c4.151,0,7.515-3.364,7.515-7.515v-8.517h8.517
	c4.151,0,7.515-3.364,7.515-7.515s-3.364-7.515-7.515-7.515h-8.517v-8.517c0-4.151-3.364-7.515-7.515-7.515
	c-4.15,0-7.515,3.364-7.515,7.515v8.517h-8.517c-4.15,0-7.515,3.364-7.515,7.515S235.816,215.44,239.967,215.44z"/>
<g>
</g>
<g>
</g>
<g>
</g>
<g>
</g>
<g>
</g>
<g>
</g>
<g>
</g>
<g>
</g>
<g>
</g>
<g>
</g>
<g>
</g>
<g>
</g>
<g>
</g>
<g>
</g>
<g>
</g>
</svg>
