<?xml version="1.0" encoding="iso-8859-1"?>
<!-- Generator: Adobe Illustrator 19.0.0, SVG Export Plug-In . SVG Version: 6.00 Build 0)  -->
<svg version="1.1" id="Capa_1" xmlns="http://www.w3.org/2000/svg" xmlns:xlink="http://www.w3.org/1999/xlink" x="0px" y="0px"
	 viewBox="0 0 512.001 512.001" style="enable-background:new 0 0 512.001 512.001;" xml:space="preserve">
<path style="fill:#F17E97;" d="M63.756,176.21c6.85,30.95,28.077,107.351,96.261,175.533s144.583,89.41,175.533,96.261
	c-18.874,15.1-37.749,30.2-56.624,45.299c-28.483-5.611-103.575-24.303-169.872-90.598c-20.527-20.527-72.476-77.883-90.598-169.872
	C33.557,213.959,48.656,195.085,63.756,176.21z"/>
<path style="fill:#F6B1C0;" d="M11.698,218.603c12.934,37.644,53.934,57.675,91.577,44.742L56.44,127.026
	C18.796,139.96-1.235,180.96,11.698,218.603z"/>
<g>
	<path style="fill:#F498AC;" d="M11.698,203.186c-1.339-3.897-2.305-7.83-2.954-11.763c-1.901,11.423-1.073,23.468,2.954,35.188
		c12.934,37.644,53.934,57.675,91.577,44.742l-7.329-21.333C60.452,258.194,23.796,238.399,11.698,203.186z"/>
	
		<rect x="22.938" y="173.976" transform="matrix(0.3249 0.9457 -0.9457 0.3249 243.8192 38.4102)" style="fill:#F498AC;" width="144.134" height="32.03"/>
</g>
<polygon style="fill:#F17E97;" points="96.144,242.586 103.277,263.345 133.569,252.937 126.275,231.705 "/>
<path style="fill:#F6B1C0;" d="M293.157,500.061c-37.644-12.934-57.675-53.934-44.742-91.577l136.319,46.837
	C371.801,492.964,330.8,512.995,293.157,500.061z"/>
<g>
	<path style="fill:#F498AC;" d="M364.315,456.313c-15.938,31.734-53.258,47.6-87.773,35.742c-6.429-2.209-12.331-5.253-17.656-8.944
		c8.365,11.192,20.061,20.078,34.27,24.959c37.644,12.934,78.644-7.098,91.577-44.742L364.315,456.313z"/>
	
		<rect x="249.719" y="400.72" transform="matrix(-0.9457 -0.3249 0.3249 -0.9457 490.7101 915.412)" style="fill:#F498AC;" width="144.134" height="32.03"/>
</g>
<polygon style="fill:#F17E97;" points="395.143,425.027 374.83,418.048 362.993,447.85 384.735,455.32 "/>
<path style="fill:#AED45B;" d="M199.956,151.648c0-79.607,68.12-144.141,152.149-144.141s152.149,64.534,152.149,144.141
	s-68.12,144.141-152.149,144.141c-12.269,0-24.195-1.385-35.623-3.983l-68.479,44.022l21.119-63.356
	C227.484,246.753,199.956,202.25,199.956,151.648z"/>
<path style="fill:#9AC932;" d="M449.853,41.197c19.074,24.081,30.377,54.003,30.377,86.427c0,79.607-68.12,144.141-152.149,144.141
	c-37.184,0-71.247-12.643-97.675-33.632c10.683,13.468,23.785,25.116,38.716,34.339l-21.119,63.356l68.479-44.022
	c11.428,2.598,23.354,3.983,35.623,3.983c84.029,0,152.149-64.534,152.149-144.141C504.253,107.301,483.107,67.638,449.853,41.197z"
	/>
<g>
	<path style="fill:#FFFFFF;" d="M298.052,197.693c0-29.852,24.201-54.053,54.053-54.053c29.852,0,54.053,24.201,54.053,54.053
		s-24.201,42.041-54.053,42.041C322.252,239.734,298.052,227.545,298.052,197.693z"/>
	<path style="fill:#FFFFFF;" d="M304.058,107.605c0-9.951,8.067-24.023,18.018-24.023c9.951,0,18.018,14.073,18.018,24.023
		s-8.067,18.018-18.018,18.018C312.125,125.623,304.058,117.556,304.058,107.605z"/>
	<path style="fill:#FFFFFF;" d="M364.117,107.605c0-9.951,8.067-24.023,18.018-24.023c9.951,0,18.018,14.073,18.018,24.023
		s-8.067,18.018-18.018,18.018C372.183,125.623,364.117,117.556,364.117,107.605z"/>
	<path style="fill:#FFFFFF;" d="M412.163,143.64c0-9.951,8.067-24.023,18.018-24.023c9.951,0,18.018,14.073,18.018,24.023
		s-8.067,18.018-18.018,18.018C420.23,161.658,412.163,153.591,412.163,143.64z"/>
	<path style="fill:#FFFFFF;" d="M256.011,143.64c0-9.951,8.067-24.023,18.018-24.023s18.018,14.073,18.018,24.023
		s-8.067,18.018-18.018,18.018S256.011,153.591,256.011,143.64z"/>
</g>
<path d="M397.582,417.928l-136.319-46.837c-3.871-1.331-8.213,0.799-9.539,4.661l-9.81,28.551
	c-28.136-15.712-53.879-35.158-76.589-57.867c-22.698-22.7-42.15-48.464-57.857-76.593l28.542-9.806
	c3.863-1.327,5.99-5.669,4.661-9.538L93.834,114.179c-1.348-3.923-5.617-6.01-9.539-4.661l-30.293,10.407
	c-20.103,6.906-36.312,21.229-45.644,40.326c-9.331,19.099-10.665,40.688-3.759,60.789c1.811,5.272,4.145,10.267,6.928,14.95
	c0.02,0.373,0.058,0.748,0.136,1.125c17.78,86.354,65.326,144.138,92.085,170.897c62.398,62.399,133.99,84.506,171.112,92.129
	c0.331,0.068,0.662,0.105,0.99,0.128c4.621,2.751,9.585,5.075,14.869,6.89c8.535,2.933,17.232,4.324,25.79,4.324
	c33.049,0,64-20.762,75.326-53.722c0-0.001,0.001-0.002,0.002-0.004l10.407-30.293C403.59,423.546,401.503,419.274,397.582,417.928z
	 M263.484,387.731l122.119,41.958l-5.528,16.093l-122.119-41.958L263.484,387.731z M82.072,126.157l41.958,122.119l-16.093,5.528
	L65.979,131.686L82.072,126.157z M21.848,166.844c6.461-13.224,16.986-23.626,30.07-29.873l41.679,121.307
	c-14.161,3.114-28.858,1.378-42.081-5.083c-15.495-7.57-27.114-20.721-32.718-37.031v-0.001
	C13.195,199.854,14.278,182.338,21.848,166.844z M32.647,259.245c3.829,2.81,7.923,5.313,12.279,7.441
	c11.046,5.397,22.923,8.118,34.866,8.118c4.305,0,8.619-0.356,12.907-1.067c0.154,0.564,0.367,1.118,0.662,1.652
	c16.552,30.031,37.192,57.507,61.348,81.664c24.607,24.606,52.63,45.525,83.311,62.234c-3.454,21.446,2.14,42.927,14.515,59.78
	c-37.561-11.095-90.648-34.147-138.171-81.671C91.488,374.521,52.73,327.897,32.647,259.245z M295.597,492.961
	c-31.268-10.742-49.006-43.248-42.11-74.798l121.298,41.677C360.834,488.966,326.864,503.703,295.597,492.961z"/>
<path d="M461.195,40.919c-3.099-2.756-7.844-2.477-10.598,0.622c-2.755,3.099-2.476,7.844,0.623,10.598
	c29.359,26.104,45.526,61.445,45.526,99.509c0,75.341-64.885,136.633-144.641,136.633c-11.451,0-22.877-1.276-33.959-3.796
	c-1.965-0.447-4.028-0.085-5.724,1.006l-50.561,32.503l14.383-43.147c1.101-3.304-0.214-6.932-3.177-8.762
	c-41.079-25.374-65.604-68.154-65.604-114.437c0-75.341,64.885-136.633,144.641-136.633c23.968,0,47.71,5.652,68.655,16.342
	c3.691,1.884,8.215,0.419,10.1-3.273c1.885-3.693,0.419-8.215-3.274-10.1C404.536,6.219,378.436,0,352.105,0
	C264.07,0,192.449,68.029,192.449,151.648c0,49.605,25.195,95.528,67.707,123.981l-19.275,57.824
	c-0.928,2.786-0.108,5.942,2.062,7.92c2.486,2.266,6.289,2.59,9.12,0.769l65.863-42.34c11.195,2.319,22.676,3.493,34.178,3.493
	c88.035,0,159.656-68.029,159.656-151.648C511.761,109.851,493.331,69.492,461.195,40.919z"/>
<path d="M352.105,247.241c38.547,0,61.56-18.523,61.56-49.548c0-33.944-27.616-61.56-61.56-61.56s-61.56,27.616-61.56,61.56
	C290.545,228.718,313.557,247.241,352.105,247.241z M352.105,151.148c25.665,0,46.545,20.879,46.545,46.545
	c0,30.047-29.162,34.534-46.545,34.534c-17.383,0-46.545-4.486-46.545-34.534C305.559,172.027,326.44,151.148,352.105,151.148z"/>
<path d="M322.075,133.13c14.075,0,25.525-11.45,25.525-25.525c0-12.552-10.18-31.531-25.525-31.531
	c-15.345,0-25.525,18.979-25.525,31.531C296.551,121.68,308.001,133.13,322.075,133.13z M322.075,91.089
	c4.518,0,10.51,9.415,10.51,16.516c0,5.796-4.715,10.51-10.51,10.51c-5.796,0-10.51-4.715-10.51-10.51
	C311.565,100.504,317.557,91.089,322.075,91.089z"/>
<path d="M407.659,107.605c0-12.552-10.18-31.531-25.525-31.531s-25.525,18.979-25.525,31.531c0,14.075,11.45,25.525,25.525,25.525
	C396.209,133.13,407.659,121.68,407.659,107.605z M371.624,107.605c0-7.101,5.992-16.516,10.51-16.516
	c4.518,0,10.51,9.415,10.51,16.516c0,5.796-4.715,10.51-10.51,10.51C376.338,118.115,371.624,113.401,371.624,107.605z"/>
<path d="M455.706,143.64c0-12.552-10.18-31.531-25.525-31.531s-25.525,18.979-25.525,31.531c0,14.075,11.45,25.525,25.525,25.525
	C444.256,169.165,455.706,157.715,455.706,143.64z M419.671,143.64c0-7.101,5.992-16.516,10.51-16.516
	c4.518,0,10.51,9.415,10.51,16.516c0,5.796-4.715,10.51-10.51,10.51C424.385,154.151,419.671,149.436,419.671,143.64z"/>
<path d="M274.029,112.109c-15.345,0-25.525,18.979-25.525,31.531c0,14.075,11.45,25.525,25.525,25.525s25.525-11.45,25.525-25.525
	C299.553,131.088,289.373,112.109,274.029,112.109z M274.029,154.151c-5.796,0-10.51-4.715-10.51-10.51
	c0-7.101,5.992-16.516,10.51-16.516s10.51,9.415,10.51,16.516C284.539,149.436,279.823,154.151,274.029,154.151z"/>
<path d="M336.089,199.195h8.508v8.508c0,4.147,3.361,7.507,7.507,7.507c4.146,0,7.507-3.36,7.507-7.507v-8.508h8.508
	c4.146,0,7.507-3.36,7.507-7.507s-3.361-7.507-7.507-7.507h-8.508v-8.508c0-4.147-3.361-7.507-7.507-7.507
	c-4.146,0-7.507,3.36-7.507,7.507v8.508h-8.508c-4.146,0-7.507,3.36-7.507,7.507S331.943,199.195,336.089,199.195z"/>
<g>
</g>
<g>
</g>
<g>
</g>
<g>
</g>
<g>
</g>
<g>
</g>
<g>
</g>
<g>
</g>
<g>
</g>
<g>
</g>
<g>
</g>
<g>
</g>
<g>
</g>
<g>
</g>
<g>
</g>
</svg>
