<?xml version="1.0" encoding="iso-8859-1"?>
<!-- Generator: Adobe Illustrator 19.0.0, SVG Export Plug-In . SVG Version: 6.00 Build 0)  -->
<svg version="1.1" id="Capa_1" xmlns="http://www.w3.org/2000/svg" xmlns:xlink="http://www.w3.org/1999/xlink" x="0px" y="0px"
	 viewBox="0 0 512 512" style="enable-background:new 0 0 512 512;" xml:space="preserve">
<rect x="55.609" y="7.515" style="fill:#AED45B;" width="176.344" height="160.313"/>
<rect x="207.906" y="7.515" style="fill:#9AC932;" width="24.047" height="160.313"/>
<polygon style="fill:#FFFFFF;" points="191.875,71.64 159.812,71.64 159.812,39.577 127.75,39.577 127.75,71.64 95.687,71.64 
	95.687,103.703 127.75,103.703 127.75,135.765 159.812,135.765 159.812,103.703 191.875,103.703 "/>
<rect x="95.687" y="296.078" style="fill:#FDC572;" width="320.626" height="208.407"/>
<rect x="95.687" y="296.078" style="fill:#FCB74F;" width="320.626" height="24.047"/>
<polygon style="fill:#EEEEEC;" points="480.439,296.078 31.562,296.078 256,111.718 "/>
<path style="fill:#8B8A7B;" d="M328.141,504.485H183.859v-96.188c0-39.842,32.298-72.141,72.141-72.141l0,0
	c39.842,0,72.141,32.298,72.141,72.141V504.485z"/>
<path style="fill:#BDBCB4;" d="M235.961,235.961c0-11.068,8.972-20.039,20.039-20.039c11.068,0,20.039,8.972,20.039,20.039
	s-8.972,12.023-20.039,12.023C244.933,247.984,235.961,247.028,235.961,235.961z"/>
<rect x="215.922" y="416.313" style="fill:#EEEEEC;" width="80.157" height="40.078"/>
<path d="M120.235,111.217v24.548c0,4.151,3.365,7.515,7.515,7.515h32.063c4.15,0,7.515-3.364,7.515-7.515v-24.548h24.548
	c4.15,0,7.515-3.364,7.515-7.515V71.64c0-4.151-3.365-7.515-7.515-7.515h-24.548V39.577c0-4.151-3.365-7.515-7.515-7.515H127.75
	c-4.15,0-7.515,3.364-7.515,7.515v24.548H95.687c-4.15,0-7.515,3.364-7.515,7.515v32.063c0,4.151,3.365,7.515,7.515,7.515H120.235z
	 M103.202,79.155h24.548c4.15,0,7.515-3.364,7.515-7.515V47.092h17.033V71.64c0,4.151,3.365,7.515,7.515,7.515h24.548v17.033
	h-24.548c-4.15,0-7.515,3.364-7.515,7.515v24.548h-17.033v-24.548c0-4.151-3.365-7.515-7.515-7.515h-24.548V79.155z"/>
<path d="M485.209,290.271l-224.438-184.36c-2.773-2.275-6.767-2.275-9.54,0l-11.763,9.662V7.515c0-4.151-3.365-7.515-7.515-7.515
	H55.609c-4.15,0-7.515,3.364-7.515,7.515v160.313c0,4.151,3.365,7.515,7.515,7.515h32.564v64.509l-61.381,50.419
	c-2.466,2.026-3.387,5.492-2.253,8.475c1.096,2.886,3.937,4.847,7.024,4.847h56.611v200.892c0,4.151,3.365,7.515,7.515,7.515
	h320.626c4.15,0,7.515-3.364,7.515-7.515V303.593h56.611c3.088,0,5.928-1.961,7.024-4.847
	C488.595,295.764,487.675,292.297,485.209,290.271z M63.124,15.029h161.315v112.888l-39.464,32.417
	c-0.148-0.009-0.296-0.022-0.447-0.022H63.124V15.029z M103.202,175.342h63.503l-63.503,52.164V175.342z M320.626,496.971H191.374
	v-88.673c0-35.635,28.992-64.626,64.626-64.626s64.626,28.992,64.626,64.626V496.971z M367.718,288.564
	c-4.15,0-7.515,3.364-7.515,7.515s3.365,7.515,7.515,7.515h41.08v193.378h-73.143v-88.673c0-43.923-35.734-79.656-79.656-79.656
	s-79.656,35.733-79.656,79.656v88.673h-73.143V303.593H332.65c4.15,0,7.515-3.364,7.515-7.515s-3.365-7.515-7.515-7.515H52.549
	L256,121.443l203.451,167.12H367.718z"/>
<path d="M256,208.407c-15.194,0-27.554,12.361-27.554,27.554c0,19.538,19.309,19.538,27.554,19.538c8.245,0,27.554,0,27.554-19.538
	C283.554,220.768,271.194,208.407,256,208.407z M256,240.47c-12.524,0-12.524-1.602-12.524-4.509
	c0-6.906,5.618-12.524,12.524-12.524s12.524,5.618,12.524,12.524C268.525,238.868,268.525,240.47,256,240.47z"/>
<circle cx="296.579" cy="207.405" r="7.515"/>
<circle cx="272.533" cy="191.374" r="7.515"/>
<circle cx="215.421" cy="207.405" r="7.515"/>
<circle cx="239.468" cy="191.374" r="7.515"/>
<path d="M296.078,408.798h-12.274l-21.793-29.057c-2.957-3.943-9.067-3.943-12.023,0l-21.793,29.057h-12.274
	c-4.15,0-7.515,3.364-7.515,7.515v40.078c0,4.151,3.365,7.515,7.515,7.515h80.157c4.15,0,7.515-3.364,7.515-7.515v-40.078
	C303.593,412.162,300.229,408.798,296.078,408.798z M256,396.775l9.018,12.023h-18.035L256,396.775z M288.564,448.877h-65.127
	v-25.049h65.127V448.877z"/>
<g>
</g>
<g>
</g>
<g>
</g>
<g>
</g>
<g>
</g>
<g>
</g>
<g>
</g>
<g>
</g>
<g>
</g>
<g>
</g>
<g>
</g>
<g>
</g>
<g>
</g>
<g>
</g>
<g>
</g>
</svg>
