<?xml version="1.0" encoding="iso-8859-1"?>
<!-- Generator: Adobe Illustrator 19.0.0, SVG Export Plug-In . SVG Version: 6.00 Build 0)  -->
<svg version="1.1" id="Capa_1" xmlns="http://www.w3.org/2000/svg" xmlns:xlink="http://www.w3.org/1999/xlink" x="0px" y="0px"
	 viewBox="0 0 511.998 511.998" style="enable-background:new 0 0 511.998 511.998;" xml:space="preserve">
<ellipse style="fill:#9C9B8E;" cx="127.753" cy="456.385" rx="40.08" ry="48.095"/>
<circle style="fill:#8B8A7B;" cx="127.753" cy="400.274" r="16.032"/>
<path style="fill:#EEEEEC;" d="M341.667,76.891L160.288,258.27l-22.672,45.345l-17.005,17.005c-6.26,6.26-6.26,16.412,0,22.672l0,0
	c6.26,6.26,16.412,6.26,22.672,0l17.005-17.005l45.345-22.672l181.379-181.379L341.667,76.891z"/>
<path style="fill:#DEDED9;" d="M371.353,106.577L130.066,347.864c4.705,0.553,9.607-0.962,13.217-4.572l17.004-17.004l45.345-22.672
	l181.379-181.379L371.353,106.577z"/>
<path style="fill:#FDC572;" d="M160.288,258.27l-22.672,45.345l-17.004,17.004c-6.261,6.261-6.261,16.412,0,22.672l0,0
	c6.26,6.261,16.412,6.261,22.672,0l17.004-17.004l45.345-22.672l80.188-80.188h-90.69L160.288,258.27z"/>
<path style="fill:#FCB74F;" d="M130.066,347.864c4.705,0.553,9.607-0.962,13.217-4.572l17.004-17.004l45.345-22.672l80.188-80.188
	h-31.316L130.066,347.864z"/>
<rect x="298.357" y="65.352" transform="matrix(-0.7071 -0.7071 0.7071 -0.7071 585.7847 413.4237)" style="fill:#AED45B;" width="160.317" height="40.079"/>
<rect x="412.726" y="112.727" transform="matrix(-0.7071 -0.7071 0.7071 -0.7071 633.1463 527.7904)" style="fill:#9AC932;" width="26.312" height="40.079"/>
<path style="fill:#AED45B;" d="M409.684,88.226l-34.008-34.008l39.677-39.677c9.392-9.392,24.618-9.392,34.008,0l0,0
	c9.392,9.392,9.392,24.618,0,34.008L409.684,88.226z"/>
<path style="fill:#9AC932;" d="M449.362,14.541L449.362,14.541c-2.729-2.729-5.959-4.64-9.388-5.783
	c2.38,8.157,0.358,17.327-6.075,23.76l-17.997,17.997c-3.13,3.13-8.206,3.13-11.336,0l-12.593-12.593l-16.297,16.297l34.008,34.008
	l39.677-39.677C458.752,39.159,458.752,23.933,449.362,14.541z"/>
<path d="M194.581,435.043l-13.83,13.831h-5.845c-0.817-7.034-2.76-13.728-5.664-19.769l16.998-5.666
	c1.891-0.63,3.453-1.986,4.345-3.768l8.016-16.032c1.857-3.712,0.352-8.226-3.361-10.083c-3.714-1.858-8.227-0.353-10.083,3.361
	l-6.624,13.248l-17.912,5.971c-3.074-3.431-6.562-6.404-10.405-8.801c0.701-2.228,1.081-4.599,1.081-7.056
	c0-12.984-10.563-23.547-23.547-23.547s-23.547,10.563-23.547,23.547c0,2.456,0.38,4.826,1.08,7.053
	c-3.84,2.398-7.324,5.375-10.398,8.806l-17.918-5.973l-6.624-13.248c-1.856-3.711-6.368-5.214-10.083-3.361
	c-3.711,1.857-5.216,6.37-3.361,10.083l8.016,16.032c0.892,1.782,2.454,3.138,4.345,3.768l17.006,5.668
	c-2.907,6.043-4.854,12.737-5.671,19.766H74.75l-13.826-13.83c-2.936-2.934-7.693-2.934-10.628,0c-2.935,2.936-2.935,7.693,0,10.628
	l16.032,16.032c1.41,1.409,3.321,2.2,5.315,2.2h8.964c0.701,6.037,2.229,11.769,4.456,17.034h-5.405c-1.993,0-3.904,0.792-5.315,2.2
	l-16.032,16.032c-2.735,2.736-2.918,7.255-0.399,10.197c2.81,3.283,7.971,3.486,11.028,0.432l13.83-13.831h11.591
	c8.598,9.905,20.392,16.032,33.392,16.032s24.794-6.127,33.392-16.032h11.591l13.83,13.831c3.057,3.055,8.217,2.852,11.028-0.432
	c2.518-2.942,2.337-7.461-0.399-10.197l-16.032-16.032c-1.41-1.409-3.321-2.2-5.315-2.2h-5.404
	c2.226-5.264,3.754-10.997,4.456-17.034h8.964c1.993,0,3.904-0.792,5.315-2.2l16.032-16.032c2.935-2.936,2.935-7.693,0-10.628
	C202.274,432.109,197.517,432.109,194.581,435.043z M127.753,391.761c4.696,0,8.517,3.821,8.517,8.517
	c0,4.696-3.821,8.517-8.517,8.517s-8.517-3.821-8.517-8.517C119.236,395.581,123.056,391.761,127.753,391.761z M127.753,496.969
	c-17.957,0-32.565-18.204-32.565-40.581c0-15.94,7.433-30.219,19.028-36.862c3.833,2.703,8.501,4.298,13.537,4.298
	s9.704-1.594,13.536-4.298c11.601,6.64,19.029,20.9,19.029,36.862C160.317,478.765,145.709,496.969,127.753,496.969z"/>
<path d="M420.313,88.227l34.362-34.363c12.304-12.305,12.304-32.33-0.001-44.637c-12.305-12.303-32.329-12.303-44.637,0
	L375.676,43.59L341.313,9.227c-2.936-2.934-7.693-2.934-10.628,0l-28.34,28.34c-2.935,2.936-2.935,7.693,0,10.628L331.04,76.89
	l-37.722,37.722c-2.895,2.896-2.896,7.733,0,10.628c2.895,2.895,7.733,2.894,10.628,0l37.722-37.723l34.717,34.717l-93.676,93.676
	h-69.434l63.074-63.073c2.895-2.896,2.896-7.733,0-10.628c-2.895-2.895-7.733-2.894-10.628,0L154.974,252.956
	c-0.57,0.571-1.046,1.231-1.407,1.953l-22.127,44.255l-16.142,16.141c-9.076,9.076-9.076,24.225,0,33.3
	c9.076,9.076,24.225,9.076,33.3,0l16.141-16.142l44.255-22.127c0.722-0.361,1.382-0.837,1.953-1.407l176.065-176.065l28.695,28.695
	c2.896,2.895,7.732,2.895,10.628,0l28.34-28.34c2.935-2.936,2.935-7.693,0-10.628L420.313,88.227z M201.181,297.438l-44.255,22.127
	c-0.722,0.361-1.382,0.837-1.953,1.407l-17.005,17.005c-3.277,3.279-8.766,3.277-12.044,0c-3.277-3.279-3.279-8.765,0-12.044
	l17.005-17.005c0.57-0.571,1.046-1.231,1.407-1.953l22.127-44.255l31.78-31.78h69.435L201.181,297.438z M420.666,19.856
	c6.449-6.445,16.937-6.446,23.381-0.001c6.446,6.447,6.446,16.936,0,23.381l-34.362,34.363l-23.381-23.381L420.666,19.856z
	 M421.021,145.617L318.286,42.881l17.713-17.713l102.735,102.735L421.021,145.617z"/>
<g>
</g>
<g>
</g>
<g>
</g>
<g>
</g>
<g>
</g>
<g>
</g>
<g>
</g>
<g>
</g>
<g>
</g>
<g>
</g>
<g>
</g>
<g>
</g>
<g>
</g>
<g>
</g>
<g>
</g>
</svg>
