<?xml version="1.0" encoding="iso-8859-1"?>
<!-- Generator: Adobe Illustrator 19.0.0, SVG Export Plug-In . SVG Version: 6.00 Build 0)  -->
<svg version="1.1" id="Capa_1" xmlns="http://www.w3.org/2000/svg" xmlns:xlink="http://www.w3.org/1999/xlink" x="0px" y="0px"
	 viewBox="0 0 512 512" style="enable-background:new 0 0 512 512;" xml:space="preserve">
<path style="fill:#75E0F1;" d="M504.485,320.134c0-79.685-68.186-144.282-152.297-144.282S199.89,240.45,199.89,320.134
	s68.186,144.282,152.297,144.282c12.281,0,24.218-1.387,35.658-3.987l68.546,44.065l-21.139-63.418
	C476.93,415.332,504.485,370.784,504.485,320.134z"/>
<path style="fill:#3DC9D9;" d="M504.485,320.134c0-33.405-11.988-64.155-32.105-88.61c10.279,19.427,16.073,41.352,16.073,64.563
	c0,79.685-68.186,144.282-152.297,144.282c-48.85,0-92.324-21.793-120.194-55.672c25.01,47.268,76.613,79.719,136.225,79.719
	c12.281,0,24.218-1.387,35.658-3.987l68.546,44.065l-21.139-63.418C476.93,415.332,504.485,370.784,504.485,320.134z"/>
<g>
	<path style="fill:#FFFFFF;" d="M298.082,370.232c0-29.881,24.224-54.106,54.106-54.106s54.106,24.224,54.106,54.106
		c0,29.881-24.224,42.082-54.106,42.082S298.082,400.113,298.082,370.232z"/>
	<path style="fill:#FFFFFF;" d="M304.094,280.056c0-9.96,8.075-24.047,18.035-24.047c9.96,0,18.035,14.086,18.035,24.047
		c0,9.96-8.075,18.035-18.035,18.035C312.169,298.091,304.094,290.016,304.094,280.056z"/>
	<path style="fill:#FFFFFF;" d="M364.211,280.056c0-9.96,8.075-24.047,18.035-24.047c9.96,0,18.035,14.086,18.035,24.047
		c0,9.96-8.075,18.035-18.035,18.035C372.286,298.091,364.211,290.016,364.211,280.056z"/>
	<path style="fill:#FFFFFF;" d="M412.305,316.126c0-9.96,8.075-24.047,18.035-24.047c9.96,0,18.035,14.087,18.035,24.047
		s-8.075,18.035-18.035,18.035C420.38,334.162,412.305,326.087,412.305,316.126z"/>
	<path style="fill:#FFFFFF;" d="M256,316.126c0-9.96,8.075-24.047,18.035-24.047c9.96,0,18.035,14.087,18.035,24.047
		s-8.075,18.035-18.035,18.035C264.075,334.162,256,326.087,256,316.126z"/>
</g>
<path style="fill:#AED45B;" d="M7.515,151.805c0-79.685,68.186-144.282,152.297-144.282S312.11,72.121,312.11,151.805
	s-68.186,144.282-152.297,144.282c-12.281,0-24.218-1.387-35.658-3.987l-68.546,44.065l21.139-63.418
	C35.069,247.003,7.515,202.455,7.515,151.805z"/>
<path style="fill:#9AC932;" d="M257.656,41.247c19.092,24.104,30.406,54.056,30.406,86.512c0,79.685-68.186,144.282-152.297,144.282
	c-37.221,0-71.316-12.656-97.771-33.665c10.694,13.481,23.809,25.14,38.754,34.371l-21.139,63.419l68.546-44.065
	c11.439,2.6,23.377,3.987,35.658,3.987c84.111,0,152.297-64.597,152.297-144.282C312.11,107.415,290.942,67.713,257.656,41.247z"/>
<polygon style="fill:#FFFFFF;" points="231.953,127.758 183.859,127.758 183.859,79.665 135.765,79.665 135.765,127.758 
	87.671,127.758 87.671,175.852 135.765,175.852 135.765,223.946 183.859,223.946 183.859,175.852 231.953,175.852 "/>
<path d="M512,320.134c0-83.701-71.692-151.796-159.812-151.796c-11.459,0-22.842,1.173-33.95,3.455
	c0.91-6.543,1.387-13.213,1.387-19.987c0-42.44-18.899-83.236-51.851-111.926c-3.13-2.725-7.878-2.398-10.602,0.732
	c-2.725,3.13-2.398,7.876,0.732,10.602c29.672,25.834,46.691,62.499,46.691,100.591c0,75.414-64.949,136.767-144.783,136.767
	c-11.462,0-22.9-1.277-33.993-3.799c-1.968-0.448-4.032-0.085-5.729,1.007l-50.611,32.536l14.397-43.19
	c1.102-3.307-0.214-6.939-3.18-8.77c-41.117-25.4-65.666-68.221-65.666-114.55c0-75.414,64.949-136.767,144.783-136.767
	c24.164,0,48.078,5.734,69.156,16.581c3.687,1.896,8.221,0.448,10.121-3.243c1.9-3.69,0.447-8.221-3.243-10.121
	C212.649,6.318,186.358,0.009,159.812,0.009C71.692,0.009,0,68.105,0,151.805c0,49.654,25.219,95.622,67.773,124.103l-19.294,57.88
	c-0.93,2.788-0.108,5.948,2.064,7.927c2.489,2.268,6.294,2.592,9.128,0.77l65.928-42.382c11.206,2.322,22.698,3.497,34.213,3.497
	c11.648,0,23.005-1.2,33.951-3.46c-0.915,6.609-1.388,13.3-1.388,19.992c0,83.701,71.692,151.796,159.812,151.796
	c11.514,0,23.007-1.175,34.212-3.497l65.929,42.382c2.834,1.823,6.64,1.498,9.129-0.77c2.173-1.981,2.994-5.139,2.064-7.927
	l-19.294-57.881C486.781,415.754,512,369.787,512,320.134z M431.303,434.683c-2.966,1.832-4.281,5.463-3.18,8.77l14.397,43.19
	l-50.612-32.536c-1.697-1.091-3.761-1.454-5.729-1.007c-11.092,2.522-22.528,3.799-33.992,3.799
	c-79.834,0-144.783-61.353-144.783-136.767c0-8.098,0.763-16.195,2.25-24.101c51.973-16.246,92.247-57.172,105.386-108.112
	c12.06-3.015,24.55-4.553,37.146-4.553c79.834,0,144.783,61.353,144.783,136.767C496.971,366.462,472.422,409.283,431.303,434.683z"
	/>
<path d="M352.188,308.612c-33.977,0-61.62,27.643-61.62,61.62c0,31.056,23.035,49.597,61.62,49.597s61.62-18.541,61.62-49.597
	C413.808,336.255,386.165,308.612,352.188,308.612z M352.188,404.8c-17.4,0-46.591-4.491-46.591-34.568
	c0-25.691,20.9-46.591,46.591-46.591s46.591,20.9,46.591,46.591C398.779,400.308,369.588,404.8,352.188,404.8z"/>
<path d="M322.129,305.606c14.089,0,25.55-11.461,25.55-25.55c0-12.565-10.191-31.562-25.55-31.562s-25.55,18.997-25.55,31.562
	C296.579,294.143,308.041,305.606,322.129,305.606z M322.129,263.524c4.523,0,10.521,9.424,10.521,16.532
	c0,5.801-4.719,10.521-10.521,10.521s-10.521-4.719-10.521-10.521C311.609,272.948,317.606,263.524,322.129,263.524z"/>
<path d="M382.247,305.606c14.089,0,25.55-11.461,25.55-25.55c0-12.565-10.191-31.562-25.55-31.562s-25.55,18.997-25.55,31.562
	C356.697,294.143,368.158,305.606,382.247,305.606z M382.247,263.524c4.523,0,10.521,9.424,10.521,16.532
	c0,5.801-4.719,10.521-10.521,10.521c-5.801,0-10.521-4.719-10.521-10.521C371.726,272.948,377.724,263.524,382.247,263.524z"/>
<path d="M430.341,284.565c-15.359,0-25.55,18.997-25.55,31.562c0,14.089,11.461,25.55,25.55,25.55
	c14.089,0,25.55-11.461,25.55-25.55C455.89,303.562,445.7,284.565,430.341,284.565z M430.341,326.647
	c-5.801,0-10.521-4.719-10.521-10.521c0-7.108,5.998-16.532,10.521-16.532c4.523,0,10.521,9.424,10.521,16.532
	C440.861,321.928,436.142,326.647,430.341,326.647z"/>
<path d="M299.585,316.126c0-12.565-10.191-31.562-25.55-31.562s-25.55,18.997-25.55,31.562c0,14.089,11.461,25.55,25.55,25.55
	C288.124,341.676,299.585,330.214,299.585,316.126z M274.035,326.647c-5.801,0-10.521-4.719-10.521-10.521
	c0-7.108,5.998-16.532,10.521-16.532c4.523,0,10.521,9.424,10.521,16.532C284.556,321.928,279.837,326.647,274.035,326.647z"/>
<path d="M135.765,231.461h48.094c4.151,0,7.515-3.364,7.515-7.515v-40.579h40.579c4.151,0,7.515-3.364,7.515-7.515v-48.094
	c0-4.151-3.364-7.515-7.515-7.515h-40.579V79.665c0-4.151-3.364-7.515-7.515-7.515h-48.094c-4.151,0-7.515,3.364-7.515,7.515v40.579
	H87.671c-4.151,0-7.515,3.364-7.515,7.515v48.094c0,4.151,3.364,7.515,7.515,7.515h40.579v40.579
	C128.25,228.096,131.614,231.461,135.765,231.461z M95.186,168.338v-33.065h40.579c4.151,0,7.515-3.364,7.515-7.515V87.179h33.065
	v40.579c0,4.151,3.364,7.515,7.515,7.515h40.579v33.065h-40.579c-4.151,0-7.515,3.364-7.515,7.515v40.579H143.28v-40.579
	c0-4.151-3.364-7.515-7.515-7.515H95.186z"/>
<g>
</g>
<g>
</g>
<g>
</g>
<g>
</g>
<g>
</g>
<g>
</g>
<g>
</g>
<g>
</g>
<g>
</g>
<g>
</g>
<g>
</g>
<g>
</g>
<g>
</g>
<g>
</g>
<g>
</g>
</svg>
