<?xml version="1.0" encoding="iso-8859-1"?>
<!-- Generator: Adobe Illustrator 19.0.0, SVG Export Plug-In . SVG Version: 6.00 Build 0)  -->
<svg version="1.1" id="Capa_1" xmlns="http://www.w3.org/2000/svg" xmlns:xlink="http://www.w3.org/1999/xlink" x="0px" y="0px"
	 viewBox="0 0 512 512" style="enable-background:new 0 0 512 512;" xml:space="preserve">
<rect x="207.906" y="7.515" style="fill:#AED45B;" width="96.188" height="120.235"/>
<rect x="280.047" y="7.515" style="fill:#9AC932;" width="24.047" height="120.235"/>
<rect x="207.906" y="7.515" style="fill:#AED45B;" width="96.188" height="32.063"/>
<rect x="280.047" y="7.515" style="fill:#9AC932;" width="24.047" height="32.063"/>
<path style="fill:#7EBF3D;" d="M256,63.624c13.281,0,24.047-10.766,24.047-24.047h-48.094C231.953,52.858,242.719,63.624,256,63.624
	z"/>
<path style="fill:#EEEEEC;" d="M384.25,504.485H127.75V225.594c0-26.156,12.762-50.667,34.19-65.667l45.967-32.177h96.188
	l45.967,32.177c21.428,14.999,34.19,39.51,34.19,65.667V504.485z"/>
<path style="fill:#DEDED9;" d="M350.061,159.926l-45.967-32.177h-32.063l45.967,32.177c21.428,14.999,34.19,39.511,34.19,65.667
	v278.892h32.063V225.594C384.25,199.437,371.489,174.926,350.061,159.926z"/>
<rect x="127.75" y="239.969" style="fill:#A38DCE;" width="256.501" height="216.423"/>
<rect x="352.188" y="239.969" style="fill:#8C70C2;" width="32.063" height="216.423"/>
<ellipse style="fill:#AED45B;" cx="256" cy="360.204" rx="40.078" ry="48.094"/>
<circle style="fill:#9AC932;" cx="256" cy="304.094" r="16.031"/>
<path d="M354.37,153.77l-42.762-29.933V7.515c0-4.151-3.364-7.515-7.515-7.515h-96.188c-4.15,0-7.515,3.364-7.515,7.515v116.322
	L157.63,153.77c-23.416,16.39-37.395,43.239-37.395,71.822v278.893c0,4.151,3.365,7.515,7.515,7.515H384.25
	c4.151,0,7.515-3.364,7.515-7.515V225.593C391.765,197.011,377.786,170.16,354.37,153.77z M215.421,47.092h9.928
	C228.73,60.878,241.186,71.139,256,71.139s27.269-10.261,30.651-24.047h9.928v73.143h-81.159V47.092z M241.276,47.092h29.448
	c-2.741,5.349-8.312,9.018-14.724,9.018C249.588,56.11,244.018,52.441,241.276,47.092z M215.421,15.029h81.159v17.033h-81.159
	V15.029z M135.264,496.971v-33.065h241.472v33.065H135.264z M376.736,232.454h-24.548c-4.151,0-7.515,3.364-7.515,7.515
	s3.364,7.515,7.515,7.515h24.548v201.393H135.264V247.483h181.354c4.151,0,7.515-3.364,7.515-7.515s-3.364-7.515-7.515-7.515
	H135.264v-6.861c0-23.683,11.584-45.93,30.985-59.51l44.027-30.818h91.45l44.026,30.819c19.401,13.581,30.984,35.827,30.984,59.509
	V232.454z"/>
<path d="M322.827,338.858l-13.829,13.831h-5.844c-0.817-7.034-2.76-13.728-5.664-19.769l16.997-5.666
	c1.891-0.63,3.453-1.986,4.344-3.768l8.016-16.031c1.857-3.712,0.352-8.226-3.361-10.083c-3.713-1.859-8.227-0.352-10.083,3.361
	l-6.624,13.248l-17.911,5.971c-3.074-3.431-6.562-6.404-10.404-8.801c0.701-2.228,1.081-4.599,1.081-7.056
	c0-12.983-10.563-23.546-23.546-23.546s-23.545,10.563-23.545,23.546c0,2.456,0.38,4.825,1.08,7.053
	c-3.839,2.398-7.323,5.375-10.397,8.806l-17.917-5.973l-6.624-13.248c-1.856-3.712-6.369-5.215-10.082-3.361
	c-3.712,1.857-5.217,6.369-3.361,10.083l8.016,16.031c0.891,1.781,2.454,3.138,4.344,3.768l17.005,5.668
	c-2.907,6.043-4.853,12.737-5.671,19.767h-5.845l-13.83-13.831c-2.935-2.934-7.693-2.934-10.627,0
	c-2.935,2.936-2.935,7.693,0,10.628l16.031,16.031c1.409,1.409,3.32,2.2,5.313,2.2h8.964c0.701,6.037,2.229,11.769,4.456,17.033
	h-5.404c-1.993,0-3.905,0.792-5.313,2.2l-16.031,16.031c-2.736,2.736-2.918,7.255-0.4,10.197c2.809,3.281,7.971,3.487,11.027,0.432
	l13.83-13.83h11.591c8.598,9.904,20.392,16.031,33.391,16.031s24.793-6.127,33.391-16.031h11.591l13.83,13.831
	c3.057,3.055,8.218,2.852,11.028-0.432c2.518-2.942,2.337-7.461-0.399-10.197l-16.031-16.031c-1.41-1.409-3.32-2.2-5.314-2.2h-5.404
	c2.226-5.264,3.754-10.996,4.456-17.033h8.964c1.993,0,3.904-0.792,5.314-2.2l16.031-16.031c2.935-2.936,2.935-7.693,0-10.628
	C330.52,335.925,325.762,335.925,322.827,338.858z M256,295.577c4.696,0,8.517,3.82,8.517,8.517c0,4.696-3.82,8.517-8.517,8.517
	s-8.517-3.82-8.517-8.517C247.483,299.398,251.304,295.577,256,295.577z M256,400.783c-17.955,0-32.564-18.204-32.564-40.579
	c0-15.939,7.433-30.218,19.027-36.861c3.832,2.703,8.501,4.297,13.536,4.297c5.036,0,9.703-1.594,13.535-4.297
	c11.601,6.64,19.028,20.9,19.028,36.861C288.564,382.579,273.956,400.783,256,400.783z"/>
<path d="M440.36,120.235c-17.403,0-31.562,14.159-31.562,31.562s14.159,31.562,31.562,31.562s31.562-14.159,31.562-31.562
	S457.763,120.235,440.36,120.235z M440.36,168.329c-9.116,0-16.532-7.416-16.532-16.532s7.417-16.532,16.532-16.532
	s16.532,7.416,16.532,16.532S449.476,168.329,440.36,168.329z"/>
<path d="M143.781,63.123c17.403,0,31.562-14.159,31.562-31.562S161.184,0,143.781,0s-31.562,14.159-31.562,31.562
	S126.378,63.123,143.781,63.123z M143.781,15.029c9.116,0,16.532,7.416,16.532,16.532s-7.416,16.532-16.532,16.532
	s-16.532-7.416-16.532-16.532S134.665,15.029,143.781,15.029z"/>
<path d="M376.235,63.123c4.151,0,7.515-3.364,7.515-7.515V39.577c0-4.151-3.364-7.515-7.515-7.515s-7.515,3.364-7.515,7.515v16.031
	C368.72,59.76,372.084,63.123,376.235,63.123z"/>
<path d="M376.235,111.217c4.151,0,7.515-3.364,7.515-7.515V87.671c0-4.151-3.364-7.515-7.515-7.515s-7.515,3.364-7.515,7.515v16.031
	C368.72,107.854,372.084,111.217,376.235,111.217z"/>
<path d="M415.812,71.64c0-4.151-3.364-7.515-7.515-7.515h-16.031c-4.151,0-7.515,3.364-7.515,7.515c0,4.151,3.364,7.515,7.515,7.515
	h16.031C412.449,79.155,415.812,75.791,415.812,71.64z"/>
<path d="M344.172,79.155h16.031c4.151,0,7.515-3.364,7.515-7.515c0-4.151-3.364-7.515-7.515-7.515h-16.031
	c-4.151,0-7.515,3.364-7.515,7.515C336.658,75.791,340.021,79.155,344.172,79.155z"/>
<path d="M79.656,104.204c-4.15,0-7.515,3.364-7.515,7.515v16.031c0,4.151,3.365,7.515,7.515,7.515c4.15,0,7.515-3.364,7.515-7.515
	v-16.031C87.17,107.567,83.806,104.204,79.656,104.204z"/>
<path d="M79.656,152.297c-4.15,0-7.515,3.364-7.515,7.515v16.031c0,4.151,3.365,7.515,7.515,7.515c4.15,0,7.515-3.364,7.515-7.515
	v-16.031C87.17,155.661,83.806,152.297,79.656,152.297z"/>
<path d="M111.718,136.266H95.687c-4.15,0-7.515,3.364-7.515,7.515s3.365,7.515,7.515,7.515h16.031c4.15,0,7.515-3.364,7.515-7.515
	S115.868,136.266,111.718,136.266z"/>
<path d="M63.624,136.266H47.593c-4.15,0-7.515,3.364-7.515,7.515s3.365,7.515,7.515,7.515h16.031c4.15,0,7.515-3.364,7.515-7.515
	S67.774,136.266,63.624,136.266z"/>
<g>
</g>
<g>
</g>
<g>
</g>
<g>
</g>
<g>
</g>
<g>
</g>
<g>
</g>
<g>
</g>
<g>
</g>
<g>
</g>
<g>
</g>
<g>
</g>
<g>
</g>
<g>
</g>
<g>
</g>
</svg>
