<?xml version="1.0" encoding="iso-8859-1"?>
<!-- Generator: Adobe Illustrator 19.0.0, SVG Export Plug-In . SVG Version: 6.00 Build 0)  -->
<svg version="1.1" id="Capa_1" xmlns="http://www.w3.org/2000/svg" xmlns:xlink="http://www.w3.org/1999/xlink" x="0px" y="0px"
	 viewBox="0 0 512 512" style="enable-background:new 0 0 512 512;" xml:space="preserve">
<rect x="7.515" y="63.624" style="fill:#A38DCE;" width="496.971" height="384.751"/>
<rect x="47.593" y="103.703" style="fill:#EEEEEC;" width="416.814" height="304.595"/>
<polygon style="fill:#DEDED9;" points="71.64,384.25 71.64,103.703 47.593,103.703 47.593,408.297 464.407,408.297 464.407,384.25 
	"/>
<polygon style="fill:#AED45B;" points="371.184,368.219 347.137,344.172 323.09,368.219 323.09,288.063 371.184,288.063 "/>
<polygon style="fill:#F17E97;" points="347.137,140.212 366.91,151.628 389.74,151.628 401.156,171.4 420.929,182.816 
	420.929,205.648 432.344,225.419 420.929,245.192 420.929,268.023 401.156,279.439 389.74,299.211 366.91,299.211 347.137,310.628 
	327.364,299.211 304.533,299.211 293.117,279.439 273.345,268.023 273.345,245.192 261.93,225.419 273.345,205.648 273.345,182.816 
	293.117,171.4 304.533,151.628 327.364,151.628 "/>
<circle style="fill:#FDC572;" cx="347.138" cy="225.42" r="48.094"/>
<path d="M504.485,56.11H7.515C3.365,56.11,0,59.473,0,63.624v384.751c0,4.151,3.365,7.515,7.515,7.515h496.971
	c4.15,0,7.515-3.364,7.515-7.515V63.624C512,59.473,508.635,56.11,504.485,56.11z M496.971,440.861H15.029V71.139h481.941V440.861z"
	/>
<path d="M47.593,415.812h416.814c4.15,0,7.515-3.364,7.515-7.515V103.703c0-4.151-3.365-7.515-7.515-7.515h-88.506
	c-4.15,0-7.515,3.364-7.515,7.515c0,4.151,3.365,7.515,7.515,7.515h80.991v289.566H55.108V111.217h285.057
	c4.15,0,7.515-3.364,7.515-7.515c0-4.151-3.365-7.515-7.515-7.515H47.593c-4.15,0-7.515,3.364-7.515,7.515v304.595
	C40.078,412.449,43.443,415.812,47.593,415.812z"/>
<path d="M424.685,176.308l-18.029-10.409l-10.408-18.028c-1.343-2.325-3.822-3.757-6.508-3.757h-20.818l-18.029-10.409
	c-2.325-1.343-5.19-1.343-7.515,0l-18.029,10.409h-20.818c-2.685,0-5.165,1.433-6.508,3.757l-10.409,18.028l-18.029,10.409
	c-2.325,1.343-3.757,3.822-3.757,6.508v20.817l-10.409,18.029c-1.343,2.325-1.343,5.19,0,7.515l10.409,18.028v20.819
	c0,2.685,1.433,5.165,3.757,6.508l18.029,10.409l10.409,18.028c1.343,2.325,3.822,3.757,6.508,3.757h11.043v61.493
	c0,6.548,8.192,9.953,12.828,5.314l18.734-18.734l18.734,18.734c4.64,4.64,12.828,1.223,12.828-5.314v-61.493h11.043
	c2.685,0,5.165-1.433,6.508-3.757l10.408-18.028l18.029-10.409c2.325-1.343,3.757-3.822,3.757-6.508v-20.818l10.409-18.028
	c1.343-2.325,1.343-5.19,0-7.515l-10.409-18.029v-20.817C428.443,180.131,427.011,177.651,424.685,176.308z M352.45,338.858
	c-2.935-2.934-7.693-2.934-10.627,0l-11.219,11.219v-40.318l12.775,7.375c2.303,1.33,5.212,1.33,7.515,0l12.775-7.375v40.318
	L352.45,338.858z M414.42,241.435c-0.659,1.142-1.007,2.439-1.007,3.757v18.493l-16.015,9.247c-1.142,0.659-2.091,1.607-2.75,2.75
	l-9.246,16.014h-18.493c-1.319,0-2.615,0.348-3.757,1.007l-16.015,9.247l-16.015-9.247c-1.142-0.659-2.439-1.007-3.757-1.007H308.87
	l-9.247-16.014c-0.659-1.143-1.608-2.091-2.75-2.75l-16.015-9.247v-18.493c0-1.319-0.348-2.615-1.007-3.757l-9.247-16.014
	l9.247-16.015c0.659-1.143,1.007-2.439,1.007-3.757v-18.492l16.015-9.247c1.142-0.659,2.091-1.607,2.75-2.75l9.247-16.014h18.493
	c1.319,0,2.615-0.348,3.757-1.007l16.015-9.247l16.015,9.247c1.142,0.659,2.439,1.007,3.757,1.007h18.493l9.246,16.014
	c0.659,1.143,1.608,2.091,2.75,2.75l16.015,9.247v18.492c0,1.319,0.348,2.614,1.007,3.757l9.247,16.015L414.42,241.435z"/>
<path d="M347.137,169.811c-30.663,0-55.609,24.946-55.609,55.609s24.946,55.609,55.609,55.609s55.609-24.946,55.609-55.609
	S377.8,169.811,347.137,169.811z M347.137,265.999c-22.376,0-40.579-18.204-40.579-40.579s18.204-40.579,40.579-40.579
	s40.579,18.204,40.579,40.579S369.513,265.999,347.137,265.999z"/>
<path d="M350.013,200.964c-2.806-1.164-6.04-0.521-8.189,1.628l-16.031,16.031c-2.935,2.936-2.935,7.693,0,10.628
	c2.935,2.934,7.693,2.934,10.627,0l3.203-3.203v21.937c0,4.151,3.365,7.515,7.515,7.515c4.15,0,7.515-3.364,7.515-7.515v-40.078
	C354.652,204.867,352.821,202.126,350.013,200.964z"/>
<path d="M223.937,192.376H79.656c-4.15,0-7.515,3.364-7.515,7.515s3.365,7.515,7.515,7.515h144.282c4.15,0,7.515-3.364,7.515-7.515
	S228.087,192.376,223.937,192.376z"/>
<path d="M79.656,263.515h40.078c4.15,0,7.515-3.364,7.515-7.515c0-4.151-3.365-7.515-7.515-7.515H79.656
	c-4.15,0-7.515,3.364-7.515,7.515C72.141,260.151,75.505,263.515,79.656,263.515z"/>
<path d="M223.937,248.485h-64.125c-4.15,0-7.515,3.364-7.515,7.515c0,4.151,3.365,7.515,7.515,7.515h64.125
	c4.15,0,7.515-3.364,7.515-7.515C231.452,251.849,228.087,248.485,223.937,248.485z"/>
<path d="M79.656,319.624h72.141c4.15,0,7.515-3.364,7.515-7.515s-3.365-7.515-7.515-7.515H79.656c-4.15,0-7.515,3.364-7.515,7.515
	S75.505,319.624,79.656,319.624z"/>
<path d="M223.937,304.595h-32.063c-4.15,0-7.515,3.364-7.515,7.515s3.365,7.515,7.515,7.515h32.063c4.15,0,7.515-3.364,7.515-7.515
	S228.087,304.595,223.937,304.595z"/>
<g>
</g>
<g>
</g>
<g>
</g>
<g>
</g>
<g>
</g>
<g>
</g>
<g>
</g>
<g>
</g>
<g>
</g>
<g>
</g>
<g>
</g>
<g>
</g>
<g>
</g>
<g>
</g>
<g>
</g>
</svg>
