<?xml version="1.0" encoding="iso-8859-1"?>
<!-- Generator: Adobe Illustrator 19.0.0, SVG Export Plug-In . SVG Version: 6.00 Build 0)  -->
<svg version="1.1" id="Capa_1" xmlns="http://www.w3.org/2000/svg" xmlns:xlink="http://www.w3.org/1999/xlink" x="0px" y="0px"
	 viewBox="0 0 511.999 511.999" style="enable-background:new 0 0 511.999 511.999;" xml:space="preserve">
<path style="fill:#BDBCB4;" d="M484.961,467.956L288.566,271.561c-4.695-4.696-12.31-4.696-17.005,0
	c-4.696,4.696-4.696,12.309,0,17.005l196.395,196.395c2.348,2.348,5.425,3.522,8.502,3.522s6.155-1.173,8.502-3.522
	C489.656,480.265,489.656,472.652,484.961,467.956z"/>
<polygon style="fill:#FEF1DC;" points="360.225,328.16 328.161,360.225 468.727,504.515 504.515,468.727 "/>
<polygon style="fill:#FEE2B9;" points="340.852,347.532 328.161,360.225 468.727,504.515 483.282,489.961 "/>
<polygon style="fill:#FDC572;" points="504.515,468.727 393.047,360.136 360.135,393.047 468.727,504.515 "/>
<polygon style="fill:#FCB74F;" points="373.251,379.931 360.135,393.047 468.727,504.515 483.282,489.961 "/>
<circle style="fill:#8B8A7B;" cx="167.837" cy="167.838" r="160.323"/>
<circle style="fill:#DEDED9;" cx="167.837" cy="167.838" r="128.258"/>
<circle style="fill:#EEEEEC;" cx="167.837" cy="167.838" r="104.21"/>
<g>
	<path style="fill:#AED45B;" d="M113.729,205.914c0-29.883,24.226-54.109,54.109-54.109s54.109,24.226,54.109,54.109
		s-24.226,42.085-54.109,42.085S113.729,235.797,113.729,205.914z"/>
	<path style="fill:#AED45B;" d="M119.741,115.733c0-9.961,8.075-24.048,18.036-24.048s18.036,14.087,18.036,24.048
		s-8.075,18.036-18.036,18.036S119.741,125.694,119.741,115.733z"/>
	<path style="fill:#AED45B;" d="M179.862,115.733c0-9.961,8.075-24.048,18.036-24.048c9.961,0,18.036,14.087,18.036,24.048
		s-8.075,18.036-18.036,18.036C187.938,133.769,179.862,125.694,179.862,115.733z"/>
	<path style="fill:#AED45B;" d="M227.959,151.805c0-9.961,8.075-24.048,18.036-24.048c9.961,0,18.036,14.087,18.036,24.048
		c0,9.961-8.075,18.036-18.036,18.036C236.034,169.842,227.959,161.766,227.959,151.805z"/>
	<path style="fill:#AED45B;" d="M71.645,151.805c0-9.961,8.075-24.048,18.036-24.048s18.036,14.087,18.036,24.048
		c0,9.961-8.075,18.036-18.036,18.036S71.645,161.766,71.645,151.805z"/>
</g>
<path d="M509.759,463.344l-144.29-140.567c-2.945-2.87-7.65-2.839-10.558,0.069l-2.215,2.215l-53.221-53.222
	c22.656-28.615,36.202-64.755,36.202-104.002C335.676,75.291,260.383,0,167.838,0S0,75.291,0,167.838
	s75.291,167.838,167.838,167.838c39.248,0,75.389-13.546,104.003-36.202l53.221,53.221l-2.215,2.215
	c-2.907,2.908-2.939,7.612-0.068,10.558l140.567,144.29c2.883,2.96,7.776,2.991,10.698,0.07l35.788-35.788
	C512.748,471.121,512.718,466.225,509.759,463.344z M370.694,393.116l22.421-22.421l21.378,20.827l-22.973,22.973L370.694,393.116z
	 M15.031,167.838c0-84.258,68.549-152.807,152.807-152.807s152.807,68.549,152.807,152.807s-68.549,152.807-152.807,152.807
	S15.031,252.096,15.031,167.838z M283.227,289.604c2.181-2.068,4.308-4.194,6.377-6.377l52.463,52.464l-6.377,6.377L283.227,289.604
	z M360.294,338.719l22.054,21.485l-22.144,22.144l-21.485-22.054L360.294,338.719z M468.797,493.817l-66.786-68.556l23.251-23.251
	l68.555,66.787L468.797,493.817z"/>
<path d="M253.434,62.44c-3.221-2.618-7.954-2.129-10.572,1.09c-2.618,3.22-2.13,7.954,1.09,10.572
	c28.362,23.059,44.628,57.225,44.628,93.736c0,66.578-54.165,120.743-120.743,120.743S47.094,234.416,47.094,167.838
	S101.259,47.095,167.838,47.095c15.907,0,31.362,3.043,45.936,9.043c3.841,1.581,8.232-0.251,9.811-4.088s-0.251-8.231-4.088-9.811
	c-16.4-6.751-33.78-10.174-51.659-10.174c-74.866,0-135.773,60.908-135.773,135.773s60.908,135.773,135.773,135.773
	s135.773-60.908,135.773-135.773C303.611,126.783,285.322,88.367,253.434,62.44z"/>
<path d="M167.838,255.514c38.588,0,61.624-18.542,61.624-49.6c0-33.979-27.645-61.624-61.624-61.624s-61.624,27.645-61.624,61.624
	C106.214,236.972,129.25,255.514,167.838,255.514z M167.838,159.321c25.693,0,46.594,20.902,46.594,46.594
	c0,30.079-29.193,34.57-46.594,34.57s-46.594-4.491-46.594-34.57C121.244,180.223,142.145,159.321,167.838,159.321z"/>
<path d="M137.778,141.284c14.089,0,25.551-11.462,25.551-25.551c0-12.566-10.192-31.563-25.551-31.563s-25.551,18.997-25.551,31.563
	C112.226,129.822,123.688,141.284,137.778,141.284z M137.778,99.2c4.523,0,10.521,9.426,10.521,16.533
	c0,5.802-4.719,10.521-10.521,10.521s-10.521-4.719-10.521-10.521C127.256,108.626,133.254,99.2,137.778,99.2z"/>
<path d="M223.45,115.733c0-12.566-10.191-31.563-25.551-31.563s-25.551,18.997-25.551,31.563c0,14.089,11.462,25.551,25.551,25.551
	C211.988,141.284,223.45,129.822,223.45,115.733z M187.377,115.733c0-7.107,5.998-16.533,10.521-16.533
	c4.523,0,10.521,9.426,10.521,16.533c0,5.802-4.72,10.521-10.521,10.521S187.377,121.535,187.377,115.733z"/>
<path d="M271.547,151.805c0-12.566-10.191-31.564-25.551-31.564s-25.551,18.997-25.551,31.564c0,14.089,11.462,25.551,25.551,25.551
	C260.084,177.357,271.547,165.895,271.547,151.805z M235.474,151.805c0-7.107,5.998-16.533,10.521-16.533
	c4.523,0,10.521,9.426,10.521,16.533c0,5.802-4.719,10.521-10.521,10.521S235.474,157.607,235.474,151.805z"/>
<path d="M89.681,120.242c-15.36,0-25.551,18.997-25.551,31.564c0,14.089,11.462,25.551,25.551,25.551s25.551-11.462,25.551-25.551
	C115.232,139.239,105.041,120.242,89.681,120.242z M89.681,162.327c-5.802,0-10.521-4.72-10.521-10.521
	c0-7.107,5.998-16.533,10.521-16.533s10.521,9.426,10.521,16.533C100.202,157.607,95.483,162.327,89.681,162.327z"/>
<g>
</g>
<g>
</g>
<g>
</g>
<g>
</g>
<g>
</g>
<g>
</g>
<g>
</g>
<g>
</g>
<g>
</g>
<g>
</g>
<g>
</g>
<g>
</g>
<g>
</g>
<g>
</g>
<g>
</g>
</svg>
