<?xml version="1.0" encoding="iso-8859-1"?>
<!-- Generator: Adobe Illustrator 19.0.0, SVG Export Plug-In . SVG Version: 6.00 Build 0)  -->
<svg version="1.1" id="Capa_1" xmlns="http://www.w3.org/2000/svg" xmlns:xlink="http://www.w3.org/1999/xlink" x="0px" y="0px"
	 viewBox="0 0 511.999 511.999" style="enable-background:new 0 0 511.999 511.999;" xml:space="preserve">
<path style="fill:#F498AC;" d="M504.484,232.438c0.26-52.507-42.243-95.894-94.746-96.662c-51.074-0.747-93.181,38.32-97.294,88.161
	h-32.397v-24.047c0-13.281-10.766-24.047-24.047-24.047l0,0c-13.281,0-24.047,10.766-24.047,24.047v24.047h-32.397
	c-4.113-49.841-46.219-88.909-97.294-88.161c-52.502,0.768-95.004,44.155-94.746,96.662c0.12,24.448,9.366,46.734,24.499,63.64
	c-15.134,16.906-24.379,39.192-24.499,63.64c-0.26,52.507,42.243,95.893,94.746,96.662c51.074,0.747,93.181-38.321,97.294-88.161
	h112.889c4.113,49.841,46.219,88.909,97.294,88.161c52.502-0.768,95.004-44.155,94.746-96.662
	c-0.121-24.448-9.366-46.734-24.499-63.64C495.117,279.171,504.363,256.885,504.484,232.438z"/>
<path style="fill:#F17E97;" d="M433.45,432.333c-51.074,0.747-93.181-38.321-97.294-88.162H175.843
	c-4.112,49.841-46.219,88.909-97.294,88.162c-20.092-0.294-38.716-6.835-54.042-17.735c17.119,24.805,45.554,41.31,77.754,41.782
	c51.074,0.747,93.181-38.321,97.294-88.162h112.889c4.112,49.841,46.219,88.909,97.294,88.162
	c32.2-0.471,60.635-16.976,77.754-41.782C472.165,425.498,453.542,432.04,433.45,432.333z"/>
<path style="fill:#DEDED9;" d="M352.187,336.157H159.812c-22.134,0-40.078-17.944-40.078-40.078l0,0
	c0-22.134,17.944-40.078,40.078-40.078h192.375c22.134,0,40.078,17.944,40.078,40.078l0,0
	C392.266,318.213,374.323,336.157,352.187,336.157z"/>
<path style="fill:#EEEEEC;" d="M159.812,320.125c-13.26,0-24.047-10.787-24.047-24.047c0-13.26,10.787-24.047,24.047-24.047h192.375
	c13.259,0,24.047,10.787,24.047,24.047c0,13.26-10.788,24.047-24.047,24.047H159.812z"/>
<path d="M511.998,232.475c0.28-56.635-45.545-103.385-102.15-104.212c-52.034-0.781-96.458,37.451-104.091,88.16h-18.195v-16.532
	c0-5.297-1.318-10.29-3.633-14.678c7.403-14.714,11.649-35.649,11.649-57.463c0-45.411-17.014-79.655-39.577-79.655
	s-39.577,34.245-39.577,79.655c0,23.039,4.386,43.19,11.647,57.467c-2.315,4.387-3.631,9.378-3.631,14.674v16.532h-18.196
	c-7.632-50.71-52.05-88.908-104.09-88.16C45.546,129.09-0.278,175.84,0.001,232.475c0.114,23.168,7.957,45.511,22.205,63.603
	C7.958,314.17,0.116,336.513,0.001,359.682c-0.28,56.634,45.545,103.385,102.15,104.212c0.511,0.008,1.018,0.011,1.527,0.011
	c51.361-0.001,95.006-37.959,102.563-88.172h99.515c7.558,50.215,51.2,88.175,102.563,88.172c0.507,0,1.021-0.004,1.527-0.011
	c56.605-0.828,102.43-47.578,102.15-104.212c-0.115-23.169-7.957-45.512-22.205-63.603
	C504.042,277.987,511.883,255.644,511.998,232.475z M256,63.124c10.25,0,24.548,24.586,24.548,64.626
	c0,17.007-2.773,33.198-7.697,45.474c-4.88-3.094-10.658-4.895-16.851-4.895c-6.206,0-11.995,1.809-16.882,4.915
	c-4.461-11.059-7.666-26.542-7.666-45.494C231.452,87.71,245.75,63.124,256,63.124z M496.969,359.756
	c0.239,48.427-38.941,88.402-87.34,89.111c-0.438,0.006-0.871,0.009-1.307,0.009c-45.908,0-84.608-35.46-88.389-81.275
	c-0.322-3.898-3.578-6.896-7.49-6.896H199.556c-3.911,0-7.168,3-7.49,6.896c-3.78,45.817-42.475,81.275-88.387,81.275
	c-0.433,0-0.873-0.003-1.307-0.009c-48.399-0.708-87.581-40.683-87.341-89.111c0.107-21.681,8.128-42.516,22.584-58.665
	c2.554-2.854,2.554-7.171,0-10.025c-14.456-16.15-22.477-36.984-22.584-58.665c-0.239-48.427,38.942-88.402,87.341-89.111
	c0.437-0.006,0.871-0.009,1.307-0.009c45.909,0,84.607,35.46,88.387,81.275c0.322,3.898,3.579,6.896,7.49,6.896h32.397
	c4.15,0,7.515-3.365,7.515-7.515v-23.324c4.983,4.372,10.56,6.791,16.532,6.791c4.151,0,7.515-3.365,7.515-7.515
	s-3.364-7.515-7.515-7.515c-2.974,0-6.287-2.082-9.495-5.998c2.69-1.896,5.961-3.02,9.495-3.02c9.117,0,16.532,7.416,16.532,16.532
	v24.047c0,4.15,3.364,7.515,7.515,7.515h32.397c3.911,0,7.167-3,7.49-6.896c3.781-45.817,42.478-81.275,88.389-81.275
	c0.433,0,0.872,0.003,1.307,0.009c48.399,0.708,87.58,40.683,87.34,89.111c-0.107,21.682-8.128,42.517-22.584,58.665
	c-2.555,2.854-2.555,7.171,0,10.025C488.841,317.239,496.862,338.073,496.969,359.756z"/>
<path d="M352.187,248.486h-39.745c-4.151,0-7.515,3.365-7.515,7.515c0,4.15,3.364,7.515,7.515,7.515h39.745
	c17.956,0,32.564,14.608,32.564,32.564s-14.608,32.564-32.564,32.564H159.812c-17.955,0-32.564-14.608-32.564-32.564
	s14.609-32.564,32.564-32.564h116.895c4.151,0,7.515-3.365,7.515-7.515c0-4.15-3.364-7.515-7.515-7.515H159.812
	c-26.242,0-47.593,21.351-47.593,47.593c0,26.242,21.351,47.593,47.593,47.593h192.375c26.242,0,47.593-21.351,47.593-47.593
	C399.78,269.836,378.431,248.486,352.187,248.486z"/>
<path d="M216.423,296.078c0,4.15,3.365,7.515,7.515,7.515h64.125c4.151,0,7.515-3.365,7.515-7.515c0-4.15-3.364-7.515-7.515-7.515
	h-64.125C219.787,288.564,216.423,291.927,216.423,296.078z"/>
<path d="M336.156,303.593c4.151,0,7.515-3.365,7.515-7.515c0-4.15-3.364-7.515-7.515-7.515h-16.031
	c-4.151,0-7.515,3.365-7.515,7.515c0,4.15,3.364,7.515,7.515,7.515H336.156z"/>
<path d="M175.843,288.564c-4.15,0-7.515,3.365-7.515,7.515c0,4.15,3.365,7.515,7.515,7.515h16.031c4.15,0,7.515-3.365,7.515-7.515
	c0-4.15-3.365-7.515-7.515-7.515H175.843z"/>
<g>
</g>
<g>
</g>
<g>
</g>
<g>
</g>
<g>
</g>
<g>
</g>
<g>
</g>
<g>
</g>
<g>
</g>
<g>
</g>
<g>
</g>
<g>
</g>
<g>
</g>
<g>
</g>
<g>
</g>
</svg>
