<?xml version="1.0" encoding="iso-8859-1"?>
<!-- Generator: Adobe Illustrator 19.0.0, SVG Export Plug-In . SVG Version: 6.00 Build 0)  -->
<svg version="1.1" id="Capa_1" xmlns="http://www.w3.org/2000/svg" xmlns:xlink="http://www.w3.org/1999/xlink" x="0px" y="0px"
	 viewBox="0 0 512 512" style="enable-background:new 0 0 512 512;" xml:space="preserve">
<path style="fill:#FDC572;" d="M264.016,7.515h-16.031c-30.989,0-56.11,25.121-56.11,56.11v88.172h128.25V63.624
	C320.125,32.636,295.004,7.515,264.016,7.515z M256,87.671c-13.281,0-24.047-10.766-24.047-24.047S242.719,39.577,256,39.577
	s24.047,10.766,24.047,24.047S269.281,87.671,256,87.671z"/>
<rect x="191.875" y="95.687" style="fill:#FCB74F;" width="128.25" height="56.11"/>
<path style="fill:#FDC572;" d="M288.063,504.485h-64.125c-88.539,0-160.313-71.774-160.313-160.313v-64.125
	c0-88.539,71.774-160.313,160.313-160.313h64.125c88.539,0,160.313,71.774,160.313,160.313v64.125
	C448.376,432.711,376.602,504.485,288.063,504.485z"/>
<path style="fill:#FCB74F;" d="M310.864,121.355c61.518,22.406,105.449,81.409,105.449,150.676v31.729H63.624v40.078h343.864
	c4.731,0,8.465,4.081,7.984,8.787C407.225,433.427,338.978,496.47,256,496.47h-64.125c-7.742,0-15.352-0.561-22.802-1.621
	c17.116,6.233,35.593,9.637,54.864,9.637h64.125c88.539,0,160.313-71.774,160.313-160.313v-0.334V303.76v-23.713
	C448.376,199.25,388.601,132.426,310.864,121.355z"/>
<path style="fill:#FDD495;" d="M464.407,320.125H47.593c-8.854,0-16.031-7.177-16.031-16.031v-16.031
	c0-8.854,7.177-16.031,16.031-16.031h416.814c8.854,0,16.031,7.177,16.031,16.031v16.031
	C480.438,312.948,473.261,320.125,464.407,320.125z"/>
<path style="fill:#8B8A7B;" d="M256,352.188c-22.134,0-40.078,17.944-40.078,40.078c0,16.433,9.894,30.549,24.047,36.734v75.485
	h32.063V429c14.153-6.185,24.047-20.301,24.047-36.734C296.078,370.132,278.134,352.188,256,352.188z"/>
<path d="M256,95.186c17.403,0,31.562-14.159,31.562-31.562S273.403,32.063,256,32.063s-31.562,14.159-31.562,31.562
	S238.597,95.186,256,95.186z M256,47.092c9.116,0,16.532,7.416,16.532,16.532S265.116,80.157,256,80.157
	c-9.116,0-16.532-7.416-16.532-16.532S246.884,47.092,256,47.092z"/>
<path d="M464.407,264.517h-9.227c-3.748-40.832-22.221-78.652-52.299-106.876c-21.395-20.076-47.281-33.967-75.241-40.723V63.624
	C327.64,28.542,299.098,0,264.016,0h-16.031c-35.083,0-63.624,28.542-63.624,63.624v53.295
	c-27.96,6.755-53.846,20.646-75.241,40.723c-30.078,28.223-48.551,66.043-52.299,106.875h-9.227
	c-12.983,0-23.546,10.563-23.546,23.546v16.031c0,12.983,10.563,23.546,23.546,23.546h8.517v16.532
	C56.11,436.713,131.397,512,223.937,512h64.125c92.541,0,167.828-75.287,167.828-167.828V327.64h8.517
	c12.983,0,23.546-10.563,23.546-23.546v-16.031C487.953,275.079,477.39,264.517,464.407,264.517z M199.389,63.624
	c0-26.795,21.8-48.595,48.595-48.595h16.031c26.795,0,48.595,21.8,48.595,48.595v50.388c-8.071-1.183-16.27-1.794-24.548-1.794
	h-64.125c-8.278,0-16.477,0.609-24.548,1.794V63.624z M242.978,422.114c-11.87-5.188-19.541-16.905-19.541-29.848
	c0-17.955,14.609-32.564,32.564-32.564s32.564,14.609,32.564,32.564c0,12.943-7.671,24.66-19.541,29.848
	c-2.736,1.195-4.506,3.899-4.506,6.885v67.971h-17.033V429C247.483,426.013,245.715,423.31,242.978,422.114z M440.861,344.172
	c0,84.254-68.545,152.798-152.798,152.798h-8.517v-63.344c14.756-8.4,24.047-24.136,24.047-41.361
	c0-26.242-21.351-47.593-47.593-47.593s-47.593,21.351-47.593,47.593c0,17.225,9.291,32.96,24.047,41.361v63.344h-8.517
	c-84.254,0-152.798-68.545-152.798-152.798V327.64h369.722V344.172z M472.924,304.094c0,4.696-3.82,8.517-8.517,8.517H47.593
	c-4.696,0-8.517-3.82-8.517-8.517v-16.031c0-4.696,3.82-8.517,8.517-8.517h300.921c4.15,0,7.515-3.365,7.515-7.515
	s-3.365-7.515-7.515-7.515H71.929c7.821-77.376,73.623-137.268,152.008-137.268h64.125c78.386,0,144.187,59.892,152.008,137.268
	h-56.822c-4.15,0-7.515,3.365-7.515,7.515s3.365,7.515,7.515,7.515h81.159c4.696,0,8.517,3.82,8.517,8.517V304.094z"/>
<g>
</g>
<g>
</g>
<g>
</g>
<g>
</g>
<g>
</g>
<g>
</g>
<g>
</g>
<g>
</g>
<g>
</g>
<g>
</g>
<g>
</g>
<g>
</g>
<g>
</g>
<g>
</g>
<g>
</g>
</svg>
