<?xml version="1.0" encoding="iso-8859-1"?>
<!-- Generator: Adobe Illustrator 19.0.0, SVG Export Plug-In . SVG Version: 6.00 Build 0)  -->
<svg version="1.1" id="Capa_1" xmlns="http://www.w3.org/2000/svg" xmlns:xlink="http://www.w3.org/1999/xlink" x="0px" y="0px"
	 viewBox="0 0 512 512" style="enable-background:new 0 0 512 512;" xml:space="preserve">
<path style="fill:#EEEEEC;" d="M360.204,127.75l-40.078-24.047V71.64h-128.25v32.063l-40.078,24.047
	c-30.989,0-56.11,25.121-56.11,56.11v288.564c0,17.708,14.355,32.063,32.063,32.063H384.25c17.708,0,32.063-14.355,32.063-32.063
	V183.859C416.313,152.871,391.192,127.75,360.204,127.75z"/>
<path style="fill:#DEDED9;" d="M360.204,127.75l-40.078-24.047V71.64h-128.25v16.031h104.204v16.031l32.063,40.078
	c30.989,0,56.11,25.121,56.11,56.11v272.532c0,17.708-14.355,32.063-32.063,32.063h32.063c17.708,0,32.063-14.355,32.063-32.063
	V183.859C416.313,152.871,391.192,127.75,360.204,127.75z"/>
<rect x="95.687" y="207.906" style="fill:#AED45B;" width="320.626" height="224.438"/>
<rect x="384.25" y="207.906" style="fill:#9AC932;" width="32.063" height="224.438"/>
<rect x="159.812" y="7.515" style="fill:#7A7A69;" width="192.376" height="64.125"/>
<g>
	<path style="fill:#FFFFFF;" d="M201.894,358.2c0-29.881,24.224-54.106,54.106-54.106s54.106,24.224,54.106,54.106
		c0,29.881-24.224,42.082-54.106,42.082S201.894,388.081,201.894,358.2z"/>
	<path style="fill:#FFFFFF;" d="M207.906,268.023c0-9.96,8.075-24.047,18.035-24.047s18.035,14.087,18.035,24.047
		c0,9.96-8.075,18.035-18.035,18.035S207.906,277.984,207.906,268.023z"/>
	<path style="fill:#FFFFFF;" d="M268.023,268.023c0-9.96,8.075-24.047,18.035-24.047c9.96,0,18.035,14.087,18.035,24.047
		c0,9.96-8.075,18.035-18.035,18.035C276.098,286.059,268.023,277.984,268.023,268.023z"/>
	<path style="fill:#FFFFFF;" d="M316.117,304.094c0-9.96,8.075-24.047,18.035-24.047c9.96,0,18.035,14.086,18.035,24.047
		c0,9.96-8.075,18.035-18.035,18.035C324.192,322.129,316.117,314.054,316.117,304.094z"/>
	<path style="fill:#FFFFFF;" d="M159.812,304.094c0-9.96,8.075-24.047,18.035-24.047s18.035,14.086,18.035,24.047
		c0,9.96-8.075,18.035-18.035,18.035S159.812,314.054,159.812,304.094z"/>
</g>
<path d="M362.344,120.271L327.64,99.448V79.155h24.548c4.15,0,7.515-3.365,7.515-7.515V7.515c0-4.15-3.365-7.515-7.515-7.515
	H159.812c-4.15,0-7.515,3.365-7.515,7.515V71.64c0,4.15,3.365,7.515,7.515,7.515h24.548v20.293l-34.704,20.824
	c-34.095,1.133-61.484,29.223-61.484,63.588v288.564c0,21.823,17.755,39.577,39.577,39.577H384.25
	c21.823,0,39.577-17.755,39.577-39.577V183.859C423.828,149.494,396.438,121.404,362.344,120.271z M199.389,64.125V15.029h49.096
	v49.096H199.389z M263.515,15.029h49.096v49.096h-49.096V15.029z M344.673,64.125H327.64V15.029h17.033V64.125z M167.327,15.029
	h17.033v49.096h-17.033V15.029z M151.796,135.264c1.362,0,2.698-0.371,3.867-1.071l40.078-24.047
	c2.263-1.358,3.648-3.804,3.648-6.444V79.155h113.221v24.548c0,2.639,1.385,5.086,3.648,6.444l40.078,24.047
	c1.168,0.7,2.505,1.071,3.867,1.071c26.795,0,48.595,21.8,48.595,48.595v16.532h-56.611c-4.15,0-7.515,3.365-7.515,7.515
	s3.365,7.515,7.515,7.515h56.611V424.83H103.202V215.421h212.916c4.15,0,7.515-3.365,7.515-7.515s-3.365-7.515-7.515-7.515H103.202
	v-16.532C103.202,157.064,125.001,135.264,151.796,135.264z M384.25,496.971H127.75c-13.535,0-24.548-11.013-24.548-24.548v-32.564
	h305.597v32.564C408.798,485.958,397.786,496.971,384.25,496.971z"/>
<path d="M256,296.579c-33.977,0-61.62,27.643-61.62,61.62c0,31.056,23.036,49.597,61.62,49.597s61.62-18.541,61.62-49.597
	C317.62,324.222,289.977,296.579,256,296.579z M256,392.767c-17.4,0-46.591-4.491-46.591-34.568
	c0-25.69,20.901-46.591,46.591-46.591s46.591,20.901,46.591,46.591C302.591,388.276,273.4,392.767,256,392.767z"/>
<path d="M225.941,293.573c14.089,0,25.55-11.461,25.55-25.55c0-12.566-10.19-31.562-25.55-31.562s-25.55,18.996-25.55,31.562
	C200.391,282.112,211.853,293.573,225.941,293.573z M225.941,251.491c4.523,0,10.521,9.425,10.521,16.532
	c0,5.801-4.719,10.521-10.521,10.521c-5.801,0-10.521-4.719-10.521-10.521C215.421,260.917,221.418,251.491,225.941,251.491z"/>
<path d="M286.059,293.573c14.089,0,25.55-11.461,25.55-25.55c0-12.566-10.19-31.562-25.55-31.562s-25.55,18.996-25.55,31.562
	C260.509,282.112,271.97,293.573,286.059,293.573z M286.059,251.491c4.523,0,10.521,9.425,10.521,16.532
	c0,5.801-4.719,10.521-10.521,10.521c-5.801,0-10.521-4.719-10.521-10.521C275.538,260.917,281.536,251.491,286.059,251.491z"/>
<path d="M308.603,304.094c0,14.089,11.461,25.55,25.55,25.55c14.089,0,25.55-11.461,25.55-25.55c0-12.566-10.19-31.562-25.55-31.562
	S308.603,291.528,308.603,304.094z M334.153,287.562c4.523,0,10.521,9.425,10.521,16.532c0,5.801-4.719,10.521-10.521,10.521
	c-5.801,0-10.521-4.719-10.521-10.521C323.632,296.987,329.63,287.562,334.153,287.562z"/>
<path d="M203.397,304.094c0-12.566-10.19-31.562-25.55-31.562s-25.55,18.996-25.55,31.562c0,14.089,11.461,25.55,25.55,25.55
	C191.936,329.644,203.397,318.182,203.397,304.094z M177.847,314.614c-5.801,0-10.521-4.719-10.521-10.521
	c0-7.107,5.998-16.532,10.521-16.532s10.521,9.425,10.521,16.532C188.368,309.895,183.649,314.614,177.847,314.614z"/>
<path d="M272.031,344.673h-8.517v-8.517c0-4.15-3.365-7.515-7.515-7.515c-4.15,0-7.515,3.365-7.515,7.515v8.517h-8.517
	c-4.15,0-7.515,3.365-7.515,7.515s3.365,7.515,7.515,7.515h8.517v8.517c0,4.15,3.365,7.515,7.515,7.515
	c4.15,0,7.515-3.365,7.515-7.515v-8.517h8.517c4.15,0,7.515-3.365,7.515-7.515S276.181,344.673,272.031,344.673z"/>
<g>
</g>
<g>
</g>
<g>
</g>
<g>
</g>
<g>
</g>
<g>
</g>
<g>
</g>
<g>
</g>
<g>
</g>
<g>
</g>
<g>
</g>
<g>
</g>
<g>
</g>
<g>
</g>
<g>
</g>
</svg>
