<?xml version="1.0" encoding="iso-8859-1"?>
<!-- Generator: Adobe Illustrator 19.0.0, SVG Export Plug-In . SVG Version: 6.00 Build 0)  -->
<svg version="1.1" id="Capa_1" xmlns="http://www.w3.org/2000/svg" xmlns:xlink="http://www.w3.org/1999/xlink" x="0px" y="0px"
	 viewBox="0 0 512 512" style="enable-background:new 0 0 512 512;" xml:space="preserve">
<path style="fill:#FCB74F;" d="M151.796,504.485h208.407c17.708,0,32.063-14.355,32.063-32.063V39.577
	c0-17.708-14.355-32.063-32.063-32.063H151.796c-17.708,0-32.063,14.355-32.063,32.063v432.845
	C119.734,490.13,134.089,504.485,151.796,504.485z"/>
<rect x="119.734" y="95.687" style="fill:#E8A848;" width="272.532" height="320.626"/>
<path style="fill:#FDC572;" d="M504.485,360.204V151.796c0-17.708-14.355-32.063-32.063-32.063H39.577
	c-17.708,0-32.063,14.355-32.063,32.063v208.407c0,17.708,14.355,32.063,32.063,32.063h432.845
	C490.13,392.266,504.485,377.911,504.485,360.204z"/>
<path style="fill:#FDD495;" d="M344.172,368.219H167.828c-13.281,0-24.047-10.766-24.047-24.047V167.828
	c0-13.281,10.766-24.047,24.047-24.047h176.344c13.281,0,24.047,10.766,24.047,24.047v176.344
	C368.219,357.453,357.453,368.219,344.172,368.219z"/>
<g>
	<path style="fill:#FCB74F;" d="M201.894,290.067c0-29.881,24.224-54.106,54.106-54.106s54.106,24.224,54.106,54.106
		c0,29.881-24.224,42.082-54.106,42.082S201.894,319.948,201.894,290.067z"/>
	<path style="fill:#FCB74F;" d="M207.906,199.89c0-9.96,8.075-24.047,18.035-24.047s18.035,14.087,18.035,24.047
		s-8.075,18.035-18.035,18.035S207.906,209.851,207.906,199.89z"/>
	<path style="fill:#FCB74F;" d="M268.023,199.89c0-9.96,8.075-24.047,18.035-24.047c9.96,0,18.035,14.087,18.035,24.047
		s-8.075,18.035-18.035,18.035C276.098,217.926,268.023,209.851,268.023,199.89z"/>
	<path style="fill:#FCB74F;" d="M316.117,235.961c0-9.96,8.075-24.047,18.035-24.047c9.96,0,18.035,14.087,18.035,24.047
		s-8.075,18.035-18.035,18.035C324.192,253.996,316.117,245.921,316.117,235.961z"/>
	<path style="fill:#FCB74F;" d="M159.812,235.961c0-9.96,8.075-24.047,18.035-24.047s18.035,14.087,18.035,24.047
		s-8.075,18.035-18.035,18.035S159.812,245.921,159.812,235.961z"/>
</g>
<circle cx="256" cy="424.329" r="7.515"/>
<circle cx="288.063" cy="424.329" r="7.515"/>
<circle cx="320.125" cy="424.329" r="7.515"/>
<circle cx="352.188" cy="424.329" r="7.515"/>
<circle cx="223.937" cy="424.329" r="7.515"/>
<circle cx="191.875" cy="424.329" r="7.515"/>
<circle cx="159.812" cy="424.329" r="7.515"/>
<circle cx="256" cy="456.391" r="7.515"/>
<circle cx="288.063" cy="456.391" r="7.515"/>
<circle cx="320.125" cy="456.391" r="7.515"/>
<circle cx="352.188" cy="456.391" r="7.515"/>
<circle cx="223.937" cy="456.391" r="7.515"/>
<circle cx="191.875" cy="456.391" r="7.515"/>
<circle cx="159.812" cy="456.391" r="7.515"/>
<circle cx="256" cy="87.671" r="7.515"/>
<circle cx="288.063" cy="87.671" r="7.515"/>
<circle cx="320.125" cy="87.671" r="7.515"/>
<circle cx="352.188" cy="87.671" r="7.515"/>
<circle cx="223.937" cy="87.671" r="7.515"/>
<circle cx="191.875" cy="87.671" r="7.515"/>
<circle cx="159.812" cy="87.671" r="7.515"/>
<circle cx="256" cy="55.609" r="7.515"/>
<circle cx="288.063" cy="55.609" r="7.515"/>
<circle cx="320.125" cy="55.609" r="7.515"/>
<circle cx="352.188" cy="55.609" r="7.515"/>
<circle cx="223.937" cy="55.609" r="7.515"/>
<circle cx="191.875" cy="55.609" r="7.515"/>
<circle cx="159.812" cy="55.609" r="7.515"/>
<path d="M472.423,112.219h-72.642V39.577C399.781,17.755,382.026,0,360.204,0H151.796c-21.823,0-39.577,17.755-39.577,39.577v72.642
	H39.577C17.755,112.219,0,129.974,0,151.796v208.407c0,21.823,17.755,39.577,39.577,39.577h72.642v72.642
	c0,21.823,17.755,39.577,39.577,39.577h208.407c21.823,0,39.577-17.755,39.577-39.577v-72.642h72.642
	c21.823,0,39.577-17.755,39.577-39.577V151.796C512,129.974,494.245,112.219,472.423,112.219z M127.249,39.577
	c0-13.535,11.012-24.548,24.548-24.548h208.407c13.536,0,24.548,11.013,24.548,24.548v72.642H127.249V39.577z M496.971,360.204
	c0,13.535-11.012,24.548-24.548,24.548H352.188c-4.151,0-7.515,3.365-7.515,7.515s3.364,7.515,7.515,7.515h32.564v72.642
	c0,13.535-11.012,24.548-24.548,24.548H151.796c-13.536,0-24.548-11.013-24.548-24.548v-72.642h189.371
	c4.151,0,7.515-3.365,7.515-7.515s-3.364-7.515-7.515-7.515H39.577c-13.536,0-24.548-11.013-24.548-24.548V151.796
	c0-13.535,11.012-24.548,24.548-24.548h432.845c13.536,0,24.548,11.012,24.548,24.548V360.204z"/>
<circle cx="119.734" cy="256" r="7.515"/>
<circle cx="119.734" cy="223.937" r="7.515"/>
<circle cx="119.734" cy="191.875" r="7.515"/>
<circle cx="119.734" cy="159.812" r="7.515"/>
<circle cx="119.734" cy="288.063" r="7.515"/>
<circle cx="119.734" cy="320.125" r="7.515"/>
<circle cx="119.734" cy="352.188" r="7.515"/>
<circle cx="87.671" cy="256" r="7.515"/>
<circle cx="87.671" cy="223.937" r="7.515"/>
<circle cx="87.671" cy="191.875" r="7.515"/>
<circle cx="87.671" cy="159.812" r="7.515"/>
<circle cx="87.671" cy="288.063" r="7.515"/>
<circle cx="87.671" cy="320.125" r="7.515"/>
<circle cx="87.671" cy="352.188" r="7.515"/>
<circle cx="55.609" cy="256" r="7.515"/>
<circle cx="55.609" cy="223.937" r="7.515"/>
<circle cx="55.609" cy="191.875" r="7.515"/>
<circle cx="55.609" cy="159.812" r="7.515"/>
<circle cx="55.609" cy="288.063" r="7.515"/>
<circle cx="55.609" cy="320.125" r="7.515"/>
<circle cx="55.609" cy="352.188" r="7.515"/>
<circle cx="392.266" cy="256" r="7.515"/>
<circle cx="392.266" cy="223.937" r="7.515"/>
<circle cx="392.266" cy="191.875" r="7.515"/>
<circle cx="392.266" cy="159.812" r="7.515"/>
<circle cx="392.266" cy="288.063" r="7.515"/>
<circle cx="392.266" cy="320.125" r="7.515"/>
<circle cx="392.266" cy="352.188" r="7.515"/>
<circle cx="424.329" cy="256" r="7.515"/>
<circle cx="424.329" cy="223.937" r="7.515"/>
<circle cx="424.329" cy="191.875" r="7.515"/>
<circle cx="424.329" cy="159.812" r="7.515"/>
<circle cx="424.329" cy="288.063" r="7.515"/>
<circle cx="424.329" cy="320.125" r="7.515"/>
<circle cx="424.329" cy="352.188" r="7.515"/>
<circle cx="456.391" cy="256" r="7.515"/>
<circle cx="456.391" cy="223.937" r="7.515"/>
<circle cx="456.391" cy="191.875" r="7.515"/>
<circle cx="456.391" cy="159.812" r="7.515"/>
<circle cx="456.391" cy="288.063" r="7.515"/>
<circle cx="456.391" cy="320.125" r="7.515"/>
<circle cx="456.391" cy="352.188" r="7.515"/>
<path d="M256,228.446c-33.977,0-61.62,27.643-61.62,61.62c0,31.056,23.035,49.597,61.62,49.597s61.62-18.541,61.62-49.597
	C317.62,256.089,289.977,228.446,256,228.446z M256,324.634c-17.4,0-46.591-4.491-46.591-34.568c0-25.69,20.9-46.591,46.591-46.591
	c25.691,0,46.591,20.901,46.591,46.591C302.591,320.143,273.4,324.634,256,324.634z"/>
<path d="M225.941,225.44c14.089,0,25.55-11.461,25.55-25.55c0-12.566-10.191-31.562-25.55-31.562s-25.55,18.996-25.55,31.562
	C200.391,213.979,211.853,225.44,225.941,225.44z M225.941,183.358c4.523,0,10.521,9.425,10.521,16.532
	c0,5.801-4.719,10.521-10.521,10.521c-5.801,0-10.521-4.719-10.521-10.521C215.421,192.784,221.418,183.358,225.941,183.358z"/>
<path d="M286.059,225.44c14.089,0,25.55-11.461,25.55-25.55c0-12.566-10.191-31.562-25.55-31.562s-25.55,18.996-25.55,31.562
	C260.509,213.979,271.97,225.44,286.059,225.44z M286.059,183.358c4.523,0,10.521,9.425,10.521,16.532
	c0,5.801-4.719,10.521-10.521,10.521c-5.801,0-10.521-4.719-10.521-10.521C275.538,192.784,281.536,183.358,286.059,183.358z"/>
<path d="M334.153,204.399c-15.359,0-25.55,18.996-25.55,31.562c0,14.089,11.461,25.55,25.55,25.55
	c14.089,0,25.55-11.461,25.55-25.55C359.703,223.395,349.512,204.399,334.153,204.399z M334.153,246.481
	c-5.801,0-10.521-4.719-10.521-10.521c0-7.107,5.998-16.532,10.521-16.532c4.523,0,10.521,9.425,10.521,16.532
	C344.673,241.762,339.954,246.481,334.153,246.481z"/>
<path d="M203.397,235.961c0-12.566-10.191-31.562-25.55-31.562s-25.55,18.996-25.55,31.562c0,14.089,11.461,25.55,25.55,25.55
	C191.936,261.511,203.397,250.049,203.397,235.961z M177.847,246.481c-5.801,0-10.521-4.719-10.521-10.521
	c0-7.107,5.998-16.532,10.521-16.532s10.521,9.425,10.521,16.532C188.368,241.762,183.649,246.481,177.847,246.481z"/>
<g>
</g>
<g>
</g>
<g>
</g>
<g>
</g>
<g>
</g>
<g>
</g>
<g>
</g>
<g>
</g>
<g>
</g>
<g>
</g>
<g>
</g>
<g>
</g>
<g>
</g>
<g>
</g>
<g>
</g>
</svg>
