<?xml version="1.0" encoding="iso-8859-1"?>
<!-- Generator: Adobe Illustrator 19.0.0, SVG Export Plug-In . SVG Version: 6.00 Build 0)  -->
<svg version="1.1" id="Capa_1" xmlns="http://www.w3.org/2000/svg" xmlns:xlink="http://www.w3.org/1999/xlink" x="0px" y="0px"
	 viewBox="0 0 512 512" style="enable-background:new 0 0 512 512;" xml:space="preserve">
<path style="fill:#EEEEEC;" d="M392.266,504.485H119.734c-8.854,0-16.031-7.177-16.031-16.031V23.546
	c0-8.854,7.177-16.031,16.031-16.031h272.532c8.854,0,16.031,7.177,16.031,16.031v464.908
	C408.297,497.308,401.12,504.485,392.266,504.485z"/>
<path style="fill:#DEDED9;" d="M392.266,7.515h-32.063c8.853,0,16.031,7.178,16.031,16.031v464.908
	c0,8.853-7.178,16.031-16.031,16.031h32.063c8.853,0,16.031-7.178,16.031-16.031V23.546C408.297,14.693,401.119,7.515,392.266,7.515
	z"/>
<path style="fill:#6A6956;" d="M103.703,488.454c0,8.853,7.177,16.031,16.031,16.031h272.532c8.853,0,16.031-7.178,16.031-16.031
	V440.36H103.703V488.454z"/>
<path style="fill:#595943;" d="M376.235,440.36v48.094c0,8.853-7.178,16.031-16.031,16.031h32.063
	c8.853,0,16.031-7.178,16.031-16.031V440.36H376.235z"/>
<path id="SVGCleanerId_0" style="fill:#6A6956;" d="M392.266,7.515H119.734c-8.854,0-16.031,7.178-16.031,16.031V71.64h304.595
	V23.546C408.297,14.693,401.119,7.515,392.266,7.515z"/>
<g>
	<path id="SVGCleanerId_0_1_" style="fill:#6A6956;" d="M392.266,7.515H119.734c-8.854,0-16.031,7.178-16.031,16.031V71.64h304.595
		V23.546C408.297,14.693,401.119,7.515,392.266,7.515z"/>
</g>
<path style="fill:#595943;" d="M392.266,7.515h-32.063c8.853,0,16.031,7.178,16.031,16.031V71.64h32.063V23.546
	C408.297,14.693,401.119,7.515,392.266,7.515z"/>
<g>
	<path style="fill:#75E0F1;" d="M201.894,292.07c0-29.881,24.224-54.106,54.106-54.106s54.106,24.224,54.106,54.106
		c0,29.881-24.224,42.082-54.106,42.082S201.894,321.952,201.894,292.07z"/>
	<path style="fill:#75E0F1;" d="M207.906,201.894c0-9.96,8.075-24.047,18.035-24.047s18.035,14.087,18.035,24.047
		s-8.075,18.035-18.035,18.035S207.906,211.855,207.906,201.894z"/>
	<path style="fill:#75E0F1;" d="M268.023,201.894c0-9.96,8.075-24.047,18.035-24.047c9.96,0,18.035,14.087,18.035,24.047
		s-8.075,18.035-18.035,18.035C276.098,219.93,268.023,211.855,268.023,201.894z"/>
	<path style="fill:#75E0F1;" d="M316.117,237.965c0-9.96,8.075-24.047,18.035-24.047c9.96,0,18.035,14.087,18.035,24.047
		S344.113,256,334.153,256C324.192,256,316.117,247.925,316.117,237.965z"/>
	<path style="fill:#75E0F1;" d="M159.812,237.965c0-9.96,8.075-24.047,18.035-24.047s18.035,14.087,18.035,24.047
		S187.808,256,177.847,256S159.812,247.925,159.812,237.965z"/>
</g>
<path d="M392.266,0H119.734C106.75,0,96.188,10.563,96.188,23.546v464.908c0,12.983,10.563,23.546,23.546,23.546h272.532
	c12.983,0,23.546-10.563,23.546-23.546V140.107c0-4.15-3.364-7.515-7.515-7.515s-7.515,3.365-7.515,7.515v292.739H111.217V79.155
	h289.566v24.882c0,4.15,3.364,7.515,7.515,7.515s7.515-3.365,7.515-7.515v-80.49C415.812,10.563,405.25,0,392.266,0z
	 M400.783,447.875v40.579c0,4.696-3.82,8.517-8.517,8.517H119.734c-4.696,0-8.517-3.82-8.517-8.517v-40.579H400.783z
	 M111.217,64.125V23.546c0-4.696,3.82-8.517,8.517-8.517h272.532c4.696,0,8.517,3.82,8.517,8.517v40.579H111.217z"/>
<path d="M239.969,479.937h32.063c4.151,0,7.515-3.365,7.515-7.515s-3.364-7.515-7.515-7.515h-32.063
	c-4.151,0-7.515,3.365-7.515,7.515S235.818,479.937,239.969,479.937z"/>
<path d="M272.031,32.063h-32.063c-4.151,0-7.515,3.365-7.515,7.515s3.364,7.515,7.515,7.515h32.063c4.151,0,7.515-3.365,7.515-7.515
	S276.182,32.063,272.031,32.063z"/>
<path d="M312.11,32.063h-8.016c-4.151,0-7.515,3.365-7.515,7.515s3.364,7.515,7.515,7.515h8.016c4.151,0,7.515-3.365,7.515-7.515
	S316.261,32.063,312.11,32.063z"/>
<path d="M207.906,32.063h-8.016c-4.151,0-7.515,3.365-7.515,7.515s3.364,7.515,7.515,7.515h8.016c4.151,0,7.515-3.365,7.515-7.515
	S212.057,32.063,207.906,32.063z"/>
<path d="M256,341.667c38.585,0,61.62-18.541,61.62-49.597c0-33.977-27.643-61.62-61.62-61.62s-61.62,27.643-61.62,61.62
	C194.38,323.126,217.415,341.667,256,341.667z M256,245.479c25.691,0,46.591,20.901,46.591,46.591
	c0,30.077-29.191,34.568-46.591,34.568s-46.591-4.491-46.591-34.568C209.409,266.38,230.309,245.479,256,245.479z"/>
<path d="M225.941,227.444c14.089,0,25.55-11.461,25.55-25.55c0-12.566-10.191-31.562-25.55-31.562s-25.55,18.996-25.55,31.562
	C200.391,215.983,211.853,227.444,225.941,227.444z M225.941,185.362c4.523,0,10.521,9.425,10.521,16.532
	c0,5.801-4.719,10.521-10.521,10.521c-5.801,0-10.521-4.719-10.521-10.521C215.421,194.787,221.418,185.362,225.941,185.362z"/>
<path d="M311.609,201.894c0-12.566-10.191-31.562-25.55-31.562s-25.55,18.996-25.55,31.562c0,14.089,11.461,25.55,25.55,25.55
	C300.147,227.444,311.609,215.983,311.609,201.894z M275.538,201.894c0-7.107,5.998-16.532,10.521-16.532
	c4.523,0,10.521,9.425,10.521,16.532c0,5.801-4.719,10.521-10.521,10.521C280.257,212.415,275.538,207.696,275.538,201.894z"/>
<path d="M359.703,237.965c0-12.566-10.191-31.562-25.55-31.562s-25.55,18.996-25.55,31.562c0,14.089,11.461,25.55,25.55,25.55
	C348.241,263.515,359.703,252.053,359.703,237.965z M323.632,237.965c0-7.107,5.998-16.532,10.521-16.532
	c4.523,0,10.521,9.425,10.521,16.532c0,5.801-4.719,10.521-10.521,10.521C328.351,248.485,323.632,243.766,323.632,237.965z"/>
<path d="M177.847,206.403c-15.359,0-25.55,18.996-25.55,31.562c0,14.089,11.461,25.55,25.55,25.55
	c14.089,0,25.55-11.461,25.55-25.55C203.397,225.399,193.206,206.403,177.847,206.403z M177.847,248.485
	c-5.801,0-10.521-4.719-10.521-10.521c0-7.107,5.998-16.532,10.521-16.532s10.521,9.425,10.521,16.532
	C188.368,243.766,183.649,248.485,177.847,248.485z"/>
<path d="M239.969,295.577h8.517v8.517c0,4.15,3.364,7.515,7.515,7.515c4.151,0,7.515-3.365,7.515-7.515v-8.517h8.517
	c4.151,0,7.515-3.365,7.515-7.515s-3.364-7.515-7.515-7.515h-8.517v-8.517c0-4.15-3.364-7.515-7.515-7.515
	c-4.151,0-7.515,3.365-7.515,7.515v8.517h-8.517c-4.151,0-7.515,3.365-7.515,7.515S235.818,295.577,239.969,295.577z"/>
<g>
</g>
<g>
</g>
<g>
</g>
<g>
</g>
<g>
</g>
<g>
</g>
<g>
</g>
<g>
</g>
<g>
</g>
<g>
</g>
<g>
</g>
<g>
</g>
<g>
</g>
<g>
</g>
<g>
</g>
</svg>
