<?xml version="1.0" encoding="iso-8859-1"?>
<!-- Generator: Adobe Illustrator 19.0.0, SVG Export Plug-In . SVG Version: 6.00 Build 0)  -->
<svg version="1.1" id="Capa_1" xmlns="http://www.w3.org/2000/svg" xmlns:xlink="http://www.w3.org/1999/xlink" x="0px" y="0px"
	 viewBox="0 0 511.996 511.996" style="enable-background:new 0 0 511.996 511.996;" xml:space="preserve">
<polygon style="fill:#FDC572;" points="208.02,336.624 303.976,336.624 303.976,504.547 255.998,464.566 208.02,504.547 "/>
<polygon style="fill:#FCB74F;" points="208.02,408.591 255.998,436.292 303.976,408.591 303.976,336.624 208.02,336.624 "/>
<polygon style="fill:#75E0F1;" points="255.998,7.497 302.535,34.364 356.271,34.364 383.14,80.902 429.677,107.77 429.677,161.506 
	456.545,208.044 429.677,254.581 429.677,308.317 383.14,335.186 356.271,381.723 302.535,381.723 255.998,408.591 209.46,381.723 
	155.724,381.723 128.856,335.186 82.318,308.317 82.318,254.581 55.451,208.044 82.318,161.506 82.318,107.77 128.856,80.902 
	155.724,34.364 209.46,34.364 "/>
<circle style="fill:#53D9ED;" cx="256.001" cy="208.045" r="160.567"/>
<circle style="fill:#FDC572;" cx="256.001" cy="208.045" r="135.938"/>
<g>
	<path style="fill:#FFFFFF;" d="M202.023,246.665c0-29.809,24.166-53.975,53.975-53.975s53.975,24.166,53.975,53.975
		c0,29.809-24.166,41.981-53.975,41.981S202.023,276.475,202.023,246.665z"/>
	<path style="fill:#FFFFFF;" d="M208.02,156.706c0-9.936,8.055-23.989,17.992-23.989s17.992,14.053,17.992,23.989
		c0,9.936-8.055,17.992-17.992,17.992S208.02,166.643,208.02,156.706z"/>
	<path style="fill:#FFFFFF;" d="M267.993,156.706c0-9.936,8.055-23.989,17.992-23.989c9.936,0,17.992,14.053,17.992,23.989
		c0,9.936-8.055,17.992-17.992,17.992C276.048,174.698,267.993,166.643,267.993,156.706z"/>
	<path style="fill:#FFFFFF;" d="M315.971,192.69c0-9.936,8.055-23.989,17.992-23.989s17.992,14.053,17.992,23.989
		c0,9.936-8.055,17.992-17.992,17.992S315.971,202.626,315.971,192.69z"/>
	<path style="fill:#FFFFFF;" d="M160.042,192.69c0-9.936,8.055-23.989,17.992-23.989s17.992,14.053,17.992,23.989
		c0,9.936-8.055,17.992-17.992,17.992S160.042,202.626,160.042,192.69z"/>
</g>
<path d="M463.037,204.296l-25.864-44.798v-51.727c0-2.679-1.429-5.153-3.748-6.492l-44.798-25.863l-25.864-44.8
	c-1.339-2.319-3.813-3.748-6.492-3.748h-51.727L259.746,1.005c-2.319-1.339-5.178-1.339-7.497,0l-44.798,25.863h-51.727
	c-2.679,0-5.153,1.429-6.492,3.748l-25.864,44.798l-44.798,25.863c-2.319,1.339-3.748,3.813-3.748,6.492v51.727l-25.864,44.798
	c-1.339,2.319-1.339,5.178,0,7.497l25.864,44.798v51.727c0,2.679,1.429,5.153,3.748,6.492l44.798,25.863l25.864,44.798
	c1.339,2.319,3.813,3.748,6.492,3.748h44.799v115.327c0,6.221,7.505,9.752,12.295,5.759l43.179-35.983l43.179,35.983
	c4.795,3.996,12.295,0.451,12.295-5.759V389.216h44.799c2.679,0,5.153-1.429,6.492-3.748l25.864-44.798l44.798-25.863
	c2.319-1.339,3.748-3.813,3.748-6.492v-51.727l25.864-44.798C464.377,209.472,464.377,206.615,463.037,204.296z M260.797,458.806
	c-2.78-2.316-6.818-2.316-9.599,0l-35.683,29.735v-94.666l36.733,21.207c2.297,1.326,5.2,1.326,7.497,0l36.733-21.207v94.666
	L260.797,458.806z M423.185,250.832c-0.658,1.139-1.005,2.433-1.005,3.748v49.408l-42.788,24.704
	c-1.139,0.658-2.086,1.604-2.744,2.744l-24.705,42.789h-49.408c-1.315,0-2.609,0.347-3.748,1.005l-42.789,24.704l-42.789-24.704
	c-1.139-0.658-2.433-1.005-3.748-1.005h-49.408l-24.705-42.789c-0.658-1.139-1.604-2.086-2.744-2.744l-42.788-24.704v-49.408
	c0-1.315-0.347-2.609-1.005-3.748l-24.705-42.789l24.705-42.788c0.658-1.139,1.005-2.433,1.005-3.748v-49.408l42.788-24.704
	c1.139-0.658,2.086-1.604,2.744-2.744l24.705-42.789h49.408c1.315,0,2.609-0.347,3.748-1.005l42.789-24.704l42.789,24.704
	c1.139,0.658,2.433,1.005,3.748,1.005h49.408l24.705,42.789c0.658,1.139,1.604,2.086,2.744,2.744l42.788,24.704v49.408
	c0,1.315,0.347,2.609,1.005,3.748l24.705,42.788L423.185,250.832z"/>
<path d="M358.367,118.288c-3.257,2.556-3.825,7.269-1.269,10.525c17.887,22.791,27.342,50.188,27.342,79.23
	c0,70.823-57.619,128.441-128.441,128.441s-128.441-57.619-128.441-128.441S185.175,79.602,255.998,79.602
	c27.376,0,53.502,8.493,75.553,24.56c3.302,2.406,8.068,1.657,10.473-1.644c2.405-3.301,1.657-8.067-1.644-10.473
	c-24.634-17.948-53.813-27.434-84.382-27.434c-79.09,0-143.434,64.345-143.434,143.434s64.345,143.434,143.434,143.434
	s143.434-64.345,143.434-143.434c0-32.431-10.56-63.03-30.54-88.487C366.336,116.3,361.622,115.732,358.367,118.288z"/>
<path d="M255.998,296.143c38.491,0,61.472-18.497,61.472-49.477c0-33.896-27.576-61.472-61.472-61.472s-61.472,27.576-61.472,61.472
	C194.526,277.646,217.507,296.143,255.998,296.143z M255.998,200.187c25.628,0,46.479,20.85,46.479,46.479
	c0,30.004-29.121,34.484-46.479,34.484s-46.479-4.48-46.479-34.484C209.519,221.037,230.37,200.187,255.998,200.187z"/>
<path d="M226.012,182.195c14.055,0,25.488-11.434,25.488-25.488c0-12.535-10.165-31.486-25.488-31.486s-25.488,18.95-25.488,31.486
	C200.523,170.76,211.957,182.195,226.012,182.195z M226.012,140.214c4.512,0,10.495,9.403,10.495,16.492
	c0,5.787-4.708,10.495-10.495,10.495s-10.495-4.708-10.495-10.495C215.516,149.617,221.5,140.214,226.012,140.214z"/>
<path d="M311.473,156.706c0-12.535-10.165-31.486-25.488-31.486c-15.323,0-25.488,18.95-25.488,31.486
	c0,14.055,11.434,25.488,25.488,25.488C300.039,182.195,311.473,170.76,311.473,156.706z M275.489,156.706
	c0-7.09,5.983-16.492,10.495-16.492c4.512,0,10.495,9.403,10.495,16.492c0,5.787-4.708,10.495-10.495,10.495
	C280.197,167.202,275.489,162.493,275.489,156.706z"/>
<path d="M308.474,192.69c0,14.055,11.434,25.488,25.488,25.488c14.055,0,25.488-11.434,25.488-25.488
	c0-12.535-10.165-31.486-25.488-31.486C318.639,161.204,308.474,180.155,308.474,192.69z M344.458,192.69
	c0,5.787-4.708,10.495-10.495,10.495s-10.495-4.708-10.495-10.495c0-7.09,5.983-16.492,10.495-16.492
	C338.474,176.197,344.458,185.6,344.458,192.69z"/>
<path d="M178.034,161.204c-15.323,0-25.488,18.95-25.488,31.486c0,14.055,11.434,25.488,25.488,25.488s25.488-11.434,25.488-25.488
	C203.522,180.155,193.357,161.204,178.034,161.204z M178.034,203.185c-5.787,0-10.495-4.708-10.495-10.495
	c0-7.09,5.983-16.492,10.495-16.492s10.495,9.403,10.495,16.492C188.529,198.476,183.82,203.185,178.034,203.185z"/>
<g>
</g>
<g>
</g>
<g>
</g>
<g>
</g>
<g>
</g>
<g>
</g>
<g>
</g>
<g>
</g>
<g>
</g>
<g>
</g>
<g>
</g>
<g>
</g>
<g>
</g>
<g>
</g>
<g>
</g>
</svg>
