<?xml version="1.0" encoding="iso-8859-1"?>
<!-- Generator: Adobe Illustrator 19.0.0, SVG Export Plug-In . SVG Version: 6.00 Build 0)  -->
<svg version="1.1" id="Capa_1" xmlns="http://www.w3.org/2000/svg" xmlns:xlink="http://www.w3.org/1999/xlink" x="0px" y="0px"
	 viewBox="0 0 512 512" style="enable-background:new 0 0 512 512;" xml:space="preserve">
<rect x="448.376" y="47.593" style="fill:#DEDED9;" width="56.11" height="456.892"/>
<rect x="63.624" y="47.593" style="fill:#CDCDC7;" width="384.751" height="456.892"/>
<path style="fill:#EEEEEC;" d="M63.624,47.593V440.36h328.642c30.989,0,56.11-25.121,56.11-56.11V47.593H63.624z"/>
<path style="fill:#DEDED9;" d="M336.157,384.25H7.515c0,30.989,25.121,56.11,56.11,56.11h328.642
	C361.278,440.36,336.157,415.239,336.157,384.25z"/>
<rect x="63.624" y="47.593" style="fill:#75E0F1;" width="384.751" height="96.188"/>
<g>
	<path style="fill:#F498AC;" d="M201.894,302.09c0-29.881,24.224-54.106,54.106-54.106s54.106,24.224,54.106,54.106
		c0,29.881-24.224,42.082-54.106,42.082S201.894,331.971,201.894,302.09z"/>
	<path style="fill:#F498AC;" d="M207.906,211.914c0-9.96,8.075-24.047,18.035-24.047s18.035,14.087,18.035,24.047
		s-8.075,18.035-18.035,18.035S207.906,221.874,207.906,211.914z"/>
	<path style="fill:#F498AC;" d="M268.023,211.914c0-9.96,8.075-24.047,18.035-24.047c9.96,0,18.035,14.087,18.035,24.047
		s-8.075,18.035-18.035,18.035C276.098,229.949,268.023,221.874,268.023,211.914z"/>
	<path style="fill:#F498AC;" d="M316.117,247.984c0-9.96,8.075-24.047,18.035-24.047c9.96,0,18.035,14.087,18.035,24.047
		c0,9.96-8.075,18.035-18.035,18.035C324.192,266.02,316.117,257.945,316.117,247.984z"/>
	<path style="fill:#F498AC;" d="M159.812,247.984c0-9.96,8.075-24.047,18.035-24.047s18.035,14.087,18.035,24.047
		c0,9.96-8.075,18.035-18.035,18.035S159.812,257.945,159.812,247.984z"/>
</g>
<path d="M504.485,40.078H391.388C389.064,17.083,376.202,0,360.204,0s-28.86,17.083-31.185,40.078h-41.835
	C284.86,17.083,271.998,0,256,0s-28.86,17.083-31.185,40.078H182.98C180.657,17.083,167.795,0,151.796,0
	s-28.86,17.083-31.185,40.078H63.624c-4.151,0-7.515,3.365-7.515,7.515v329.143H7.515C3.364,376.736,0,380.1,0,384.25
	c0,32.539,24.558,59.434,56.11,63.165v57.069c0,4.15,3.364,7.515,7.515,7.515h440.861c4.151,0,7.515-3.365,7.515-7.515V47.593
	C512,43.443,508.636,40.078,504.485,40.078z M360.204,15.029c6.713,0,14.104,10.307,16.041,25.049h-32.083
	C346.1,25.336,353.49,15.029,360.204,15.029z M256,15.029c6.713,0,14.104,10.307,16.041,25.049h-32.083
	C241.896,25.336,249.287,15.029,256,15.029z M151.796,15.029c6.713,0,14.104,10.307,16.041,25.049h-32.083
	C137.693,25.336,145.083,15.029,151.796,15.029z M71.139,151.296h278.043c4.151,0,7.515-3.365,7.515-7.515s-3.364-7.515-7.515-7.515
	H71.139V55.108h49.473c2.324,22.995,15.187,40.078,31.185,40.078c4.151,0,7.515-3.365,7.515-7.515c0-4.15-3.364-7.515-7.515-7.515
	c-6.713,0-14.104-10.307-16.041-25.049h89.06c2.324,22.995,15.187,40.078,31.185,40.078c4.151,0,7.515-3.365,7.515-7.515
	c0-4.15-3.364-7.515-7.515-7.515c-6.713,0-14.104-10.307-16.041-25.049h89.06c2.324,22.995,15.187,40.078,31.185,40.078
	c4.151,0,7.515-3.365,7.515-7.515c0-4.15-3.364-7.515-7.515-7.515c-6.713,0-14.104-10.307-16.041-25.049h96.699v81.159h-56.11
	c-4.151,0-7.515,3.365-7.515,7.515s3.364,7.515,7.515,7.515h56.11V384.25c0,26.795-21.8,48.595-48.595,48.595
	s-48.595-21.8-48.595-48.595c0-4.15-3.364-7.515-7.515-7.515H71.139V151.296z M15.609,391.765h313.473
	c1.94,16.409,10.148,30.925,22.157,41.08H63.624C39.384,432.845,19.232,415.006,15.609,391.765z M71.139,447.875h321.127
	c19.469,0,36.915-8.799,48.595-22.62v71.716H71.139V447.875z M455.89,384.25V55.108h13.025v441.863H455.89V384.25z M496.971,496.971
	h-13.025V55.108h13.025V496.971z"/>
<path d="M256,240.47c-33.977,0-61.62,27.643-61.62,61.62c0,31.056,23.035,49.597,61.62,49.597s61.62-18.541,61.62-49.597
	C317.62,268.113,289.977,240.47,256,240.47z M256,336.658c-17.4,0-46.591-4.491-46.591-34.568c0-25.69,20.9-46.591,46.591-46.591
	c25.691,0,46.591,20.901,46.591,46.591C302.591,332.167,273.4,336.658,256,336.658z"/>
<path d="M225.941,237.464c14.089,0,25.55-11.461,25.55-25.55c0-12.566-10.191-31.562-25.55-31.562s-25.55,18.996-25.55,31.562
	C200.391,226.002,211.853,237.464,225.941,237.464z M225.941,195.382c4.523,0,10.521,9.425,10.521,16.532
	c0,5.801-4.719,10.521-10.521,10.521c-5.801,0-10.521-4.719-10.521-10.521C215.421,204.807,221.418,195.382,225.941,195.382z"/>
<path d="M286.059,237.464c14.089,0,25.55-11.461,25.55-25.55c0-12.566-10.191-31.562-25.55-31.562s-25.55,18.996-25.55,31.562
	C260.509,226.002,271.97,237.464,286.059,237.464z M286.059,195.382c4.523,0,10.521,9.425,10.521,16.532
	c0,5.801-4.719,10.521-10.521,10.521c-5.801,0-10.521-4.719-10.521-10.521C275.538,204.807,281.536,195.382,286.059,195.382z"/>
<path d="M359.703,247.984c0-12.566-10.191-31.562-25.55-31.562s-25.55,18.996-25.55,31.562c0,14.089,11.461,25.55,25.55,25.55
	C348.241,273.534,359.703,262.073,359.703,247.984z M334.153,258.505c-5.801,0-10.521-4.719-10.521-10.521
	c0-7.107,5.998-16.532,10.521-16.532c4.523,0,10.521,9.425,10.521,16.532C344.673,253.786,339.954,258.505,334.153,258.505z"/>
<path d="M203.397,247.984c0-12.566-10.191-31.562-25.55-31.562s-25.55,18.996-25.55,31.562c0,14.089,11.461,25.55,25.55,25.55
	C191.936,273.534,203.397,262.073,203.397,247.984z M177.847,258.505c-5.801,0-10.521-4.719-10.521-10.521
	c0-7.107,5.998-16.532,10.521-16.532s10.521,9.425,10.521,16.532C188.368,253.786,183.649,258.505,177.847,258.505z"/>
<g>
</g>
<g>
</g>
<g>
</g>
<g>
</g>
<g>
</g>
<g>
</g>
<g>
</g>
<g>
</g>
<g>
</g>
<g>
</g>
<g>
</g>
<g>
</g>
<g>
</g>
<g>
</g>
<g>
</g>
</svg>
