<?xml version="1.0" encoding="iso-8859-1"?>
<!-- Generator: Adobe Illustrator 19.0.0, SVG Export Plug-In . SVG Version: 6.00 Build 0)  -->
<svg version="1.1" id="Capa_1" xmlns="http://www.w3.org/2000/svg" xmlns:xlink="http://www.w3.org/1999/xlink" x="0px" y="0px"
	 viewBox="0 0 512 512" style="enable-background:new 0 0 512 512;" xml:space="preserve">
<path style="fill:#EEEEEC;" d="M492.637,53.442l-34.16-34.16c-15.722-15.722-41.212-15.722-56.934,0L82.715,338.11l-28.417,85.351
	l0,0L14.829,462.93c-9.575,9.575-9.807,25.479-0.051,34.872c9.457,9.104,24.504,8.996,33.827-0.327l39.853-39.853l0,0l85.351-28.417
	l318.828-318.828C508.359,94.654,508.359,69.164,492.637,53.442z"/>
<path style="fill:#DEDED9;" d="M492.637,53.442l-18.116-18.116c15.722,15.722,15.722,41.212,0,56.933L155.693,411.088
	l-85.351,28.417l0,0l-39.853,39.853c-6.071,6.071-14.564,8.209-22.365,6.465c0.965,4.433,3.168,8.621,6.655,11.978
	c9.457,9.104,24.504,8.996,33.827-0.327l39.853-39.853l0,0l85.351-28.417l318.828-318.828
	C508.359,94.654,508.359,69.164,492.637,53.442z"/>
<path style="fill:#7A7A69;" d="M48.605,497.475l39.853-39.853l-34.16-34.16L14.829,462.93c-9.575,9.575-9.807,25.479-0.051,34.872
	C24.234,506.907,39.282,506.797,48.605,497.475z"/>
<path style="fill:#6A6956;" d="M73.696,442.859l-39.853,39.853c-6.763,6.763-16.532,8.651-25.001,5.717
	c1.171,3.456,3.141,6.682,5.935,9.371c9.457,9.104,24.504,8.996,33.827-0.327l39.853-39.853L73.696,442.859z"/>
<path style="fill:#F17E97;" d="M151.592,377.408L447.09,81.91c4.716-4.716,4.716-12.363,0-17.08c-4.716-4.717-12.363-4.716-17.081,0
	L134.511,360.327c-8.058-2.15-17.008-0.071-23.33,6.249c-9.433,9.433-9.433,24.728,0,34.16s24.728,9.433,34.16,0
	C151.663,394.416,153.742,385.465,151.592,377.408z"/>
<path d="M497.974,48.105l-34.16-34.16C449.732-0.136,427.713-4.033,409.67,4.458c-4.996,2.351-9.561,5.584-13.465,9.487
	L77.378,332.773c-0.829,0.829-1.454,1.841-1.825,2.953L47.7,419.385L9.492,457.592c-9.63,9.63-12.286,25.019-6.157,37.23
	c1.809,3.604,4.331,6.838,7.372,9.484c9.397,8.181,23.208,9.996,34.457,4.686c3.254-1.536,6.234-3.635,8.778-6.18l38.593-38.593
	l83.658-27.855c1.112-0.37,2.124-0.994,2.953-1.825l215.366-215.365c2.948-2.948,2.948-7.728,0-10.674
	c-2.948-2.947-7.727-2.948-10.675,0L169.733,422.605l-79.235,26.381l-27.566-27.565l26.381-79.234l44.641-44.641l11.742,11.742
	c3.07,3.071,8.254,2.863,11.076-0.433c2.53-2.954,2.347-7.494-0.402-10.242l-11.742-11.742L179.501,252l11.742,11.742
	c3.07,3.071,8.254,2.863,11.076-0.433c2.53-2.954,2.347-7.494-0.402-10.242l-11.742-11.742l34.872-34.872l11.742,11.742
	c3.07,3.071,8.254,2.863,11.076-0.433c2.53-2.954,2.347-7.494-0.402-10.242l-11.742-11.742l34.89-34.89
	c0.111,0.126,0.217,0.254,0.338,0.373l11.386,11.387c3.071,3.071,8.253,2.863,11.076-0.433c2.53-2.954,2.348-7.493-0.401-10.242
	l-11.386-11.387c-0.121-0.121-0.249-0.227-0.374-0.338l34.89-34.89l11.742,11.742c3.071,3.07,8.254,2.863,11.077-0.433
	c2.529-2.954,2.347-7.494-0.401-10.242l-11.743-11.743l34.872-34.872l17.435,17.436c3.07,3.07,8.254,2.863,11.077-0.433
	c2.529-2.954,2.347-7.494-0.401-10.242L372.362,59.14l34.516-34.516c9.285-9.286,23.905-12.118,35.984-6.967
	c3.83,1.633,7.331,4.024,10.274,6.967l34.16,34.16c12.754,12.754,12.754,33.505,0,46.259l-79.139,79.139
	c-2.948,2.948-2.948,7.728,0,10.674c2.95,2.948,7.729,2.946,10.675,0l79.139-79.139C516.614,97.074,516.614,66.745,497.974,48.105z
	 M43.266,492.137c-6.354,6.354-16.786,6.454-23.254,0.226c-6.696-6.447-6.31-17.632,0.154-24.096l34.132-34.132l23.485,23.486
	L43.266,492.137z"/>
<path d="M452.427,59.491c-7.651-7.651-20.103-7.651-27.755,0L131.983,352.18c-9.548-1.114-19.248,2.168-26.139,9.059
	c-12.361,12.361-12.361,32.474,0,44.834c9.277,9.277,23.76,11.855,35.681,6.38c3.4-1.562,6.509-3.735,9.154-6.38
	c6.89-6.89,10.174-16.588,9.058-26.139L452.428,87.247C460.079,79.595,460.079,67.144,452.427,59.491z M441.752,76.572
	L146.255,372.07c-1.905,1.905-2.65,4.68-1.956,7.284c1.527,5.723-0.118,11.87-4.294,16.046c-6.476,6.475-17.01,6.475-23.486,0
	c-6.475-6.475-6.475-17.01,0-23.485c4.15-4.15,10.379-5.807,16.046-4.295c2.604,0.693,5.378-0.05,7.284-1.956L435.347,70.167
	c1.767-1.766,4.64-1.765,6.405,0C443.518,71.933,443.518,74.805,441.752,76.572z"/>
<g>
</g>
<g>
</g>
<g>
</g>
<g>
</g>
<g>
</g>
<g>
</g>
<g>
</g>
<g>
</g>
<g>
</g>
<g>
</g>
<g>
</g>
<g>
</g>
<g>
</g>
<g>
</g>
<g>
</g>
</svg>
