<?xml version="1.0" encoding="iso-8859-1"?>
<!-- Generator: Adobe Illustrator 19.0.0, SVG Export Plug-In . SVG Version: 6.00 Build 0)  -->
<svg version="1.1" id="Capa_1" xmlns="http://www.w3.org/2000/svg" xmlns:xlink="http://www.w3.org/1999/xlink" x="0px" y="0px"
	 viewBox="0 0 512 512" style="enable-background:new 0 0 512 512;" xml:space="preserve">
<polygon style="fill:#8C70C2;" points="432.344,504.485 79.656,504.485 39.577,288.063 472.423,288.063 "/>
<path style="fill:#7B5FB2;" d="M39.577,288.063l4.267,23.045h372.974c10.024,0,17.588,9.095,15.764,18.95l-32.301,174.428h32.063
	l40.078-216.423H39.577z"/>
<rect x="7.515" y="256" style="fill:#BAA9DA;" width="496.971" height="32.063"/>
<polygon style="fill:#EEEEEC;" points="472.423,256 39.577,256 39.577,111.718 256,63.624 472.423,111.718 "/>
<polygon style="fill:#DEDED9;" points="472.423,111.718 440.026,104.519 440.026,256 472.423,256 "/>
<g>
	<rect x="243.977" y="127.75" style="fill:#7A7A69;" width="24.047" height="96.188"/>
	<rect x="320.125" y="127.75" style="fill:#7A7A69;" width="24.047" height="96.188"/>
	<rect x="400.282" y="127.75" style="fill:#7A7A69;" width="24.047" height="96.188"/>
	<rect x="167.828" y="127.75" style="fill:#7A7A69;" width="24.047" height="96.188"/>
	<rect x="87.671" y="127.75" style="fill:#7A7A69;" width="24.047" height="96.188"/>
</g>
<g>
	<path style="fill:#EEEEEC;" d="M201.894,430.341c0-29.881,24.224-54.106,54.106-54.106s54.106,24.224,54.106,54.106
		c0,29.881-24.224,42.082-54.106,42.082S201.894,460.222,201.894,430.341z"/>
	<path style="fill:#EEEEEC;" d="M207.906,340.164c0-9.96,8.075-24.047,18.035-24.047s18.035,14.087,18.035,24.047
		c0,9.96-8.075,18.035-18.035,18.035S207.906,350.125,207.906,340.164z"/>
	<path style="fill:#EEEEEC;" d="M268.023,340.164c0-9.96,8.075-24.047,18.035-24.047c9.96,0,18.035,14.087,18.035,24.047
		c0,9.96-8.075,18.035-18.035,18.035C276.098,358.2,268.023,350.125,268.023,340.164z"/>
	<path style="fill:#EEEEEC;" d="M316.117,376.235c0-9.96,8.075-24.047,18.035-24.047c9.96,0,18.035,14.086,18.035,24.047
		c0,9.96-8.075,18.035-18.035,18.035C324.192,394.27,316.117,386.195,316.117,376.235z"/>
	<path style="fill:#EEEEEC;" d="M159.812,376.235c0-9.96,8.075-24.047,18.035-24.047s18.035,14.086,18.035,24.047
		c0,9.96-8.075,18.035-18.035,18.035S159.812,386.195,159.812,376.235z"/>
</g>
<path d="M504.485,248.485h-24.548V111.718c0-3.522-2.446-6.572-5.884-7.335L319.624,70.065V7.515c0-4.15-3.365-7.515-7.515-7.515
	H207.906c-4.15,0-7.515,3.365-7.515,7.515v60.77L37.947,104.383c-3.439,0.763-5.884,3.813-5.884,7.335v136.767H7.515
	C3.365,248.485,0,251.85,0,256v32.063c0,4.15,3.365,7.515,7.515,7.515h25.811l38.94,210.277c0.66,3.561,3.767,6.146,7.389,6.146
	h352.689c3.622,0,6.729-2.585,7.389-6.146l38.94-210.277h25.811c4.15,0,7.515-3.365,7.515-7.515V256
	C512,251.85,508.635,248.485,504.485,248.485z M215.421,15.029h89.174v51.696L257.63,56.289c-1.073-0.238-2.187-0.238-3.26,0
	l-38.949,8.655V15.029z M426.093,496.971H85.907L48.612,295.577h414.777L426.093,496.971z M496.971,280.548H15.029v-17.033h342.837
	c4.15,0,7.515-3.365,7.515-7.515c0-4.15-3.365-7.515-7.515-7.515H47.092V117.746L256,71.322l208.908,46.424v130.739h-71.64
	c-4.15,0-7.515,3.365-7.515,7.515c0,4.15,3.365,7.515,7.515,7.515h103.703V280.548z"/>
<path d="M268.023,120.235h-24.047c-4.15,0-7.515,3.365-7.515,7.515v96.188c0,4.15,3.365,7.515,7.515,7.515h24.047
	c4.15,0,7.515-3.365,7.515-7.515V127.75C275.538,123.599,272.174,120.235,268.023,120.235z M260.509,216.423h-9.018v-81.159h9.018
	V216.423z"/>
<path d="M344.172,120.235h-24.047c-4.15,0-7.515,3.365-7.515,7.515v96.188c0,4.15,3.365,7.515,7.515,7.515h24.047
	c4.15,0,7.515-3.365,7.515-7.515V127.75C351.687,123.599,348.322,120.235,344.172,120.235z M336.658,216.423h-9.018v-81.159h9.018
	V216.423z"/>
<path d="M400.282,231.452h24.047c4.15,0,7.515-3.365,7.515-7.515V127.75c0-4.15-3.365-7.515-7.515-7.515h-24.047
	c-4.15,0-7.515,3.365-7.515,7.515v96.188C392.767,228.087,396.132,231.452,400.282,231.452z M407.796,135.264h9.018v81.159h-9.018
	V135.264z"/>
<path d="M191.875,120.235h-24.047c-4.15,0-7.515,3.365-7.515,7.515v96.188c0,4.15,3.365,7.515,7.515,7.515h24.047
	c4.15,0,7.515-3.365,7.515-7.515V127.75C199.389,123.599,196.025,120.235,191.875,120.235z M184.36,216.423h-9.018v-81.159h9.018
	V216.423z"/>
<path d="M111.718,120.235H87.671c-4.15,0-7.515,3.365-7.515,7.515v96.188c0,4.15,3.365,7.515,7.515,7.515h24.047
	c4.15,0,7.515-3.365,7.515-7.515V127.75C119.233,123.599,115.868,120.235,111.718,120.235z M104.204,216.423h-9.018v-81.159h9.018
	V216.423z"/>
<path d="M194.38,430.341c0,31.056,23.036,49.597,61.62,49.597s61.62-18.541,61.62-49.597c0-33.977-27.643-61.62-61.62-61.62
	S194.38,396.363,194.38,430.341z M256,383.75c25.69,0,46.591,20.901,46.591,46.591c0,30.077-29.191,34.568-46.591,34.568
	s-46.591-4.491-46.591-34.568C209.409,404.65,230.31,383.75,256,383.75z"/>
<path d="M225.941,365.714c14.089,0,25.55-11.461,25.55-25.55c0-12.566-10.19-31.562-25.55-31.562s-25.55,18.996-25.55,31.562
	C200.391,354.253,211.853,365.714,225.941,365.714z M225.941,323.632c4.523,0,10.521,9.425,10.521,16.532
	c0,5.801-4.719,10.521-10.521,10.521c-5.801,0-10.521-4.719-10.521-10.521C215.421,333.058,221.418,323.632,225.941,323.632z"/>
<path d="M286.059,365.714c14.089,0,25.55-11.461,25.55-25.55c0-12.566-10.19-31.562-25.55-31.562s-25.55,18.996-25.55,31.562
	C260.509,354.253,271.97,365.714,286.059,365.714z M286.059,323.632c4.523,0,10.521,9.425,10.521,16.532
	c0,5.801-4.719,10.521-10.521,10.521c-5.801,0-10.521-4.719-10.521-10.521C275.538,333.058,281.536,323.632,286.059,323.632z"/>
<path d="M334.153,401.785c14.089,0,25.55-11.461,25.55-25.55c0-12.566-10.19-31.562-25.55-31.562s-25.55,18.996-25.55,31.562
	C308.603,390.323,320.064,401.785,334.153,401.785z M334.153,359.703c4.523,0,10.521,9.425,10.521,16.532
	c0,5.801-4.719,10.521-10.521,10.521c-5.801,0-10.521-4.719-10.521-10.521C323.632,369.128,329.63,359.703,334.153,359.703z"/>
<path d="M177.847,401.785c14.089,0,25.55-11.461,25.55-25.55c0-12.566-10.19-31.562-25.55-31.562s-25.55,18.996-25.55,31.562
	C152.297,390.323,163.759,401.785,177.847,401.785z M177.847,359.703c4.523,0,10.521,9.425,10.521,16.532
	c0,5.801-4.719,10.521-10.521,10.521c-5.801,0-10.521-4.719-10.521-10.521C167.327,369.128,173.325,359.703,177.847,359.703z"/>
<g>
</g>
<g>
</g>
<g>
</g>
<g>
</g>
<g>
</g>
<g>
</g>
<g>
</g>
<g>
</g>
<g>
</g>
<g>
</g>
<g>
</g>
<g>
</g>
<g>
</g>
<g>
</g>
<g>
</g>
</svg>
