<?xml version="1.0" encoding="iso-8859-1"?>
<!-- Generator: Adobe Illustrator 19.0.0, SVG Export Plug-In . SVG Version: 6.00 Build 0)  -->
<svg version="1.1" id="Capa_1" xmlns="http://www.w3.org/2000/svg" xmlns:xlink="http://www.w3.org/1999/xlink" x="0px" y="0px"
	 viewBox="0 0 512 512" style="enable-background:new 0 0 512 512;" xml:space="preserve">
<path style="fill:#EEEEEC;" d="M352.188,79.656H159.812l-32.064-40.078H47.593v136.266c0,115.1,93.307,208.407,208.407,208.407
	s208.407-93.307,208.407-208.407V39.577H384.25L352.188,79.656z"/>
<path style="fill:#DEDED9;" d="M432.344,39.577v136.266c0,109.706-84.767,199.614-192.376,207.8
	c5.291,0.403,10.637,0.607,16.031,0.607c115.1,0,208.407-93.307,208.407-208.407V39.577L432.344,39.577L432.344,39.577z"/>
<circle style="fill:#BDBCB4;" cx="159.812" cy="239.969" r="64.125"/>
<ellipse style="fill:#F17E97;" cx="256" cy="280.047" rx="32.063" ry="24.047"/>
<g>
	<polygon style="fill:#BDBCB4;" points="416.313,39.577 432.344,39.577 432.344,87.671 376.235,87.671 	"/>
	<polygon style="fill:#BDBCB4;" points="95.687,39.577 79.656,39.577 79.656,87.671 135.765,87.671 	"/>
</g>
<g>
	<polygon style="fill:#7A7A69;" points="384.25,39.577 504.485,39.577 504.485,151.796 	"/>
	<polygon style="fill:#7A7A69;" points="127.75,39.577 7.515,39.577 7.515,151.796 	"/>
</g>
<circle style="fill:#FDC572;" cx="256" cy="432.344" r="40.078"/>
<path style="fill:#FCB74F;" d="M256.001,392.266c9.734,7.312,16.03,18.951,16.03,32.063c0,22.134-17.944,40.078-40.078,40.078
	c0,0,0,0-0.001,0c6.699,5.032,15.024,8.016,24.048,8.016c22.134,0,40.078-17.944,40.078-40.078S278.135,392.266,256.001,392.266z"/>
<path d="M335.656,247.984c0-9.116,7.417-16.532,16.532-16.532s16.532,7.416,16.532,16.532c0,4.15,3.365,7.515,7.515,7.515
	s7.515-3.365,7.515-7.515c0-17.403-14.159-31.562-31.562-31.562s-31.562,14.159-31.562,31.562c0,4.15,3.365,7.515,7.515,7.515
	S335.656,252.134,335.656,247.984z"/>
<path d="M159.812,216.423c-17.403,0-31.562,14.159-31.562,31.562c0,4.15,3.365,7.515,7.515,7.515s7.515-3.365,7.515-7.515
	c0-9.116,7.416-16.532,16.532-16.532s16.532,7.416,16.532,16.532c0,4.15,3.365,7.515,7.515,7.515s7.515-3.365,7.515-7.515
	C191.374,230.581,177.215,216.423,159.812,216.423z"/>
<path d="M504.485,32.063H384.25c-2.256,0-4.455,1.066-5.867,2.821l-29.806,37.258h-28.118c-4.15,0-7.515,3.365-7.515,7.515
	c0,4.15,3.365,7.515,7.515,7.515h31.729c2.282,0,4.442-1.038,5.867-2.821l26.997-33.745l71.84,67.051v58.188
	c0,108.255-86.075,196.77-193.378,200.737v-65.55c18.241-2.809,32.063-15.631,32.063-30.984c0-17.403-17.755-31.562-39.577-31.562
	c-10.197,0-19.504,3.092-26.529,8.162c1.283-5.355,1.981-10.935,1.981-16.679c0-39.502-32.138-71.64-71.64-71.64
	s-71.64,32.138-71.64,71.64s32.138,71.64,71.64,71.64c23.142,0,43.744-11.04,56.851-28.119
	c1.886,13.797,14.964,24.946,31.822,27.541v65.55c-107.303-3.967-193.378-92.482-193.378-200.737v-55.776
	c0-0.738-0.111-1.449-0.31-2.123l72.149-67.339l26.997,33.745c1.427,1.781,3.586,2.82,5.868,2.82h124.576
	c4.15,0,7.515-3.365,7.515-7.515c0-4.15-3.365-7.515-7.515-7.515H163.423l-29.807-37.259c-1.377-1.77-3.635-2.82-5.866-2.82H7.515
	C3.365,32.063,0,35.427,0,39.577v112.219c0,6.411,7.942,9.881,12.642,5.494l27.437-25.607v44.16
	c0,57.675,22.46,111.898,63.243,152.68c35.362,35.362,80.833,56.936,129.894,62.049c-14.769,8.089-24.807,23.778-24.807,41.772
	c0,26.242,21.351,47.593,47.593,47.593c26.242,0,47.593-21.351,47.593-47.593c0-17.993-10.039-33.683-24.806-41.772
	c49.062-5.113,94.532-26.687,129.894-62.049c40.782-40.783,63.242-95.005,63.242-152.68v-44.16l27.437,25.607
	c4.712,4.399,12.642,0.926,12.642-5.494V39.577C512,35.427,508.635,32.063,504.485,32.063z M159.812,296.579
	c-31.215,0-56.611-25.396-56.611-56.611s25.396-56.611,56.611-56.611s56.611,25.396,56.611,56.611S191.027,296.579,159.812,296.579z
	 M15.029,47.092h93.655l-93.655,87.412V47.092z M231.452,280.047c0-8.962,11.242-16.532,24.548-16.532
	c13.306,0,24.548,7.571,24.548,16.532c0,8.961-11.242,16.532-24.548,16.532C242.694,296.579,231.452,289.008,231.452,280.047z
	 M288.564,432.344c0,17.955-14.609,32.564-32.564,32.564s-32.564-14.609-32.564-32.564c0-15.369,10.706-28.276,25.049-31.679v23.663
	c0,0.169,0.014,0.335,0.025,0.501h-0.526c-4.15,0-7.515,3.365-7.515,7.515s3.365,7.515,7.515,7.515h16.031
	c4.15,0,7.515-3.365,7.515-7.515s-3.365-7.515-7.515-7.515h-0.526c0.011-0.166,0.025-0.332,0.025-0.501v-23.663
	C277.858,404.068,288.564,416.975,288.564,432.344z M496.971,134.504l-93.655-87.412h93.655V134.504z"/>
<g>
</g>
<g>
</g>
<g>
</g>
<g>
</g>
<g>
</g>
<g>
</g>
<g>
</g>
<g>
</g>
<g>
</g>
<g>
</g>
<g>
</g>
<g>
</g>
<g>
</g>
<g>
</g>
<g>
</g>
</svg>
