<?xml version="1.0" encoding="iso-8859-1"?>
<!-- Generator: Adobe Illustrator 19.0.0, SVG Export Plug-In . SVG Version: 6.00 Build 0)  -->
<svg version="1.1" id="Capa_1" xmlns="http://www.w3.org/2000/svg" xmlns:xlink="http://www.w3.org/1999/xlink" x="0px" y="0px"
	 viewBox="0 0 512 512" style="enable-background:new 0 0 512 512;" xml:space="preserve">
<polygon style="fill:#F498AC;" points="448.376,440.36 63.624,440.36 87.671,392.266 87.671,119.734 63.624,71.64 448.376,71.64 
	424.329,119.734 424.329,392.266 "/>
<polygon style="fill:#F17E97;" points="424.329,119.734 448.376,71.64 416.313,71.64 392.266,119.734 392.266,392.266 
	416.313,440.36 448.376,440.36 424.329,392.266 "/>
<polygon style="fill:#FDC572;" points="416.313,31.562 384.25,7.515 352.188,31.562 320.125,7.515 288.063,31.562 256,7.515 
	223.937,31.562 191.875,7.515 159.812,31.562 127.75,7.515 95.687,31.562 63.624,7.515 63.624,71.64 448.376,71.64 448.376,7.515 
	"/>
<g>
	<polygon style="fill:#FCB74F;" points="416.313,31.562 416.313,71.64 448.376,71.64 448.376,7.515 	"/>
	<polygon style="fill:#FCB74F;" points="79.656,19.538 63.624,7.515 63.624,31.562 	"/>
</g>
<polygon style="fill:#FDC572;" points="95.687,480.438 127.75,504.485 159.812,480.438 191.875,504.485 223.937,480.438 
	256,504.485 288.063,480.438 320.125,504.485 352.188,480.438 384.25,504.485 416.313,480.438 448.376,504.485 448.376,440.36 
	63.624,440.36 63.624,504.485 "/>
<g>
	<polygon style="fill:#FCB74F;" points="63.624,480.438 63.624,504.485 79.656,492.462 	"/>
	<polygon style="fill:#FCB74F;" points="416.313,440.36 416.313,480.438 416.313,480.438 448.376,504.485 448.376,440.36 	"/>
</g>
<path style="fill:#FFFFFF;" d="M314.553,197.447c0.555-8.864-2.546-17.914-9.32-24.687c-12.521-12.521-32.822-12.521-45.344,0
	s-12.521,32.822,0,45.344l-45.344,45.344c-12.521-12.521-32.822-12.521-45.344,0c-12.521,12.521-12.521,32.822,0,45.344
	c6.773,6.773,15.824,9.875,24.687,9.32c-0.555,8.864,2.546,17.914,9.32,24.687c12.521,12.521,32.822,12.521,45.344,0
	s12.521-32.822,0-45.344l45.344-45.344c12.521,12.521,32.822,12.521,45.344,0c12.521-12.521,12.521-32.822,0-45.344
	C332.467,199.993,323.418,196.892,314.553,197.447z"/>
<g>
	<circle style="fill:#EE6482;" cx="256" cy="119.734" r="16.031"/>
	<circle style="fill:#EE6482;" cx="336.157" cy="119.734" r="16.031"/>
	<circle style="fill:#EE6482;" cx="175.843" cy="119.734" r="16.031"/>
	<circle style="fill:#EE6482;" cx="256" cy="392.266" r="16.031"/>
	<circle style="fill:#EE6482;" cx="336.157" cy="392.266" r="16.031"/>
	<circle style="fill:#EE6482;" cx="175.843" cy="392.266" r="16.031"/>
</g>
<path d="M416.814,119.734v40.412c0,4.15,3.364,7.515,7.515,7.515s7.515-3.365,7.515-7.515v-38.638l23.253-46.508
	c0.518-1.035,0.794-2.201,0.794-3.36V7.515c0-6.065-7.161-9.659-12.023-6.012l-27.554,20.665L388.759,1.503
	c-2.671-2.004-6.346-2.004-9.018,0l-27.554,20.665L324.634,1.503c-2.671-2.004-6.346-2.004-9.018,0l-27.554,20.665L260.509,1.503
	c-2.671-2.004-6.346-2.004-9.018,0l-27.554,20.665L196.384,1.503c-2.671-2.004-6.346-2.004-9.018,0l-27.554,20.665L132.258,1.503
	c-2.671-2.004-6.346-2.004-9.018,0L95.687,22.168L68.133,1.503C63.271-2.144,56.11,1.45,56.11,7.515V71.64
	c0,1.158,0.276,2.325,0.794,3.361l23.253,46.508v268.984l-23.253,46.508c-0.518,1.035-0.794,2.201-0.794,3.36v64.125
	c0,6.065,7.161,9.659,12.023,6.012l27.554-20.665l27.554,20.665c2.671,2.004,6.346,2.004,9.018,0l27.554-20.665l27.554,20.665
	c2.671,2.004,6.346,2.004,9.018,0l27.554-20.665l27.554,20.665c2.671,2.004,6.346,2.004,9.018,0l27.554-20.665l27.554,20.665
	c2.671,2.004,6.346,2.004,9.018,0l27.554-20.665l27.554,20.665c2.671,2.004,6.346,2.004,9.018,0l27.554-20.665l27.554,20.665
	c4.866,3.65,12.023,0.045,12.023-6.012V440.36c0-1.158-0.276-2.325-0.794-3.361l-23.253-46.508V196.885
	c0-4.15-3.364-7.515-7.515-7.515s-7.515,3.365-7.515,7.515v195.382c0,1.167,0.272,2.318,0.794,3.361l18.608,37.219H75.784
	l18.608-37.219c0.522-1.043,0.794-2.193,0.794-3.361V119.734c0-1.167-0.272-2.318-0.794-3.361L75.784,79.155h360.433l-18.608,37.219
	C417.086,117.417,416.814,118.567,416.814,119.734z M440.861,447.875v41.581l-20.039-15.029c-2.671-2.004-6.346-2.004-9.018,0
	l-27.554,20.665l-27.554-20.665c-1.336-1.002-2.923-1.503-4.509-1.503c-1.586,0-3.173,0.501-4.509,1.503l-27.554,20.665
	l-27.554-20.665c-2.671-2.004-6.346-2.004-9.018,0L256,495.092l-27.554-20.665c-2.671-2.004-6.346-2.004-9.018,0l-27.554,20.665
	l-27.554-20.665c-2.671-2.004-6.346-2.004-9.018,0l-27.554,20.665l-27.554-20.665c-2.671-2.004-6.346-2.004-9.018,0l-20.039,15.029
	v-41.581H440.861z M71.139,64.125V22.544l20.039,15.029c2.671,2.004,6.346,2.004,9.018,0l27.554-20.665l27.554,20.665
	c2.671,2.004,6.346,2.004,9.018,0l27.554-20.665l27.554,20.665c2.671,2.004,6.346,2.004,9.018,0L256,16.908l27.554,20.665
	c2.671,2.004,6.346,2.004,9.018,0l27.554-20.665l27.554,20.665c2.671,2.004,6.346,2.004,9.018,0l27.554-20.665l27.554,20.665
	c2.671,2.004,6.346,2.004,9.018,0l20.039-15.029v41.581H71.139z"/>
<path d="M344.554,257.424c7.476-7.475,11.593-17.413,11.593-27.986c0-10.572-4.117-20.51-11.593-27.986
	c-6.19-6.19-14.216-10.101-22.769-11.238c-1.137-8.553-5.048-16.579-11.238-22.769c-7.476-7.476-17.414-11.592-27.986-11.592
	c-10.572,0-20.511,4.116-27.987,11.592c-13.615,13.615-15.218,34.762-4.807,50.151l-35.723,35.723
	c-6.492-4.409-14.15-6.779-22.17-6.779c-10.572,0-20.51,4.117-27.985,11.593c-7.476,7.475-11.593,17.413-11.593,27.986
	c0,10.572,4.117,20.51,11.592,27.986c6.19,6.19,14.216,10.101,22.769,11.238c1.138,8.554,5.048,16.579,11.239,22.769
	c7.715,7.715,17.85,11.573,27.986,11.573c10.134,0,20.269-3.858,27.985-11.573c7.476-7.475,11.593-17.414,11.593-27.986
	c0-8.021-2.371-15.679-6.779-22.171l35.722-35.723C309.791,272.639,330.939,271.039,344.554,257.424z M288.584,246.796
	L243.24,292.14c-2.893,2.893-2.894,7.735,0.001,10.627c4.636,4.636,7.19,10.801,7.19,17.358s-2.554,12.722-7.19,17.358
	c-9.572,9.569-25.145,9.572-34.716,0c-4.975-4.974-7.575-11.864-7.134-18.904c0.28-4.449-3.525-8.246-7.97-7.97
	c-7.036,0.44-13.93-2.16-18.903-7.134c-9.463-9.462-9.463-25.253,0-34.716c9.461-9.462,25.252-9.462,34.714,0
	c2.894,2.894,7.734,2.893,10.628,0l45.344-45.344c2.935-2.935,2.935-7.692,0-10.627c-9.572-9.572-9.572-25.145,0-34.716
	c9.462-9.463,25.254-9.461,34.716,0c4.975,4.974,7.575,11.864,7.133,18.903c-0.28,4.449,3.524,8.247,7.97,7.971
	c7.035-0.438,13.93,2.16,18.904,7.134c9.464,9.462,9.464,25.253,0,34.716c-9.569,9.571-25.145,9.573-34.715,0
	C296.276,243.862,291.518,243.862,288.584,246.796z"/>
<circle cx="282.211" cy="195.081" r="7.515"/>
<circle cx="254.928" cy="257.773" r="7.515"/>
<circle cx="315.857" cy="229.438" r="7.515"/>
<circle cx="191.875" cy="285.407" r="7.515"/>
<circle cx="225.53" cy="319.775" r="7.515"/>
<path d="M279.546,119.734c0-12.983-10.563-23.546-23.546-23.546s-23.546,10.563-23.546,23.546S243.017,143.28,256,143.28
	S279.546,132.717,279.546,119.734z M247.483,119.734c0-4.696,3.82-8.517,8.517-8.517s8.517,3.82,8.517,8.517
	s-3.82,8.517-8.517,8.517C251.304,128.25,247.483,124.43,247.483,119.734z"/>
<path d="M336.157,96.188c-12.983,0-23.546,10.563-23.546,23.546s10.563,23.546,23.546,23.546s23.546-10.563,23.546-23.546
	S349.14,96.188,336.157,96.188z M336.157,128.25c-4.696,0-8.517-3.82-8.517-8.517s3.82-8.517,8.517-8.517
	c4.696,0,8.517,3.82,8.517,8.517S340.853,128.25,336.157,128.25z"/>
<path d="M199.389,119.734c0-12.983-10.563-23.546-23.546-23.546s-23.546,10.563-23.546,23.546s10.563,23.546,23.546,23.546
	S199.389,132.717,199.389,119.734z M167.327,119.734c0-4.696,3.82-8.517,8.517-8.517s8.517,3.82,8.517,8.517
	s-3.82,8.517-8.517,8.517S167.327,124.43,167.327,119.734z"/>
<path d="M232.454,392.266c0,12.983,10.563,23.546,23.546,23.546s23.546-10.563,23.546-23.546S268.983,368.72,256,368.72
	S232.454,379.283,232.454,392.266z M264.517,392.266c0,4.696-3.82,8.517-8.517,8.517c-4.696,0-8.517-3.82-8.517-8.517
	c0-4.696,3.82-8.517,8.517-8.517S264.517,387.57,264.517,392.266z"/>
<path d="M336.157,415.812c12.983,0,23.546-10.563,23.546-23.546s-10.563-23.546-23.546-23.546s-23.546,10.563-23.546,23.546
	S323.173,415.812,336.157,415.812z M336.157,383.75c4.696,0,8.517,3.82,8.517,8.517c0,4.696-3.82,8.517-8.517,8.517
	c-4.696,0-8.517-3.82-8.517-8.517C327.64,387.57,331.46,383.75,336.157,383.75z"/>
<path d="M175.843,368.72c-12.983,0-23.546,10.563-23.546,23.546s10.563,23.546,23.546,23.546s23.546-10.563,23.546-23.546
	S188.827,368.72,175.843,368.72z M175.843,400.783c-4.696,0-8.517-3.82-8.517-8.517c0-4.696,3.82-8.517,8.517-8.517
	s8.517,3.82,8.517,8.517C184.36,396.962,180.54,400.783,175.843,400.783z"/>
<g>
</g>
<g>
</g>
<g>
</g>
<g>
</g>
<g>
</g>
<g>
</g>
<g>
</g>
<g>
</g>
<g>
</g>
<g>
</g>
<g>
</g>
<g>
</g>
<g>
</g>
<g>
</g>
<g>
</g>
</svg>
