<?xml version="1.0" encoding="iso-8859-1"?>
<!-- Generator: Adobe Illustrator 19.0.0, SVG Export Plug-In . SVG Version: 6.00 Build 0)  -->
<svg version="1.1" id="Capa_1" xmlns="http://www.w3.org/2000/svg" xmlns:xlink="http://www.w3.org/1999/xlink" x="0px" y="0px"
	 viewBox="0 0 512 512" style="enable-background:new 0 0 512 512;" xml:space="preserve">
<circle style="fill:#EEEEEC;" cx="256.404" cy="256.403" r="136.481"/>
<path style="fill:#F17E97;" d="M352.911,159.896L159.898,352.91c53.299,53.299,139.714,53.299,193.013,0
	S406.21,213.196,352.911,159.896z"/>
<path style="fill:#EE6482;" d="M213.923,339.193l157.028-157.028c-5.12-7.882-11.127-15.356-18.041-22.268L159.898,352.91
	c38.484,38.484,94.23,49.174,142.311,32.085c-31.5-0.542-62.847-11.918-87.969-34.139
	C210.789,347.803,210.665,342.452,213.923,339.193z"/>
<path style="fill:#EEEEEC;" d="M169.235,490.365L169.235,490.365c-18.811,18.811-49.311,18.811-68.122,0l-79.476-79.476
	c-18.811-18.811-18.811-49.311,0-68.122l0,0c18.811-18.811,49.311-18.811,68.122,0l79.476,79.476
	C188.046,441.054,188.046,471.553,169.235,490.365z"/>
<path style="fill:#DEDED9;" d="M117.168,475.115l-19.343-19.343c-3.135-3.135-3.135-8.219,0-11.354l46.792-46.792l-15.387-15.387
	l-68.122,68.122l40.004,40.004c18.811,18.811,49.311,18.811,68.122,0l0,0c2.389-2.389,4.473-4.97,6.255-7.689
	C157.045,493.443,132.979,490.926,117.168,475.115z"/>
<path style="fill:#A38DCE;" d="M89.759,342.767c-18.811-18.811-49.311-18.811-68.122,0l0,0c-18.811,18.811-18.811,49.311,0,68.122
	l39.738,39.738l68.122-68.122L89.759,342.767z"/>
<path style="fill:#EEEEEC;" d="M342.767,21.635L342.767,21.635c18.811-18.811,49.311-18.811,68.122,0l79.476,79.476
	c18.811,18.811,18.811,49.311,0,68.122l0,0c-18.811,18.811-49.311,18.811-68.122,0l-79.476-79.476
	C323.956,70.946,323.956,40.447,342.767,21.635z"/>
<path style="fill:#A38DCE;" d="M422.243,169.233c18.811,18.811,49.311,18.811,68.122,0l0,0c18.811-18.811,18.811-49.311,0-68.122
	l-39.737-39.738l-68.122,68.122L422.243,169.233z"/>
<path style="fill:#8C70C2;" d="M439.107,153.984l-20.356-20.356c-3.135-3.135-3.135-8.219,0-11.354l46.388-46.388l-14.511-14.512
	l-68.122,68.122l39.738,39.738c18.811,18.811,49.311,18.811,68.122,0c2.175-2.175,4.086-4.511,5.758-6.962
	C477.86,172.181,454.548,169.425,439.107,153.984z"/>
<path d="M154.576,154.575c-56.149,56.149-56.149,147.509,0,203.657c28.074,28.075,64.952,42.111,101.829,42.111
	c36.878,0,73.755-14.036,101.83-42.111c56.147-56.149,56.147-147.509,0-203.657C302.085,98.426,210.724,98.426,154.576,154.575z
	 M347.589,347.588c-24.357,24.357-56.739,37.77-91.185,37.77c-31.924,0-62.072-11.529-85.705-32.606l131.838-131.837
	c2.939-2.939,2.939-7.705,0-10.644c-2.94-2.939-7.705-2.939-10.645,0L160.055,342.108c-21.076-23.633-32.606-53.781-32.606-85.705
	c0-34.445,13.413-66.828,37.77-91.184s56.74-37.77,91.184-37.77c31.924,0,62.072,11.529,85.705,32.606l-26.633,26.633
	c-2.74,2.74-2.922,7.267-0.399,10.212c2.815,3.288,7.983,3.492,11.045,0.432l26.631-26.631
	C397.797,221.278,396.081,299.096,347.589,347.588z"/>
<path d="M95.081,337.445c-10.52-10.52-24.506-16.314-39.384-16.314s-28.864,5.793-39.383,16.314
	C5.795,347.965,0.001,361.95,0.001,376.828c0,14.877,5.793,28.864,16.313,39.383l79.476,79.476
	C106.309,506.206,120.296,512,135.174,512c14.876,0,28.864-5.793,39.383-16.313c10.519-10.52,16.313-24.506,16.313-39.383
	c0-14.877-5.793-28.864-16.313-39.384L95.081,337.445z M15.054,376.828c0-10.856,4.228-21.062,11.904-28.739
	c11.973-11.973,30.696-15.286,46.036-8.063c4.246,1.999,8.125,4.747,11.442,8.063l34.416,34.416l-57.479,57.479l-34.416-34.416
	C19.281,397.89,15.054,387.684,15.054,376.828z M163.912,485.043c-11.973,11.973-30.696,15.286-46.036,8.063
	c-4.246-1.999-8.125-4.747-11.442-8.063l-34.416-34.416l57.479-57.479l34.416,34.416c11.973,11.973,15.286,30.696,8.063,46.036
	C169.977,477.847,167.23,481.726,163.912,485.043z"/>
<path d="M495.688,95.79l-79.475-79.476C405.693,5.793,391.707,0,376.828,0s-28.865,5.793-39.384,16.313
	c-10.519,10.519-16.313,24.505-16.313,39.383s5.792,28.864,16.313,39.383l79.476,79.476c10.52,10.519,24.506,16.312,39.383,16.312
	c14.877,0,28.864-5.793,39.384-16.312c10.519-10.519,16.312-24.506,16.312-39.384C512.001,120.296,506.207,106.309,495.688,95.79z
	 M336.185,55.696c0-10.856,4.228-21.062,11.904-28.739c11.973-11.973,30.696-15.286,46.036-8.063
	c4.245,1.999,8.125,4.747,11.442,8.063l34.415,34.416l-57.478,57.479l-34.416-34.416C340.413,76.758,336.185,66.552,336.185,55.696z
	 M485.043,163.912c-11.972,11.972-30.695,15.285-46.035,8.063c-4.245-1.999-8.125-4.747-11.442-8.063l-34.416-34.416l57.478-57.478
	l34.415,34.415c11.973,11.973,15.286,30.696,8.063,46.036C491.108,156.715,488.36,160.594,485.043,163.912z"/>
<g>
</g>
<g>
</g>
<g>
</g>
<g>
</g>
<g>
</g>
<g>
</g>
<g>
</g>
<g>
</g>
<g>
</g>
<g>
</g>
<g>
</g>
<g>
</g>
<g>
</g>
<g>
</g>
<g>
</g>
</svg>
