<?xml version="1.0" encoding="iso-8859-1"?>
<!-- Generator: Adobe Illustrator 19.0.0, SVG Export Plug-In . SVG Version: 6.00 Build 0)  -->
<svg version="1.1" id="Capa_1" xmlns="http://www.w3.org/2000/svg" xmlns:xlink="http://www.w3.org/1999/xlink" x="0px" y="0px"
	 viewBox="0 0 512 512" style="enable-background:new 0 0 512 512;" xml:space="preserve">
<path style="fill:#EEEEEC;" d="M448.376,103.201c-1.174-17.494,15.028-56.464,27.185-83.661c3.336-7.464-5.324-14.543-11.976-9.792
	l-47.271,37.344L369.522,9.508c-2.787-1.991-6.531-1.991-9.318,0L312.11,47.092l-51.3-37.473c-2.85-2.137-6.769-2.137-9.619,0
	l-51.3,37.473L151.796,9.508c-2.787-1.991-6.531-1.991-9.318,0L95.687,47.092L48.416,9.748c-6.652-4.751-15.313,2.329-11.976,9.792
	c12.157,27.196,28.359,66.166,27.185,83.661c-3.577,53.285-56.11,71.139-56.11,168.329c0,137.235,111.25,232.454,248.485,232.454
	s248.485-95.219,248.485-232.454C504.485,174.34,451.953,156.487,448.376,103.201z"/>
<path style="fill:#DEDED9;" d="M448.376,103.201c-1.174-17.494,15.028-56.464,27.185-83.661c3.336-7.464-5.324-14.543-11.976-9.792
	l-36.716,28.781c-9.977,24.126-19.48,51.131-18.571,64.672c3.577,53.285,56.11,71.139,56.11,168.329
	c0,130.488-100.583,222.982-228.446,231.762c6.611,0.454,13.292,0.692,20.039,0.692c137.235,0,248.485-95.219,248.485-232.454
	C504.485,174.34,451.953,156.487,448.376,103.201z"/>
<path style="fill:#98E8F4;" d="M41.004,159.645C25.396,185.129,7.515,214.825,7.515,271.53
	c0,137.235,111.25,232.454,248.485,232.454s248.485-95.219,248.485-232.454c0-56.704-17.881-86.4-33.489-111.886L41.004,159.645
	L41.004,159.645z"/>
<path style="fill:#75E0F1;" d="M470.996,159.645h-40.078c15.608,25.485,33.489,55.181,33.489,111.886
	c0,130.488-100.583,222.982-228.446,231.762c6.611,0.454,13.292,0.692,20.039,0.692c137.235,0,248.485-95.219,248.485-232.454
	C504.485,214.825,486.604,185.129,470.996,159.645z"/>
<g>
	<circle style="fill:#3DC9D9;" cx="223.607" cy="375.403" r="24.047"/>
	<circle style="fill:#3DC9D9;" cx="135.765" cy="246.812" r="30.059"/>
	<circle style="fill:#3DC9D9;" cx="375.564" cy="320.295" r="30.059"/>
</g>
<path d="M476.983,155.031c-10.604-17.311-19.762-32.26-21.108-52.332c-0.802-11.941,8.13-38.888,26.548-80.091
	c2.9-6.486,1.152-13.864-4.345-18.36c-5.5-4.498-13.079-4.743-18.859-0.613c-0.098,0.07-0.195,0.143-0.291,0.218l-42.574,33.633
	L374.228,3.65c-0.11-0.088-0.223-0.174-0.339-0.257c-5.399-3.857-12.654-3.857-18.053,0c-0.088,0.063-0.174,0.127-0.259,0.193
	l-43.619,34.087L265.318,3.607c-5.487-4.114-13.15-4.115-18.559-0.056l-46.716,34.123L156.424,3.587
	c-0.085-0.066-0.171-0.131-0.26-0.193c-5.4-3.857-12.655-3.857-18.053,0c-0.115,0.082-0.228,0.167-0.339,0.257L95.648,37.484
	L53.075,3.851c-0.095-0.075-0.192-0.147-0.292-0.218c-5.781-4.13-13.36-3.883-18.86,0.614c-5.498,4.496-7.244,11.874-4.345,18.36
	c18.418,41.201,27.349,68.148,26.548,80.091c-1.347,20.072-10.505,35.022-21.108,52.332C19.416,180.499,0,212.197,0,271.53
	c0,67.528,26.719,129.054,75.234,173.245c47.237,43.027,111.435,66.723,180.766,66.723s133.529-23.696,180.766-66.723
	C485.281,400.584,512,339.058,512,271.53C512,212.197,492.584,180.499,476.983,155.031z M256,496.47
	c-137.375,0-240.971-96.704-240.971-224.939c0-51.994,15.52-80.257,30.19-104.371h302.627c4.15,0,7.515-3.365,7.515-7.515
	s-3.365-7.515-7.515-7.515H54.314c8.491-14.526,15.528-29.364,16.808-48.426c0.995-14.823-7.846-42.541-27.823-87.231
	c-0.107-0.24-0.157-0.351,0.138-0.592c0.139-0.113,0.233-0.158,0.319-0.158c0.062,0,0.118,0.024,0.182,0.064l47.091,37.201
	c2.748,2.171,6.633,2.155,9.364-0.038l46.527-37.37c0.144-0.069,0.314-0.066,0.455,0.009l47.89,37.424
	c2.647,2.068,6.345,2.129,9.06,0.146l51.375-37.528c0.176-0.133,0.423-0.132,0.677,0.056l51.3,37.473
	c2.713,1.982,6.412,1.921,9.06-0.146l47.89-37.424c0.142-0.075,0.312-0.078,0.455-0.009l46.527,37.37
	c2.731,2.193,6.616,2.209,9.364,0.038l47.091-37.201c0.147-0.093,0.258-0.103,0.5,0.093c0.296,0.241,0.246,0.352,0.138,0.592
	c-19.977,44.691-28.817,72.409-27.823,87.231c1.28,19.061,8.317,33.899,16.808,48.426h-73.102c-4.15,0-7.515,3.365-7.515,7.515
	s3.365,7.515,7.515,7.515h82.197c14.67,24.114,30.19,52.377,30.19,104.371C496.971,399.766,393.375,496.47,256,496.47z"/>
<path d="M376.235,280.047c-21.823,0-39.577,17.755-39.577,39.577c0,21.823,17.755,39.577,39.577,39.577s39.577-17.755,39.577-39.577
	C415.812,297.802,398.057,280.047,376.235,280.047z M376.235,344.172c-13.535,0-24.548-11.013-24.548-24.548
	s11.013-24.548,24.548-24.548s24.548,11.011,24.548,24.548C400.783,333.161,389.77,344.172,376.235,344.172z"/>
<path d="M135.765,207.906c-21.823,0-39.577,17.755-39.577,39.577c0,21.823,17.755,39.577,39.577,39.577s39.577-17.755,39.577-39.577
	C175.342,225.661,157.588,207.906,135.765,207.906z M135.765,272.031c-13.535,0-24.548-11.013-24.548-24.548
	c0-13.535,11.013-24.548,24.548-24.548s24.548,11.012,24.548,24.548S149.301,272.031,135.765,272.031z"/>
<path d="M223.937,344.172c-17.403,0-31.562,14.159-31.562,31.562s14.159,31.562,31.562,31.562s31.562-14.159,31.562-31.562
	S241.34,344.172,223.937,344.172z M223.937,392.266c-9.116,0-16.532-7.417-16.532-16.532c0-9.116,7.416-16.532,16.532-16.532
	s16.532,7.415,16.532,16.532C240.47,384.851,233.053,392.266,223.937,392.266z"/>
<circle cx="296.078" cy="247.483" r="7.515"/>
<circle cx="104.204" cy="344.172" r="7.515"/>
<circle cx="375.734" cy="424.329" r="7.515"/>
<circle cx="431.843" cy="207.906" r="7.515"/>
<circle cx="200.391" cy="190.873" r="7.515"/>
<circle cx="240.47" cy="464.407" r="7.515"/>
<g>
</g>
<g>
</g>
<g>
</g>
<g>
</g>
<g>
</g>
<g>
</g>
<g>
</g>
<g>
</g>
<g>
</g>
<g>
</g>
<g>
</g>
<g>
</g>
<g>
</g>
<g>
</g>
<g>
</g>
</svg>
