<?xml version="1.0" encoding="iso-8859-1"?>
<!-- Generator: Adobe Illustrator 19.0.0, SVG Export Plug-In . SVG Version: 6.00 Build 0)  -->
<svg version="1.1" id="Capa_1" xmlns="http://www.w3.org/2000/svg" xmlns:xlink="http://www.w3.org/1999/xlink" x="0px" y="0px"
	 viewBox="0 0 512 512" style="enable-background:new 0 0 512 512;" xml:space="preserve">
<path style="fill:#AED45B;" d="M472.423,504.485H39.577c-17.708,0-32.063-14.355-32.063-32.063V135.765
	c0-17.708,14.355-32.063,32.063-32.063h432.845c17.708,0,32.063,14.355,32.063,32.063v336.658
	C504.485,490.13,490.13,504.485,472.423,504.485z"/>
<path style="fill:#9AC932;" d="M472.423,103.703H39.577c-17.708,0-32.063,14.355-32.063,32.063v152.297h448.877
	c8.854,0,16.031,7.177,16.031,16.031v168.329c0,17.708-14.355,32.063-32.063,32.063h32.063c17.708,0,32.063-14.355,32.063-32.063
	V135.765C504.485,118.058,490.13,103.703,472.423,103.703z"/>
<path style="fill:#AED45B;" d="M504.485,264.016H7.515v-128.25c0-17.708,14.355-32.063,32.063-32.063h432.845
	c17.708,0,32.063,14.355,32.063,32.063V264.016z"/>
<path style="fill:#FDC572;" d="M352.188,55.609H159.812V23.546c0-8.854,7.177-16.031,16.031-16.031h160.313
	c8.854,0,16.031,7.177,16.031,16.031V55.609z"/>
<polygon style="fill:#FFFFFF;" points="304.094,167.828 272.031,167.828 272.031,135.765 239.969,135.765 239.969,167.828 
	207.906,167.828 207.906,199.89 239.969,199.89 239.969,231.953 272.031,231.953 272.031,199.89 304.094,199.89 "/>
<g>
	<rect x="95.687" y="264.016" style="fill:#DEDED9;" width="64.125" height="32.063"/>
	<rect x="352.188" y="264.016" style="fill:#DEDED9;" width="64.125" height="32.063"/>
</g>
<g>
	<path style="fill:#7A7A69;" d="M201.894,426.333c0-29.881,24.224-54.106,54.106-54.106s54.106,24.224,54.106,54.106
		c0,29.881-24.224,42.082-54.106,42.082S201.894,456.214,201.894,426.333z"/>
	<path style="fill:#7A7A69;" d="M207.906,336.157c0-9.96,8.075-24.047,18.035-24.047s18.035,14.086,18.035,24.047
		c0,9.96-8.075,18.035-18.035,18.035S207.906,346.117,207.906,336.157z"/>
	<path style="fill:#7A7A69;" d="M268.023,336.157c0-9.96,8.075-24.047,18.035-24.047c9.96,0,18.035,14.086,18.035,24.047
		c0,9.96-8.075,18.035-18.035,18.035C276.098,354.192,268.023,346.117,268.023,336.157z"/>
	<path style="fill:#7A7A69;" d="M316.117,372.227c0-9.96,8.075-24.047,18.035-24.047c9.96,0,18.035,14.087,18.035,24.047
		c0,9.96-8.075,18.035-18.035,18.035C324.192,390.262,316.117,382.187,316.117,372.227z"/>
	<path style="fill:#7A7A69;" d="M159.812,372.227c0-9.96,8.075-24.047,18.035-24.047s18.035,14.087,18.035,24.047
		c0,9.96-8.075,18.035-18.035,18.035S159.812,382.187,159.812,372.227z"/>
</g>
<path d="M472.423,96.188h-112.72V23.546C359.703,10.563,349.14,0,336.157,0H175.843c-12.983,0-23.546,10.563-23.546,23.546v72.642
	H39.577C17.755,96.188,0,113.943,0,135.765v336.658C0,494.245,17.755,512,39.577,512h340.332c4.15,0,7.515-3.365,7.515-7.515
	s-3.365-7.515-7.515-7.515H39.577c-13.535,0-24.548-11.013-24.548-24.548V271.53h73.143v24.548c0,4.15,3.365,7.515,7.515,7.515
	h64.125c4.15,0,7.515-3.365,7.515-7.515V271.53h177.346v24.548c0,4.15,3.365,7.515,7.515,7.515h64.125
	c4.15,0,7.515-3.365,7.515-7.515V271.53h73.143v200.892c0,13.535-11.013,24.548-24.548,24.548h-55.776
	c-4.15,0-7.515,3.365-7.515,7.515s3.365,7.515,7.515,7.515h55.776C494.245,512,512,494.245,512,472.423V135.765
	C512,113.943,494.245,96.188,472.423,96.188z M167.327,23.546c0-4.696,3.82-8.517,8.517-8.517h160.313
	c4.696,0,8.517,3.82,8.517,8.517v24.548H167.327V23.546z M167.327,63.123h177.346v33.065H167.327V63.123z M152.297,288.564h-49.096
	V271.53h49.096V288.564z M408.798,288.564h-49.096V271.53h49.096V288.564z M15.029,256.501V135.765
	c0-13.535,11.013-24.548,24.548-24.548h432.845c13.535,0,24.548,11.013,24.548,24.548v120.736H15.029z"/>
<path d="M304.094,160.313h-24.548v-24.548c0-4.15-3.365-7.515-7.515-7.515h-32.063c-4.15,0-7.515,3.365-7.515,7.515v24.548h-24.548
	c-4.15,0-7.515,3.365-7.515,7.515v32.063c0,4.15,3.365,7.515,7.515,7.515h24.548v24.548c0,4.15,3.365,7.515,7.515,7.515h32.063
	c4.15,0,7.515-3.365,7.515-7.515v-24.548h24.548c4.15,0,7.515-3.365,7.515-7.515v-32.063
	C311.609,163.678,308.244,160.313,304.094,160.313z M296.579,192.376h-24.548c-4.15,0-7.515,3.365-7.515,7.515v24.548h-17.033
	V199.89c0-4.15-3.365-7.515-7.515-7.515h-24.548v-17.033h24.548c4.15,0,7.515-3.365,7.515-7.515V143.28h17.033v24.548
	c0,4.15,3.365,7.515,7.515,7.515h24.548V192.376z"/>
<path d="M256,475.93c38.584,0,61.62-18.541,61.62-49.597c0-33.977-27.643-61.62-61.62-61.62s-61.62,27.643-61.62,61.62
	C194.38,457.388,217.416,475.93,256,475.93z M256,379.742c25.69,0,46.591,20.901,46.591,46.591
	c0,30.077-29.191,34.568-46.591,34.568s-46.591-4.491-46.591-34.568C209.409,400.642,230.31,379.742,256,379.742z"/>
<path d="M225.941,361.706c14.089,0,25.55-11.461,25.55-25.55c0-12.566-10.19-31.562-25.55-31.562s-25.55,18.996-25.55,31.562
	C200.391,350.245,211.853,361.706,225.941,361.706z M225.941,319.624c4.523,0,10.521,9.425,10.521,16.532
	c0,5.801-4.719,10.521-10.521,10.521c-5.801,0-10.521-4.719-10.521-10.521C215.421,329.05,221.418,319.624,225.941,319.624z"/>
<path d="M311.609,336.157c0-12.566-10.19-31.562-25.55-31.562s-25.55,18.996-25.55,31.562c0,14.089,11.461,25.55,25.55,25.55
	C300.147,361.706,311.609,350.245,311.609,336.157z M275.538,336.157c0-7.107,5.998-16.532,10.521-16.532
	c4.523,0,10.521,9.425,10.521,16.532c0,5.801-4.719,10.521-10.521,10.521C280.257,346.677,275.538,341.958,275.538,336.157z"/>
<path d="M359.703,372.227c0-12.566-10.19-31.562-25.55-31.562s-25.55,18.996-25.55,31.562c0,14.089,11.461,25.55,25.55,25.55
	C348.241,397.777,359.703,386.316,359.703,372.227z M323.632,372.227c0-7.107,5.998-16.532,10.521-16.532
	c4.523,0,10.521,9.425,10.521,16.532c0,5.801-4.719,10.521-10.521,10.521C328.351,382.748,323.632,378.028,323.632,372.227z"/>
<path d="M177.847,340.665c-15.36,0-25.55,18.996-25.55,31.562c0,14.089,11.461,25.55,25.55,25.55c14.089,0,25.55-11.461,25.55-25.55
	C203.397,359.661,193.207,340.665,177.847,340.665z M177.847,382.748c-5.801,0-10.521-4.719-10.521-10.521
	c0-7.107,5.998-16.532,10.521-16.532s10.521,9.425,10.521,16.532C188.368,378.028,183.649,382.748,177.847,382.748z"/>
<g>
</g>
<g>
</g>
<g>
</g>
<g>
</g>
<g>
</g>
<g>
</g>
<g>
</g>
<g>
</g>
<g>
</g>
<g>
</g>
<g>
</g>
<g>
</g>
<g>
</g>
<g>
</g>
<g>
</g>
</svg>
