<?xml version="1.0" encoding="iso-8859-1"?>
<!-- Generator: Adobe Illustrator 19.0.0, SVG Export Plug-In . SVG Version: 6.00 Build 0)  -->
<svg version="1.1" id="Capa_1" xmlns="http://www.w3.org/2000/svg" xmlns:xlink="http://www.w3.org/1999/xlink" x="0px" y="0px"
	 viewBox="0 0 512.001 512.001" style="enable-background:new 0 0 512.001 512.001;" xml:space="preserve">
<path style="fill:#DEDED9;" d="M252.155,43.572L124.482,383.125c-6.276-9.136-15.304-16.517-26.466-20.713
	c-29.006-10.906-61.361,3.766-72.267,32.772c-10.906,29.006,3.766,61.361,32.772,72.267
	c82.531,31.032,109.842-87.152,169.084-244.712C261.458,132.706,252.155,43.572,252.155,43.572z M66.984,444.943
	c-16.574-6.232-24.959-24.721-18.727-41.296c6.232-16.574,24.721-24.959,41.296-18.727s24.959,24.72,18.727,41.296
	C102.048,442.791,83.559,451.175,66.984,444.943z"/>
<path style="fill:#CDCDC7;" d="M178.428,239.652l-50.382,133.995l20.244,48.439c17.585-30.501,33.455-73.122,51.469-123.017
	L178.428,239.652z"/>
<path style="fill:#DEDED9;" d="M100.055,222.74c59.243,157.559,86.553,275.744,169.084,244.712
	c29.006-10.906,43.678-43.262,32.772-72.267c-10.906-29.006-43.261-43.678-72.267-32.772c-11.162,4.197-20.189,11.578-26.466,20.713
	L75.505,43.572C75.505,43.572,66.202,132.706,100.055,222.74z M219.38,426.216c-6.232-16.574,2.152-35.063,18.727-41.296
	s35.063,2.152,41.296,18.727c6.232,16.574-2.152,35.063-18.727,41.296S225.612,442.791,219.38,426.216z"/>
<path style="fill:#F498AC;" d="M425.361,312.11c4.015-42.196,64.515-64.125,64.515-160.313c0-79.685-43.065-144.282-96.188-144.282
	s-96.188,64.597-96.188,144.282c0,96.188,60.5,118.117,64.515,160.313c7.626,80.157-16.421,104.204-16.421,144.282
	c0,32.063,21.532,48.094,48.094,48.094s48.094-16.031,48.094-48.094C441.782,416.313,417.735,392.266,425.361,312.11z"/>
<path style="fill:#F17E97;" d="M425.361,312.11c4.015-42.196,64.515-64.125,64.515-160.313c0-79.685-43.065-144.282-96.188-144.282
	c-4.072,0-8.085,0.384-12.023,1.12c47.448,8.875,84.164,69.585,84.164,143.162c0,96.188-60.5,118.117-64.515,160.313
	c-7.626,80.157,16.421,104.204,16.421,144.282c0,27.051-15.327,42.69-36.07,46.919c3.842,0.784,7.871,1.175,12.023,1.175
	c26.562,0,48.094-16.031,48.094-48.094C441.782,416.313,417.735,392.266,425.361,312.11z"/>
<ellipse style="fill:#DEDED9;" cx="393.689" cy="151.796" rx="64.125" ry="112.219"/>
<path style="fill:#CDCDC7;" d="M393.688,39.577c-4.11,0-8.129,0.685-12.023,1.978c29.668,9.85,52.102,55.457,52.102,110.241
	s-22.434,100.391-52.102,110.241c3.895,1.294,7.913,1.978,12.023,1.978c35.415,0,64.125-50.242,64.125-112.219
	S429.104,39.577,393.688,39.577z"/>
<path style="fill:#FDC572;" d="M425.225,368.219c-1.445-13.459-1.905-29.126-0.533-48.094h-62.007
	c1.372,18.968,0.912,34.635-0.533,48.094H425.225z"/>
<path style="fill:#FCB74F;" d="M424.692,320.125h-24.047c-1.372,18.968-0.912,34.635,0.533,48.094h24.047
	C423.78,354.76,423.32,339.093,424.692,320.125z"/>
<path d="M92.198,377.886c-20.43-7.682-43.293,2.69-50.975,23.116c-7.68,20.427,2.69,43.294,23.116,50.975
	c4.533,1.704,9.246,2.554,13.947,2.553c5.563,0,11.111-1.188,16.328-3.554c9.627-4.367,16.978-12.22,20.698-22.115
	c3.721-9.895,3.366-20.646-1-30.275C109.947,388.959,102.093,381.607,92.198,377.886z M101.245,423.571
	c-2.308,6.137-6.867,11.01-12.838,13.717c-5.971,2.708-12.639,2.929-18.778,0.621c-12.67-4.763-19.101-18.947-14.338-31.617
	c3.697-9.833,13.07-15.909,23.004-15.909c2.865,0,5.777,0.505,8.613,1.571c6.138,2.308,11.01,6.867,13.717,12.839
	C103.333,410.764,103.554,417.433,101.245,423.571z"/>
<path d="M226.999,355.378c-7.977,2.999-15.162,7.494-21.246,13.24l-11.879-31.594c5.679-15.207,11.451-31.227,17.554-48.169
	c7.342-20.382,14.935-41.458,23.212-63.472c34.086-90.652,25.377-178.88,24.99-182.593c-0.353-3.375-3.021-6.159-6.377-6.653
	c-3.461-0.509-6.899,1.514-8.132,4.788l-81.291,216.196L82.539,40.928c-1.231-3.27-4.675-5.297-8.132-4.788
	c-3.357,0.495-6.025,3.278-6.377,6.653c-0.387,3.711-9.094,91.94,24.99,182.592c8.279,22.018,15.873,43.098,23.216,63.484
	c6.097,16.925,11.895,33.019,17.547,48.166l-11.875,31.584c-6.085-5.746-13.271-10.241-21.247-13.24
	c-15.906-5.981-33.192-5.41-48.669,1.609s-27.295,19.644-33.277,35.551s-5.41,33.192,1.608,48.669
	c7.02,15.477,19.645,27.295,35.552,33.277c9.921,3.731,19.068,5.429,27.546,5.428c37.503-0.005,61.746-33.267,80.39-70.933
	c16.148,32.554,33.318,55.359,55.101,65.42c8.048,3.717,16.412,5.575,25.22,5.575c8.74,0,17.917-1.831,27.651-5.49
	c32.838-12.347,49.509-49.108,37.163-81.946C296.599,359.701,259.833,343.032,226.999,355.378z M172.392,277.058L245.68,82.144
	c-0.697,33.8-5.539,85.903-25.11,137.95c-8.313,22.111-15.924,43.237-23.283,63.667c-3.951,10.968-7.763,21.551-11.497,31.765
	l-14-37.236C172.021,277.905,172.228,277.496,172.392,277.058z M61.166,460.418c-12.15-4.569-21.794-13.595-27.155-25.417
	s-5.797-25.023-1.228-37.173c9.429-25.081,37.509-37.813,62.588-28.383c9.346,3.515,17.271,9.717,22.917,17.935
	c3.375,4.914,11.133,3.964,13.228-1.61l10.349-27.524c4.588,11.751,9.125,22.815,13.696,33.11
	C126.032,455.439,99.465,474.815,61.166,460.418z M266.494,460.418c-15.586,5.859-29.087,5.969-41.279,0.338
	c-37.29-17.224-62.685-87.723-94.838-176.981c-7.361-20.435-14.972-41.564-23.287-63.68C87.551,168.135,82.704,116.018,81.997,82.19
	L196.145,385.77c2.097,5.572,9.852,6.523,13.228,1.61c5.646-8.219,13.571-14.421,22.916-17.935
	c25.08-9.43,53.159,3.302,62.589,28.383C304.308,422.91,291.575,450.987,266.494,460.418z"/>
<path d="M265.737,378.887c-9.628-4.366-20.38-4.721-30.275-1.001c-20.427,7.681-30.796,30.548-23.116,50.975
	c3.721,9.895,11.073,17.749,20.699,22.115c5.218,2.366,10.765,3.554,16.328,3.554c4.701,0,9.414-0.85,13.947-2.554
	c20.427-7.68,30.796-30.547,23.116-50.975C282.716,391.108,275.364,383.254,265.737,378.887z M258.03,437.909
	c-6.139,2.308-12.806,2.087-18.778-0.621c-5.972-2.708-10.532-7.58-12.838-13.717c-4.764-12.67,1.668-26.852,14.338-31.617
	c2.813-1.057,5.734-1.584,8.651-1.584c3.449,0,6.891,0.737,10.127,2.204c5.972,2.708,10.532,7.58,12.838,13.717
	C277.133,418.962,270.7,433.145,258.03,437.909z"/>
<circle cx="163.329" cy="332.549" r="7.515"/>
<path d="M431.795,326.925c0.249-4.707,0.601-9.41,1.048-14.104c1.336-14.037,10.177-25.936,21.371-41
	c19.237-25.889,43.178-58.107,43.178-120.025c0-26.268-4.619-52.139-13.359-74.812c-1.492-3.873-5.841-5.802-9.714-4.309
	c-3.873,1.493-5.802,5.842-4.309,9.714c8.081,20.967,12.353,44.968,12.353,69.407c0,56.944-22.297,86.951-40.213,111.061
	c-12.092,16.274-22.536,30.328-24.268,48.54c-0.039,0.41-0.07,0.806-0.107,1.212h-48.171c-0.037-0.407-0.068-0.804-0.107-1.212
	c-1.732-18.212-12.176-32.267-24.268-48.54c-17.916-24.11-40.213-54.117-40.213-111.061c0-37.072,9.557-71.824,26.911-97.854
	c16.73-25.092,38.664-38.911,61.763-38.911c21.944,0,43.066,12.644,59.476,35.602c2.381,3.332,7.152,4.124,10.483,1.743
	c3.332-2.381,4.124-7.152,1.743-10.483C446.083,14.877,420.618,0,393.688,0c-28.286,0-54.662,16.197-74.268,45.606
	c-18.981,28.472-29.435,66.184-29.435,106.19c0,61.917,23.942,94.137,43.178,120.025c11.194,15.064,20.035,26.963,21.371,41
	c0.443,4.653,1.048,9.427,1.048,14.105c0.766,14.434,0.466,27.736-0.902,40.491c-0.005,0.045-0.003,0.091-0.007,0.136
	c-1.916,17.719-5.605,31.557-9.048,44.451c-3.881,14.533-7.546,28.26-7.546,44.388c0,17.266,5.709,31.65,16.51,41.598
	c9.952,9.166,23.473,14.01,39.098,14.01s29.147-4.844,39.098-14.01c10.8-9.947,16.51-24.332,16.51-41.598
	c0-16.128-3.665-29.854-7.546-44.388c-3.443-12.894-7.131-26.732-9.048-44.451c-0.004-0.045-0.002-0.091-0.007-0.136
	c-1.368-12.755-1.667-26.058-0.902-40.491L431.795,326.925z M370.667,327.64h46.041c-0.101,2.094-0.166,4.19-0.233,6.285
	c-0.26,9.28-0.089,18.161,0.533,26.779h-46.64c0.622-8.619,0.794-17.501,0.533-26.783
	C370.828,331.827,370.769,329.733,370.667,327.64z M393.688,496.971c-25.409,0-40.579-15.17-40.579-40.579
	c0-14.155,3.261-26.368,7.037-40.51c3.054-11.438,6.465-24.234,8.637-40.147h49.81c2.172,15.913,5.583,28.709,8.637,40.147
	c3.776,14.142,7.037,26.355,7.037,40.51C434.268,481.801,419.097,496.971,393.688,496.971z"/>
<path d="M393.688,32.063c-19.941,0-38.361,13.017-51.868,36.655c-12.751,22.313-19.772,51.817-19.772,83.079
	s7.022,60.767,19.772,83.079c13.507,23.637,31.927,36.655,51.868,36.655s38.361-13.017,51.868-36.655
	c12.751-22.313,19.772-51.817,19.772-83.079s-7.022-60.767-19.772-83.079C432.049,45.08,413.629,32.063,393.688,32.063z
	 M393.688,256.501c-30.686,0-56.611-47.949-56.611-104.704s25.925-104.704,56.611-104.704s56.611,47.949,56.611,104.704
	S424.374,256.501,393.688,256.501z"/>
<circle cx="377.658" cy="87.17" r="7.515"/>
<circle cx="410.222" cy="87.17" r="7.515"/>
<circle cx="377.658" cy="214.92" r="7.515"/>
<circle cx="410.222" cy="214.92" r="7.515"/>
<circle cx="433.267" cy="118.732" r="7.515"/>
<circle cx="393.188" cy="118.732" r="7.515"/>
<circle cx="353.11" cy="118.732" r="7.515"/>
<circle cx="433.267" cy="151.796" r="7.515"/>
<circle cx="393.188" cy="151.796" r="7.515"/>
<circle cx="353.11" cy="151.796" r="7.515"/>
<circle cx="433.267" cy="182.857" r="7.515"/>
<circle cx="393.188" cy="182.857" r="7.515"/>
<circle cx="353.11" cy="182.857" r="7.515"/>
<g>
</g>
<g>
</g>
<g>
</g>
<g>
</g>
<g>
</g>
<g>
</g>
<g>
</g>
<g>
</g>
<g>
</g>
<g>
</g>
<g>
</g>
<g>
</g>
<g>
</g>
<g>
</g>
<g>
</g>
</svg>
