<?xml version="1.0" encoding="iso-8859-1"?>
<!-- Generator: Adobe Illustrator 19.0.0, SVG Export Plug-In . SVG Version: 6.00 Build 0)  -->
<svg version="1.1" id="Capa_1" xmlns="http://www.w3.org/2000/svg" xmlns:xlink="http://www.w3.org/1999/xlink" x="0px" y="0px"
	 viewBox="0 0 512 512" style="enable-background:new 0 0 512 512;" xml:space="preserve">
<path style="fill:#FDC572;" d="M328.141,424.329H183.859v-8.016c0-13.281,10.766-24.047,24.047-24.047h96.188
	c13.281,0,24.047,10.766,24.047,24.047V424.329z"/>
<rect x="55.609" y="456.391" style="fill:#AED45B;" width="400.783" height="48.094"/>
<rect x="55.609" y="480.108" style="fill:#9AC932;" width="400.783" height="24.381"/>
<path d="M456.391,448.877h-24.548V264.016c0-94.441-74.841-171.72-168.329-175.672V62.22c13.788-3.38,24.047-15.843,24.047-30.658
	C287.562,14.159,273.403,0,256,0s-31.562,14.159-31.562,31.562c0,4.15,3.364,7.515,7.515,7.515s7.515-3.365,7.515-7.515
	c0-9.116,7.416-16.532,16.532-16.532s16.532,7.416,16.532,16.532S265.116,48.094,256,48.094c-4.151,0-7.515,3.365-7.515,7.515
	v32.735c-93.488,3.952-168.329,81.231-168.329,175.672v184.861H55.609c-4.151,0-7.515,3.365-7.515,7.515v48.094
	c0,4.15,3.364,7.515,7.515,7.515h276.54c4.151,0,7.515-3.365,7.515-7.515s-3.364-7.515-7.515-7.515H63.123v-33.065h385.753v33.065
	h-80.324c-4.151,0-7.515,3.365-7.515,7.515s3.364,7.515,7.515,7.515h87.839c4.151,0,7.515-3.365,7.515-7.515v-48.094
	C463.906,452.241,460.543,448.877,456.391,448.877z M95.186,271.53h41.08v81.159h-41.08V271.53z M127.59,167.319
	c0.053,0.001,0.105,0.008,0.159,0.008h28.094c-11.817,26.391-18.554,57.026-19.464,89.174H95.367
	C96.91,223.128,108.671,192.38,127.59,167.319z M384.41,167.319c18.919,25.061,30.68,55.809,32.223,89.182h-41.012
	c-0.911-32.148-7.647-62.784-19.465-89.174h28.095C384.305,167.327,384.357,167.32,384.41,167.319z M288.564,416.814h-65.127
	v-17.033h65.127V416.814z M303.593,399.781h0.501c9.116,0,16.532,7.417,16.532,16.532v0.501h-17.033V399.781z M208.407,416.814
	h-17.033v-0.501c0-9.116,7.416-16.532,16.532-16.532h0.501V416.814z M223.436,384.751v-17.033h65.127v17.033H223.436z
	 M223.436,352.689V271.53h65.127v81.159H223.436z M223.477,256.501c0.341-32.475,2.884-63.221,7.326-89.174h50.392
	c4.443,25.953,6.986,56.699,7.326,89.174H223.477z M303.593,271.53h57.112v81.159h-57.112V271.53z M375.734,271.53h41.08v81.159
	h-41.08V271.53z M360.586,256.501h-57.034c-0.333-32.247-2.8-62.925-7.121-89.174h43.178
	C351.926,192.386,359.582,223.131,360.586,256.501z M293.657,152.297c-0.64-3.098-1.309-6.118-2.007-9.049
	c-3.601-15.124-7.767-27.153-12.472-36.069c20.173,7.029,38.152,23.031,52.06,45.118H293.657z M277.029,146.73
	c0.433,1.82,0.855,3.678,1.264,5.568h-44.587c0.411-1.889,0.832-3.747,1.264-5.568c8.502-35.708,18.062-43.528,21.029-43.528
	S268.527,111.022,277.029,146.73z M232.823,107.179c-4.705,8.916-8.871,20.946-12.472,36.069c-0.697,2.931-1.367,5.951-2.007,9.049
	h-37.58C194.671,130.21,212.649,114.208,232.823,107.179z M215.568,167.327c-4.32,26.249-6.788,56.927-7.121,89.174h-57.034
	c1.005-33.37,8.661-64.115,20.976-89.174H215.568z M151.296,271.53h57.112v81.159h-57.112V271.53z M208.407,367.718v17.033h-0.501
	c-17.403,0-31.562,14.159-31.562,31.562v8.016c0,4.15,3.364,7.515,7.515,7.515h24.548v17.033h-57.112v-81.159H208.407z
	 M223.436,431.843h25.049v17.033h-25.049V431.843z M263.515,431.843h25.049v17.033h-25.049V431.843z M303.593,431.843h24.548
	c4.151,0,7.515-3.365,7.515-7.515v-8.016c0-17.403-14.159-31.562-31.562-31.562h-0.501v-17.033h57.112v81.159h-57.112V431.843z
	 M375.734,367.718h41.08v81.159h-41.08V367.718z M371.556,152.297h-22.948c-2.211-3.95-4.542-7.784-7.004-11.476
	c-5.834-8.751-12.188-16.48-18.958-23.146C341.072,126.1,357.64,137.908,371.556,152.297z M189.355,117.675
	c-6.77,6.665-13.125,14.394-18.958,23.146c-2.462,3.692-4.792,7.527-7.004,11.476h-22.948
	C154.36,137.908,170.928,126.1,189.355,117.675z M95.186,367.718h41.08v81.159h-41.08V367.718z"/>
<g>
</g>
<g>
</g>
<g>
</g>
<g>
</g>
<g>
</g>
<g>
</g>
<g>
</g>
<g>
</g>
<g>
</g>
<g>
</g>
<g>
</g>
<g>
</g>
<g>
</g>
<g>
</g>
<g>
</g>
</svg>
