<?xml version="1.0" encoding="iso-8859-1"?>
<!-- Generator: Adobe Illustrator 19.0.0, SVG Export Plug-In . SVG Version: 6.00 Build 0)  -->
<svg version="1.1" id="Capa_1" xmlns="http://www.w3.org/2000/svg" xmlns:xlink="http://www.w3.org/1999/xlink" x="0px" y="0px"
	 viewBox="0 0 512.002 512.002" style="enable-background:new 0 0 512.002 512.002;" xml:space="preserve">
<rect x="360.204" y="39.591" style="fill:#DEDED9;" width="80.154" height="160.309"/>
<polygon style="fill:#CDCDC7;" points="360.201,66.619 360.201,199.9 440.355,199.9 440.355,131.93 "/>
<polygon style="fill:#BAA9DA;" points="440.355,504.486 71.645,504.486 71.645,183.869 256,31.576 440.355,183.869 "/>
<polygon style="fill:#A38DCE;" points="256,31.576 71.645,183.869 71.645,247.992 256,95.699 440.355,247.992 440.355,183.869 "/>
<polygon style="fill:#FDC572;" points="504.479,215.931 256.334,7.896 256.334,7.529 256,7.713 255.667,7.529 255.667,7.896 
	7.522,215.931 31.568,247.992 256,63.817 480.433,247.992 "/>
<path style="fill:#7B5FB2;" d="M256,328.147c-48.695,0-88.17,39.475-88.17,88.17v88.17h176.34v-88.17
	C344.17,367.622,304.695,328.147,256,328.147z"/>
<g>
	<path style="fill:#EEEEEC;" d="M201.896,258.012c0-29.881,24.224-54.104,54.104-54.104s54.104,24.224,54.104,54.104
		c0,29.881-24.224,42.081-54.104,42.081S201.896,287.893,201.896,258.012z"/>
	<path style="fill:#EEEEEC;" d="M207.908,159.823c0-9.96,8.075-24.046,18.035-24.046s18.035,14.086,18.035,24.046
		c0,9.96-8.075,18.035-18.035,18.035C215.982,177.857,207.908,169.784,207.908,159.823z"/>
	<path style="fill:#EEEEEC;" d="M268.024,159.823c0-9.96,8.075-24.046,18.035-24.046c9.96,0,18.035,14.086,18.035,24.046
		c0,9.96-8.075,18.035-18.035,18.035S268.024,169.784,268.024,159.823z"/>
	<path style="fill:#EEEEEC;" d="M316.116,195.892c0-9.96,8.075-24.046,18.035-24.046c9.96,0,18.035,14.086,18.035,24.046
		s-8.075,18.035-18.035,18.035S316.116,205.853,316.116,195.892z"/>
	<path style="fill:#EEEEEC;" d="M159.815,195.892c0-9.96,8.075-24.046,18.035-24.046s18.035,14.086,18.035,24.046
		s-8.075,18.035-18.035,18.035C167.89,213.927,159.815,205.853,159.815,195.892z"/>
</g>
<path d="M509.307,210.173l-61.436-51.506V39.591c0-4.15-3.363-7.514-7.514-7.514h-80.154c-4.151,0-7.514,3.364-7.514,7.514v39.277
	L262.541,3.292c-2.997-4.389-10.083-4.389-13.08,0L2.695,210.173c-3.059,2.565-3.579,7.074-1.184,10.268l24.046,32.062
	c2.529,3.371,7.517,3.977,10.779,1.301l27.796-22.81v273.495c0,4.15,3.364,7.514,7.514,7.514h368.71
	c4.151,0,7.514-3.365,7.514-7.514V325.142c0-4.15-3.363-7.514-7.514-7.514s-7.514,3.364-7.514,7.514v171.831h-81.156v-80.655
	c0-52.761-42.924-95.684-95.684-95.684s-95.684,42.924-95.684,95.684v80.655H79.16V218.659L256,73.537l176.841,145.121v70.414
	c0,4.15,3.363,7.514,7.514,7.514s7.514-3.365,7.514-7.514v-58.08l27.796,22.81c3.262,2.676,8.249,2.073,10.779-1.301l24.046-32.062
	C512.886,217.246,512.366,212.737,509.307,210.173z M175.345,416.316c0-44.474,36.182-80.655,80.655-80.655
	s80.655,36.182,80.655,80.655v80.655H175.345L175.345,416.316L175.345,416.316z M367.716,91.358V47.105h65.125v98.961l-65.13-54.603
	C367.711,91.428,367.716,91.394,367.716,91.358z M479.131,237.204L260.768,58.007c-2.738-2.247-6.796-2.247-9.534,0L32.87,237.204
	l-15.065-20.087L256.001,17.422l238.196,199.695L479.131,237.204z"/>
<path d="M256,307.607c38.584,0,61.619-18.541,61.619-49.596c0-33.976-27.642-61.619-61.619-61.619s-61.619,27.642-61.619,61.619
	C194.382,289.067,217.417,307.607,256,307.607z M256,211.422c25.69,0,46.59,20.9,46.59,46.59c0,30.076-29.19,34.567-46.59,34.567
	s-46.59-4.491-46.59-34.567C209.411,232.322,230.311,211.422,256,211.422z"/>
<path d="M225.943,185.372c14.088,0,25.549-11.461,25.549-25.549c0-12.565-10.19-31.561-25.549-31.561s-25.549,18.996-25.549,31.561
	C200.393,173.911,211.855,185.372,225.943,185.372z M225.943,143.291c4.523,0,10.52,9.425,10.52,16.532
	c0,5.801-4.719,10.52-10.52,10.52c-5.801,0-10.52-4.719-10.52-10.52C215.422,152.716,221.42,143.291,225.943,143.291z"/>
<path d="M311.608,159.823c0-12.565-10.191-31.561-25.549-31.561s-25.549,18.996-25.549,31.561c0,14.088,11.461,25.549,25.549,25.549
	S311.608,173.911,311.608,159.823z M275.538,159.823c0-7.107,5.998-16.532,10.52-16.532c4.523,0,10.52,9.425,10.52,16.532
	c0,5.801-4.719,10.52-10.52,10.52S275.538,165.624,275.538,159.823z"/>
<path d="M359.7,195.892c0-12.565-10.191-31.561-25.549-31.561c-15.359,0-25.549,18.996-25.549,31.561
	c0,14.088,11.461,25.549,25.549,25.549S359.7,209.98,359.7,195.892z M323.631,195.892c0-7.107,5.998-16.532,10.52-16.532
	c4.523,0,10.52,9.425,10.52,16.532c0,5.801-4.719,10.52-10.52,10.52S323.631,201.693,323.631,195.892z"/>
<path d="M177.85,164.331c-15.36,0-25.549,18.996-25.549,31.561c0,14.088,11.461,25.549,25.549,25.549s25.549-11.461,25.549-25.549
	C203.399,183.328,193.21,164.331,177.85,164.331z M177.85,206.412c-5.801,0-10.52-4.719-10.52-10.52
	c0-7.107,5.998-16.532,10.52-16.532c4.523,0,10.52,9.425,10.52,16.532C188.37,201.693,183.651,206.412,177.85,206.412z"/>
<g>
</g>
<g>
</g>
<g>
</g>
<g>
</g>
<g>
</g>
<g>
</g>
<g>
</g>
<g>
</g>
<g>
</g>
<g>
</g>
<g>
</g>
<g>
</g>
<g>
</g>
<g>
</g>
<g>
</g>
</svg>
