<?xml version="1.0" encoding="iso-8859-1"?>
<!-- Generator: Adobe Illustrator 19.0.0, SVG Export Plug-In . SVG Version: 6.00 Build 0)  -->
<svg version="1.1" id="Capa_1" xmlns="http://www.w3.org/2000/svg" xmlns:xlink="http://www.w3.org/1999/xlink" x="0px" y="0px"
	 viewBox="0 0 512 512" style="enable-background:new 0 0 512 512;" xml:space="preserve">
<path style="fill:#70DFF0;" d="M424.329,288.061H87.671c-0.836,38.133-24.047,168.329-56.11,176.344h448.877
	C448.376,456.39,425.164,326.194,424.329,288.061z"/>
<path style="fill:#3DC9D9;" d="M480.438,464.406c-32.063-8.016-55.274-138.212-56.11-176.344h-32.063
	c0.581,26.493,11.963,97.41,29.609,140.931c2.139,5.275-1.729,11.033-7.422,11.033H53.149
	c-6.546,13.279-13.805,22.435-21.587,24.381H480.438z"/>
<rect x="7.515" y="464.407" style="fill:#BAF0F8;" width="496.971" height="40.078"/>
<path style="fill:#EEEEEC;" d="M223.937,400.28c0-17.708,32.063-56.11,32.063-56.11s32.063,38.402,32.063,56.11
	c0,17.708-14.355,32.063-32.063,32.063S223.937,417.988,223.937,400.28z"/>
<path d="M504.485,456.891h-22.943c-8.223-2.989-21.133-23.093-33.594-71.246c-9.55-36.906-15.689-78.682-16.107-97.749
	c-0.089-4.085-3.427-7.349-7.513-7.349H327.64v-4.509c0-4.15-3.365-7.515-7.515-7.515s-7.515,3.365-7.515,7.515v4.509h-49.096
	v-4.509c0-4.15-3.365-7.515-7.515-7.515c-4.15,0-7.515,3.365-7.515,7.515v4.509h-49.096v-4.509c0-4.15-3.365-7.515-7.515-7.515
	s-7.515,3.365-7.515,7.515v4.509H87.671c-4.086,0-7.424,3.264-7.513,7.349c-0.418,19.066-6.557,60.842-16.107,97.749
	c-12.46,48.153-25.371,68.257-33.594,71.246H7.515c-4.15,0-7.515,3.365-7.515,7.515v40.078c0,4.15,3.365,7.515,7.515,7.515h496.971
	c4.15,0,7.515-3.365,7.515-7.515v-40.078C512,460.254,508.635,456.891,504.485,456.891z M496.971,496.969H15.029V471.92h364.88
	c4.15,0,7.515-3.365,7.515-7.515c0-4.15-3.365-7.515-7.515-7.515H51.983c2.907-4.099,5.744-9.014,8.528-14.802
	c6.408-13.325,12.494-31.049,18.091-52.68c9.061-35.015,14.776-72.202,16.237-93.833h322.325
	c1.461,21.632,7.176,58.819,16.237,93.833c5.597,21.63,11.684,39.355,18.091,52.68c2.783,5.788,5.621,10.703,8.528,14.802h-44.707
	c-4.15,0-7.515,3.365-7.515,7.515c0,4.15,3.365,7.515,7.515,7.515h81.659V496.969z"/>
<path d="M256,336.656c-2.227,0-4.34,0.988-5.768,2.698c-5.646,6.761-33.809,41.478-33.809,60.926
	c0,21.823,17.755,39.577,39.577,39.577s39.577-17.755,39.577-39.577c0-19.448-28.163-54.164-33.809-60.926
	C260.34,337.644,258.227,336.656,256,336.656z M256,424.828c-13.535,0-24.548-11.012-24.548-24.548
	c0-8.812,12.931-28.982,24.548-44.08c11.617,15.099,24.548,35.268,24.548,44.08C280.548,413.816,269.535,424.828,256,424.828z"/>
<path d="M320.125,119.231c4.15,0,7.515-3.365,7.515-7.515v-8.016c0-1.13,0.046-2.268,0.139-3.383
	c0.342-4.136-2.734-7.766-6.87-8.108c-4.138-0.334-7.766,2.734-8.108,6.87c-0.125,1.524-0.189,3.079-0.189,4.621v8.016
	C312.611,115.867,315.975,119.231,320.125,119.231z"/>
<path d="M320.125,163.318c4.15,0,7.515-3.365,7.515-7.515v-12.023c0-4.15-3.365-7.515-7.515-7.515s-7.515,3.365-7.515,7.515v12.023
	C312.611,159.953,315.975,163.318,320.125,163.318z"/>
<path d="M408.798,120.882v6.866c0,4.15,3.365,7.515,7.515,7.515s7.515-3.365,7.515-7.515v-6.866c0-4.15-3.365-7.515-7.515-7.515
	S408.798,116.731,408.798,120.882z"/>
<path d="M320.125,251.49c4.15,0,7.515-3.365,7.515-7.515v-12.023c0-4.15-3.365-7.515-7.515-7.515s-7.515,3.365-7.515,7.515v12.023
	C312.611,248.125,315.975,251.49,320.125,251.49z"/>
<path d="M320.125,207.404c4.15,0,7.515-3.365,7.515-7.515v-12.023c0-4.15-3.365-7.515-7.515-7.515s-7.515,3.365-7.515,7.515v12.023
	C312.611,204.039,315.975,207.404,320.125,207.404z"/>
<path d="M406.885,91.344c1.245,3.901,5.542,6.118,9.444,4.873c3.954-1.262,6.135-5.491,4.873-9.444
	c-1.41-4.413-3.375-8.645-5.842-12.58c-2.204-3.516-6.842-4.579-10.358-2.375c-3.516,2.204-4.579,6.842-2.375,10.358
	C404.426,85.045,405.859,88.13,406.885,91.344z"/>
<path d="M372.084,63.302c3.373,0.318,6.693,1.058,9.868,2.199c4.062,1.46,8.629-0.912,9.784-5.064
	c1.04-3.739-1.049-7.767-4.699-9.08c-4.361-1.568-8.916-2.584-13.543-3.02c-4.077-0.389-7.802,2.701-8.186,6.776
	C364.924,59.193,368.007,62.918,372.084,63.302z"/>
<path d="M333.017,78.444c2.013,0,4.021-0.804,5.501-2.394c2.31-2.48,4.922-4.665,7.764-6.495c3.49-2.247,4.497-6.896,2.25-10.386
	c-2.247-3.49-6.897-4.496-10.386-2.25c-3.892,2.505-7.467,5.496-10.626,8.889C323.143,70.505,326.566,78.444,333.017,78.444z"/>
<path d="M263.515,187.865c0-4.15-3.365-7.515-7.515-7.515c-4.15,0-7.515,3.365-7.515,7.515v12.023c0,4.15,3.365,7.515,7.515,7.515
	c4.15,0,7.515-3.365,7.515-7.515V187.865z"/>
<path d="M256,224.437c-4.15,0-7.515,3.365-7.515,7.515v12.023c0,4.15,3.365,7.515,7.515,7.515c4.15,0,7.515-3.365,7.515-7.515
	v-12.023C263.515,227.8,260.15,224.437,256,224.437z"/>
<path d="M248.485,55.607v12.023c0,4.15,3.365,7.515,7.515,7.515c4.15,0,7.515-3.365,7.515-7.515V55.607
	c0-4.15-3.365-7.515-7.515-7.515C251.85,48.092,248.485,51.456,248.485,55.607z"/>
<path d="M160.584,44.137c0.941,0.391,1.917,0.575,2.876,0.575c2.948,0,5.745-1.745,6.945-4.638c1.293-3.116,2.978-6.071,5.01-8.781
	c2.49-3.32,1.817-8.031-1.504-10.521c-3.319-2.489-8.031-1.817-10.521,1.504c-2.785,3.714-5.096,7.765-6.868,12.04
	C154.931,38.151,156.749,42.548,160.584,44.137z"/>
<path d="M195.451,16.657c0.642,0,1.296-0.083,1.946-0.257c3.251-0.87,6.624-1.331,10.025-1.37c4.15-0.048,7.475-3.452,7.426-7.602
	c-0.048-4.15-3.491-7.495-7.602-7.427c-4.652,0.054-9.272,0.686-13.732,1.879c-4.009,1.072-6.39,5.191-5.318,9.201
	C189.094,14.441,192.131,16.657,195.451,16.657z"/>
<path d="M263.515,143.779c0-4.15-3.365-7.515-7.515-7.515c-4.15,0-7.515,3.365-7.515,7.515v12.023c0,4.15,3.365,7.515,7.515,7.515
	c4.15,0,7.515-3.365,7.515-7.515V143.779z"/>
<path d="M263.515,99.693c0-4.15-3.365-7.515-7.515-7.515c-4.15,0-7.515,3.365-7.515,7.515v12.023c0,4.15,3.365,7.515,7.515,7.515
	c4.15,0,7.515-3.365,7.515-7.515V99.693z"/>
<path d="M232.605,23.407c2.685,2.063,5.109,4.458,7.203,7.118c1.483,1.883,3.685,2.866,5.909,2.866c1.627,0,3.266-0.526,4.644-1.611
	c3.26-2.568,3.822-7.292,1.254-10.554c-2.866-3.638-6.18-6.915-9.853-9.737c-3.292-2.529-8.009-1.911-10.538,1.38
	C228.697,16.161,229.315,20.878,232.605,23.407z"/>
<path d="M159.812,88.31c4.15,0,7.515-3.365,7.515-7.515V68.772c0-4.15-3.365-7.515-7.515-7.515s-7.515,3.365-7.515,7.515v12.023
	C152.297,84.945,155.662,88.31,159.812,88.31z"/>
<path d="M95.67,184.389c3.903,1.244,8.199-0.971,9.444-4.873c1.026-3.214,2.459-6.299,4.258-9.168
	c2.205-3.516,1.142-8.154-2.375-10.358c-3.517-2.206-8.154-1.142-10.358,2.375c-2.467,3.935-4.433,8.167-5.842,12.58
	C89.535,178.897,91.717,183.126,95.67,184.389z"/>
<path d="M95.687,228.592c4.15,0,7.515-3.365,7.515-7.515v-12.023c0-4.15-3.365-7.515-7.515-7.515c-4.15,0-7.515,3.365-7.515,7.515
	v12.023C88.172,225.227,91.537,228.592,95.687,228.592z"/>
<path d="M127.505,154.12c0.844,0,1.702-0.143,2.542-0.445c3.175-1.142,6.496-1.882,9.868-2.199c4.077-0.384,7.16-4.11,6.776-8.186
	c-0.384-4.081-4.107-7.156-8.186-6.776c-4.627,0.436-9.184,1.452-13.543,3.02c-3.385,1.216-5.502,4.877-4.85,8.416
	C120.755,151.444,123.947,154.12,127.505,154.12z"/>
<path d="M199.389,191.873c0-1.542-0.064-3.096-0.189-4.621c-0.342-4.136-3.981-7.21-8.108-6.87c-4.136,0.342-7.212,3.972-6.87,8.108
	c0.092,1.115,0.139,2.253,0.139,3.383v8.016c0,4.15,3.365,7.515,7.515,7.515s7.515-3.365,7.515-7.515v-8.015H199.389z"/>
<path d="M191.875,224.437c-4.15,0-7.515,3.365-7.515,7.515v12.023c0,4.15,3.365,7.515,7.515,7.515s7.515-3.365,7.515-7.515v-12.023
	C199.389,227.8,196.025,224.437,191.875,224.437z"/>
<path d="M163.467,147.341c-2.246,3.49-1.239,8.14,2.25,10.386c2.843,1.83,5.455,4.015,7.764,6.495
	c2.983,3.204,8.213,3.127,11.12-0.135c2.543-2.855,2.481-7.313-0.122-10.108c-3.159-3.393-6.735-6.383-10.626-8.889
	C170.365,142.844,165.714,143.851,163.467,147.341z"/>
<g>
</g>
<g>
</g>
<g>
</g>
<g>
</g>
<g>
</g>
<g>
</g>
<g>
</g>
<g>
</g>
<g>
</g>
<g>
</g>
<g>
</g>
<g>
</g>
<g>
</g>
<g>
</g>
<g>
</g>
</svg>
