<?xml version="1.0" encoding="iso-8859-1"?>
<!-- Generator: Adobe Illustrator 19.0.0, SVG Export Plug-In . SVG Version: 6.00 Build 0)  -->
<svg version="1.1" id="Capa_1" xmlns="http://www.w3.org/2000/svg" xmlns:xlink="http://www.w3.org/1999/xlink" x="0px" y="0px"
	 viewBox="0 0 512 512" style="enable-background:new 0 0 512 512;" xml:space="preserve">
<path style="fill:#A38DCE;" d="M440.36,504.485H71.64c-17.708,0-32.063-14.355-32.063-32.063v-72.141h432.845v72.141
	C472.423,490.13,458.068,504.485,440.36,504.485z"/>
<path style="fill:#8C70C2;" d="M39.577,400.282v24.047h392.767c4.427,0,8.016,3.589,8.016,8.016v40.078
	c0,17.708-14.355,32.063-32.063,32.063h32.063c17.708,0,32.063-14.355,32.063-32.063v-72.141H39.577z"/>
<rect x="7.515" y="368.219" style="fill:#D1C6E7;" width="496.971" height="32.063"/>
<path style="fill:#EEEEEC;" d="M448.376,368.219H63.624c0,0,16.031-72.141,192.376-72.141S448.376,368.219,448.376,368.219z"/>
<path style="fill:#DEDED9;" d="M215.922,304.094c139.792,0,178.839,45.332,189.022,64.125h43.432c0,0-16.031-72.141-192.376-72.141
	c-46.241,0-81.454,4.962-108.25,12.281C167.281,305.672,189.848,304.094,215.922,304.094z"/>
<path style="fill:#FDC572;" d="M336.157,296.078H175.843c-13.281,0-24.047-10.766-24.047-24.047l0,0
	c0-13.281,10.766-24.047,24.047-24.047h160.313c13.281,0,24.047,10.766,24.047,24.047l0,0
	C360.204,285.312,349.438,296.078,336.157,296.078z"/>
<path style="fill:#FCB74F;" d="M336.157,272.031H175.843c-8.899,0-16.664-4.837-20.822-12.023
	c-2.047,3.538-3.225,7.642-3.225,12.023l0,0c0,13.281,10.766,24.047,24.047,24.047h160.313c13.281,0,24.047-10.766,24.047-24.047
	l0,0c0-4.382-1.177-8.486-3.225-12.023C352.82,267.193,345.056,272.031,336.157,272.031z"/>
<path style="fill:#FDC572;" d="M312.11,247.984H199.89c-13.281,0-24.047-10.766-24.047-24.047l0,0
	c0-13.281,10.766-24.047,24.047-24.047H312.11c13.281,0,24.047,10.766,24.047,24.047l0,0
	C336.157,237.218,325.391,247.984,312.11,247.984z"/>
<path style="fill:#FCB74F;" d="M312.11,223.937H199.89c-8.899,0-16.664-4.837-20.822-12.023c-2.047,3.538-3.225,7.642-3.225,12.023
	l0,0c0,13.281,10.766,24.047,24.047,24.047H312.11c13.281,0,24.047-10.766,24.047-24.047l0,0c0-4.382-1.177-8.486-3.225-12.023
	C328.773,219.099,321.009,223.937,312.11,223.937z"/>
<path style="fill:#FDC572;" d="M280.047,199.89h-48.094c-13.281,0-24.047-10.766-24.047-24.047l0,0
	c0-13.281,10.766-24.047,24.047-24.047h48.094c13.281,0,24.047,10.766,24.047,24.047l0,0
	C304.094,189.124,293.328,199.89,280.047,199.89z"/>
<g>
	<path style="fill:#FCB74F;" d="M280.047,175.843h-48.094c-8.899,0-16.664-4.837-20.822-12.023
		c-2.047,3.538-3.225,7.642-3.225,12.023l0,0c0,13.281,10.766,24.047,24.047,24.047h48.094c13.281,0,24.047-10.766,24.047-24.047
		l0,0c0-4.382-1.177-8.486-3.225-12.023C296.711,171.005,288.946,175.843,280.047,175.843z"/>
	<path style="fill:#FCB74F;" d="M239.969,151.796c-2.655-4.203-13.359-32.396,22.043-54.106
		c-14.696,34.735,12.906,49.736,18.035,54.106C266.688,151.796,253.328,151.796,239.969,151.796z"/>
</g>
<path d="M504.485,360.704h-50.84c-5.926-13.484-27.429-46.323-99.685-62.629c8.3-5.692,13.758-15.242,13.758-26.044
	c0-16.474-12.689-30.042-28.806-31.442c3.016-4.836,4.759-10.544,4.759-16.652c0-17.403-14.159-31.562-31.562-31.562h-5.191
	c2.971-4.811,4.69-10.474,4.69-16.532c0-16.488-12.711-30.055-28.846-31.437c-0.167-0.123-0.334-0.245-0.51-0.375
	c-7.848-5.759-24.18-17.742-13.319-43.413c1.237-2.926,0.458-6.409-1.91-8.526c-2.446-2.189-6.14-2.525-8.939-0.809
	c-15.422,9.456-24.868,21.236-28.073,35.012c-1.575,6.767-1.365,12.995-0.435,18.083c-16.296,1.22-29.185,14.861-29.185,31.463
	c0,6.058,1.719,11.721,4.69,16.532h-5.191c-17.403,0-31.562,14.159-31.562,31.562c0,6.112,1.751,11.82,4.772,16.659
	c-16.123,1.396-28.819,14.957-28.819,31.435c0,10.802,5.458,20.352,13.758,26.044c-72.256,16.306-93.759,49.145-99.685,62.629H7.515
	c-4.15,0-7.515,3.365-7.515,7.515v32.063c0,4.15,3.365,7.515,7.515,7.515h24.548v64.626C32.063,494.245,49.817,512,71.64,512h368.72
	c21.823,0,39.577-17.755,39.577-39.577v-64.626h24.548c4.15,0,7.515-3.365,7.515-7.515v-32.063
	C512,364.069,508.635,360.704,504.485,360.704z M250.2,117.919c0.276,11.334,4.88,20.002,10.113,26.362h-14.999h-0.319
	C243.487,139.105,242.186,128.849,250.2,117.919z M175.843,288.563c-9.116,0-16.532-7.417-16.532-16.532
	c0-9.116,7.416-16.532,16.532-16.532h102.2c4.15,0,7.515-3.365,7.515-7.515c0-4.15-3.365-7.515-7.515-7.515H199.89
	c-9.116,0-16.532-7.416-16.532-16.532c0-9.116,7.416-16.532,16.532-16.532h42.416c4.15,0,7.515-3.365,7.515-7.515
	c0-4.15-3.365-7.515-7.515-7.515h-10.353c-9.116,0-16.532-7.416-16.532-16.532c0-9.116,7.416-16.532,16.532-16.532h48.094
	c9.116,0,16.532,7.416,16.532,16.532c0,9.116-7.417,16.532-16.532,16.532h-8.349c-4.15,0-7.515,3.365-7.515,7.515
	c0,4.15,3.365,7.515,7.515,7.515h40.412c9.116,0,16.532,7.416,16.532,16.532c0,9.116-7.417,16.532-16.532,16.532
	c-4.15,0-7.515,3.365-7.515,7.515c0,4.15,3.365,7.515,7.515,7.515h24.047c9.116,0,16.532,7.416,16.532,16.532
	c0,9.116-7.417,16.532-16.532,16.532H175.843z M99.502,337.279c22.989-15.367,68.801-33.686,156.498-33.686
	s133.509,18.319,156.498,33.686c12.853,8.591,20.093,17.203,24.066,23.426H75.436C79.409,354.481,86.649,345.869,99.502,337.279z
	 M496.971,392.767h-80.991c-4.15,0-7.515,3.365-7.515,7.515c0,4.15,3.365,7.515,7.515,7.515h48.929v64.626
	c0,13.535-11.013,24.548-24.548,24.548H71.64c-13.535,0-24.548-11.013-24.548-24.548v-64.626h333.484
	c4.15,0,7.515-3.365,7.515-7.515c0-4.15-3.365-7.515-7.515-7.515H15.029v-17.033h481.941V392.767z"/>
<path d="M250.687,58.311c-2.935,2.935-2.935,7.693,0,10.627c2.895,2.895,7.732,2.895,10.627,0
	c16.881-16.881,7.397-31.436,1.731-40.134c-5.84-8.965-6.564-11.143-1.731-15.975c2.935-2.935,2.935-7.693,0-10.627
	c-2.935-2.935-7.693-2.935-10.627,0c-13.873,13.872-5.335,26.977-0.234,34.807C256.496,46.284,258.631,50.365,250.687,58.311z"/>
<path d="M312.185,106.405c-2.736,2.735-2.918,7.255-0.4,10.196c2.81,3.281,7.97,3.488,11.027,0.431
	c16.881-16.881,7.397-31.436,1.731-40.134c-5.84-8.965-6.564-11.143-1.731-15.975c2.935-2.935,2.935-7.693,0-10.627
	c-2.935-2.935-7.693-2.935-10.627,0c-13.873,13.872-5.335,26.977-0.234,34.807C317.994,94.378,320.129,98.459,312.185,106.405z"/>
<path d="M183.934,106.405c-2.736,2.735-2.918,7.255-0.4,10.196c2.81,3.281,7.97,3.488,11.027,0.431
	c16.881-16.881,7.397-31.436,1.731-40.134c-5.84-8.965-6.564-11.143-1.731-15.975c2.935-2.935,2.935-7.693,0-10.627
	c-2.935-2.935-7.693-2.935-10.627,0c-13.873,13.872-5.335,26.977-0.234,34.807C189.744,94.378,191.879,98.459,183.934,106.405z"/>
<g>
</g>
<g>
</g>
<g>
</g>
<g>
</g>
<g>
</g>
<g>
</g>
<g>
</g>
<g>
</g>
<g>
</g>
<g>
</g>
<g>
</g>
<g>
</g>
<g>
</g>
<g>
</g>
<g>
</g>
</svg>
