<?xml version="1.0" encoding="iso-8859-1"?>
<!-- Generator: Adobe Illustrator 19.0.0, SVG Export Plug-In . SVG Version: 6.00 Build 0)  -->
<svg version="1.1" id="Capa_1" xmlns="http://www.w3.org/2000/svg" xmlns:xlink="http://www.w3.org/1999/xlink" x="0px" y="0px"
	 viewBox="0 0 512 512" style="enable-background:new 0 0 512 512;" xml:space="preserve">
<path style="fill:#75E0F1;" d="M504.485,235.961c0-53.123-43.065-96.188-96.188-96.188c-50.423,0-91.779,38.8-95.853,88.172H199.556
	c-4.074-49.372-45.43-88.172-95.853-88.172c-53.123,0-96.188,43.065-96.188,96.188c0,24.637,9.267,47.107,24.501,64.125
	c-15.234,17.018-24.501,39.488-24.501,64.125c0,53.123,43.065,96.188,96.188,96.188c50.423,0,91.779-38.8,95.853-88.172h112.889
	c4.074,49.372,45.43,88.172,95.853,88.172c53.123,0,96.188-43.065,96.188-96.188c0-24.637-9.267-47.107-24.501-64.125
	C495.218,283.068,504.485,260.598,504.485,235.961z M103.703,203.898c-8.853,0-16.031-7.177-16.031-16.031
	s7.178-16.031,16.031-16.031s16.031,7.177,16.031,16.031S112.556,203.898,103.703,203.898z M408.297,203.898
	c-8.853,0-16.031-7.177-16.031-16.031s7.178-16.031,16.031-16.031s16.031,7.177,16.031,16.031S417.151,203.898,408.297,203.898z"/>
<path style="fill:#53D9ED;" d="M432.01,436.352c-45.987,0-84.432-32.274-93.931-75.406c-1.633-7.417-8.098-12.766-15.693-12.766
	H189.28c-7.595,0-14.059,5.348-15.693,12.766c-9.499,43.132-47.944,75.406-93.931,75.406c-20.42,0-39.349-6.368-54.921-17.219
	c17.379,24.941,46.264,41.266,78.968,41.266c50.423,0,91.779-38.8,95.853-88.172h112.889c4.074,49.372,45.43,88.172,95.853,88.172
	c32.898,0,61.934-16.52,79.279-41.713C471.883,429.811,452.71,436.352,432.01,436.352z"/>
<path d="M512,235.961c0-54.655-42.501-99.565-96.188-103.428V51.601c0-4.15-3.364-7.515-7.515-7.515s-7.515,3.365-7.515,7.515
	v80.929c-23.431,1.686-45.53,11.229-62.896,27.299c-17.392,16.094-28.645,37.405-32.13,60.601h-99.512
	c-3.486-23.196-14.738-44.506-32.13-60.601c-17.366-16.07-39.465-25.613-62.896-27.299V51.601c0-4.15-3.364-7.515-7.515-7.515
	c-4.151,0-7.517,3.365-7.517,7.515v80.932C42.501,136.395,0,181.306,0,235.961c0,23.364,7.841,45.891,22.206,64.125
	C7.841,318.321,0,340.848,0,364.211c0,57.182,46.521,103.703,103.703,103.703c26.193,0,51.199-9.791,70.411-27.571
	c17.392-16.094,28.645-37.405,32.13-60.601h46.082c4.151,0,7.515-3.365,7.515-7.515c0-4.15-3.364-7.515-7.515-7.515h-52.77
	c-3.911,0-7.167,3-7.49,6.896c-3.759,45.575-42.574,81.276-88.363,81.276c-48.894,0-88.673-39.779-88.673-88.673
	c0-21.85,8.021-42.843,22.585-59.113c2.555-2.854,2.555-7.171,0-10.025c-14.564-16.27-22.585-37.263-22.585-59.112
	c0-46.364,35.768-84.524,81.159-88.352v17.948c-9.308,3.144-16.031,11.953-16.031,22.31c0,12.983,10.563,23.546,23.546,23.546
	s23.546-10.563,23.546-23.546c0-10.356-6.723-19.165-16.031-22.31v-17.929c42.451,3.652,77.296,37.878,80.849,80.935
	c0.322,3.898,3.578,6.896,7.49,6.896h112.888c3.911,0,7.167-3,7.49-6.896c3.554-43.057,38.399-77.283,80.849-80.935v17.93
	c-9.308,3.144-16.031,11.953-16.031,22.31c0,12.983,10.563,23.546,23.546,23.546s23.546-10.563,23.546-23.546
	c0-10.356-6.723-19.165-16.031-22.31V147.61c45.391,3.827,81.159,41.988,81.159,88.352c0,21.85-8.021,42.843-22.585,59.113
	c-2.555,2.854-2.555,7.171,0,10.025c14.564,16.269,22.585,37.262,22.585,59.111c0,48.895-39.779,88.673-88.673,88.673
	c-45.788,0-84.603-35.701-88.364-81.276c-0.322-3.898-3.578-6.896-7.49-6.896h-24.382c-4.151,0-7.515,3.365-7.515,7.515
	c0,4.15,3.364,7.515,7.515,7.515h17.694c3.486,23.196,14.738,44.506,32.13,60.601c19.212,17.78,44.218,27.571,70.411,27.571
	c57.182,0,103.703-46.521,103.703-103.703c0-23.364-7.841-45.891-22.206-64.125C504.159,281.851,512,259.324,512,235.961z
	 M103.703,196.384c-4.696,0-8.517-3.82-8.517-8.517s3.82-8.517,8.517-8.517s8.517,3.82,8.517,8.517S108.399,196.384,103.703,196.384
	z M408.297,196.384c-4.696,0-8.517-3.82-8.517-8.517s3.82-8.517,8.517-8.517c4.696,0,8.517,3.82,8.517,8.517
	S412.994,196.384,408.297,196.384z"/>
<path d="M200.928,257.216l-25.085,62.714l-25.085-62.713c-1.521-3.801-5.967-5.707-9.768-4.186
	c-3.801,1.521-5.707,5.966-4.187,9.768l32.063,80.157c2.467,6.163,11.487,6.163,13.955,0l32.063-80.157
	c1.521-3.803-0.385-8.246-4.187-9.768C206.895,251.509,202.448,253.415,200.928,257.216z"/>
<path d="M288.063,267.522c4.151,0,7.515-3.365,7.515-7.515c0-4.15-3.364-7.515-7.515-7.515h-48.094
	c-4.151,0-7.515,3.365-7.515,7.515v80.157c0,4.15,3.364,7.515,7.515,7.515h48.094c4.151,0,7.515-3.365,7.515-7.515
	c0-4.15-3.364-7.515-7.515-7.515h-40.579v-25.049h24.548c4.151,0,7.515-3.365,7.515-7.515c0-4.15-3.364-7.515-7.515-7.515h-24.548
	v-25.049H288.063z"/>
<path d="M344.172,347.679c4.151,0,7.515-3.365,7.515-7.515v-72.642h16.532c4.151,0,7.515-3.365,7.515-7.515
	c0-4.15-3.364-7.515-7.515-7.515h-48.094c-4.151,0-7.515,3.365-7.515,7.515c0,4.15,3.364,7.515,7.515,7.515h16.532v72.642
	C336.658,344.314,340.021,347.679,344.172,347.679z"/>
<g>
</g>
<g>
</g>
<g>
</g>
<g>
</g>
<g>
</g>
<g>
</g>
<g>
</g>
<g>
</g>
<g>
</g>
<g>
</g>
<g>
</g>
<g>
</g>
<g>
</g>
<g>
</g>
<g>
</g>
</svg>
