<?xml version="1.0" encoding="iso-8859-1"?>
<!-- Generator: Adobe Illustrator 19.0.0, SVG Export Plug-In . SVG Version: 6.00 Build 0)  -->
<svg version="1.1" id="Capa_1" xmlns="http://www.w3.org/2000/svg" xmlns:xlink="http://www.w3.org/1999/xlink" x="0px" y="0px"
	 viewBox="0 0 511.998 511.998" style="enable-background:new 0 0 511.998 511.998;" xml:space="preserve">
<path style="fill:#EEEEEC;" d="M185.152,392.662c-1.925-1.925-3.961-3.671-6.078-5.258l210.522-210.522
	c1.587,2.117,3.333,4.152,5.258,6.078c21.911,21.911,57.436,21.911,79.347,0c21.911-21.911,21.911-57.436,0-79.347
	c-14.434-14.434-34.774-19.355-53.24-14.772c4.583-18.465-0.339-38.806-14.772-53.239c-21.911-21.911-57.436-21.911-79.347,0
	c-21.911,21.911-21.911,57.436,0,79.347c1.925,1.925,3.961,3.671,6.078,5.258L122.398,330.727c-1.587-2.117-3.333-4.152-5.258-6.078
	c-21.911-21.911-57.436-21.911-79.347,0s-21.911,57.436,0,79.347c14.434,14.434,34.774,19.355,53.239,14.772
	c-4.583,18.465,0.339,38.806,14.772,53.24c21.911,21.911,57.437,21.911,79.347,0C207.063,450.097,207.063,414.572,185.152,392.662z"
	/>
<g>
	<path style="fill:#DEDED9;" d="M58.513,417.119c0.115-0.528,0.21-1.06,0.341-1.586c-1.25,0.311-2.369,0.435-3.378,0.403
		C56.479,416.363,57.492,416.754,58.513,417.119z"/>
	<path style="fill:#DEDED9;" d="M418.801,54.947c-0.063,0.271-0.108,0.545-0.175,0.816c0.147-0.036,0.297-0.06,0.444-0.095
		C418.98,55.427,418.893,55.186,418.801,54.947z"/>
	<path style="fill:#DEDED9;" d="M486.825,122.962c-2.292,9.865-7.272,19.232-14.961,26.92c-21.911,21.911-57.436,21.911-79.347,0
		c-1.925-1.925-3.671-3.961-5.258-6.078L146.896,384.167c2.117,1.587,4.152,3.333,6.078,5.258c21.911,21.911,21.911,57.436,0,79.347
		c-8.218,8.218-18.351,13.353-28.962,15.407c20.336,8.41,44.611,4.358,61.141-12.171c21.911-21.911,21.911-57.436,0-79.347
		c-1.925-1.925-3.961-3.671-6.078-5.258l210.522-210.522c1.587,2.117,3.333,4.152,5.258,6.078c21.911,21.911,57.435,21.911,79.347,0
		C490.424,166.737,494.622,143.058,486.825,122.962z"/>
</g>
<path style="fill:#FCB74F;" d="M405.788,243.464c0,0,0,39.569,0,67.284c-42.869-7.056-88.392,5.925-121.457,38.989
	c-39.577,39.577-50.405,97.01-32.502,146.367c49.357,17.903,106.79,7.076,146.367-32.502
	c34.418-34.418,47.081-82.336,38.028-126.707l68.247,5.25L405.788,243.464z"/>
<path style="fill:#E8A848;" d="M504.471,342.147l-19.37-19.37l-68.247-5.25c9.054,44.371-3.61,92.289-38.028,126.707
	c-35.652,35.652-85.79,47.962-131.465,36.969c1.21,5.03,2.691,10.007,4.468,14.902c49.357,17.903,106.79,7.076,146.367-32.502
	c34.418-34.418,47.081-82.336,38.028-126.707L504.471,342.147z"/>
<circle style="fill:#8B8A7B;" cx="293.599" cy="437.333" r="16.031"/>
<path style="fill:#FCB74F;" d="M7.524,169.85c0,0,39.569,0,67.284,0c-7.056-42.869,5.925-88.393,38.989-121.457
	c39.579-39.577,97.011-50.405,146.368-32.501c17.903,49.357,7.076,106.79-32.502,146.367
	c-34.418,34.418-82.336,47.081-126.707,38.027l5.25,68.247L7.524,169.85z"/>
<path style="fill:#E8A848;" d="M260.165,15.892c-4.252-1.542-8.567-2.856-12.923-3.972c11.837,46.201-0.306,97.276-36.474,133.444
	c-34.418,34.418-82.336,47.081-126.707,38.027l5.25,68.247l16.895,16.894l-5.25-68.247c44.371,9.054,92.289-3.609,126.707-38.027
	C267.242,122.681,278.069,65.25,260.165,15.892z"/>
<circle style="fill:#8B8A7B;" cx="201.393" cy="57.659" r="16.031"/>
<path d="M190.11,386.995l141.024-141.023c2.935-2.935,2.935-7.693,0-10.626c-2.937-2.936-7.694-2.934-10.627,0L173.761,382.09
	c-3.186,3.186-2.796,8.623,0.806,11.326c1.892,1.418,3.664,2.952,5.273,4.56c18.946,18.946,18.946,49.774-0.001,68.721
	c-18.944,18.946-49.775,18.946-68.719,0c-12.16-12.159-16.942-29.399-12.793-46.116c0.635-2.557-0.116-5.26-1.98-7.124
	c-1.864-1.864-4.565-2.614-7.124-1.98c-16.718,4.149-33.959-0.634-46.116-12.792c-18.946-18.946-18.946-49.775,0-68.721
	c18.946-18.946,49.775-18.946,68.719-0.001c1.612,1.614,3.148,3.387,4.561,5.273c2.702,3.603,8.14,3.993,11.327,0.806
	l210.521-210.523c3.186-3.187,2.796-8.625-0.808-11.327c-1.888-1.415-3.66-2.948-5.271-4.559
	c-18.946-18.946-18.946-49.774,0.001-68.721c18.944-18.946,49.775-18.946,68.719,0c12.16,12.159,16.942,29.399,12.793,46.116
	c-1.34,5.396,3.708,10.441,9.103,9.103c16.714-4.15,33.958,0.633,46.116,12.792c18.946,18.946,18.946,49.775,0,68.721
	c-18.945,18.946-49.774,18.946-68.719,0.001c-1.612-1.614-3.148-3.387-4.561-5.273c-2.701-3.602-8.14-3.992-11.327-0.806
	l-36.977,36.976c-2.935,2.935-2.935,7.693,0,10.626c2.936,2.934,7.693,2.935,10.627,0l31.255-31.255
	c0.117,0.119,0.234,0.237,0.353,0.356c24.808,24.807,65.169,24.805,89.976,0c24.805-24.806,24.805-65.168,0-89.975
	c-13.296-13.294-31.23-19.853-49.519-18.493c1.361-18.294-5.198-36.224-18.493-49.518c-24.807-24.806-65.167-24.806-89.975,0
	c-24.806,24.806-24.806,65.168,0,89.974c0.117,0.118,0.236,0.235,0.356,0.354L122.805,319.691c-0.117-0.119-0.234-0.237-0.353-0.356
	c-24.808-24.806-65.169-24.805-89.976,0c-24.805,24.806-24.805,65.168,0,89.975c13.295,13.294,31.226,19.853,49.519,18.493
	c-1.361,18.295,5.198,36.224,18.493,49.519c12.404,12.403,28.696,18.604,44.987,18.604s32.583-6.201,44.987-18.604
	c24.806-24.806,24.806-65.168,0-89.974C190.347,387.23,190.229,387.113,190.11,386.995z"/>
<path d="M509.785,336.834l-98.683-98.683c-4.638-4.636-12.828-1.238-12.828,5.313v58.7c-43.887-4.541-87.916,10.921-119.256,42.261
	c-20.16,20.161-33.938,45.497-39.843,73.267c-5.749,27.042-3.816,55.043,5.591,80.976c0.759,2.093,2.409,3.742,4.502,4.502
	c16.18,5.869,33.164,8.829,50.219,8.829c10.281,0,20.587-1.076,30.758-3.238c27.77-5.904,53.105-19.682,73.267-39.843
	c32.677-32.677,47.907-78.335,41.729-123.79l58.656,4.512C510.695,350.154,514.617,341.667,509.785,336.834z M436.8,329.405
	c-4.893-0.376-8.922,4.18-7.939,8.995c8.905,43.638-4.545,88.458-35.979,119.891c-35.266,35.267-87.962,47.598-135.151,31.913
	c-15.688-47.191-3.355-99.884,31.913-135.152c30.003-30.004,72.959-43.797,114.923-36.888c4.508,0.741,8.735-2.85,8.735-7.414
	v-49.144l71.491,71.492L436.8,329.405z"/>
<path d="M276.953,420.682c-4.447,4.447-6.897,10.36-6.897,16.65c0,6.289,2.449,12.201,6.896,16.649c0,0,0,0,0.001,0
	c4.446,4.446,10.36,6.896,16.648,6.896c6.289,0,12.202-2.45,16.649-6.896c9.18-9.179,9.18-24.117,0-33.297
	C301.071,411.503,286.133,411.502,276.953,420.682z M299.623,443.353c-1.608,1.608-3.746,2.495-6.022,2.495
	c-2.275,0-4.412-0.886-6.021-2.495h-0.001c-1.608-1.608-2.494-3.747-2.494-6.021c0-2.275,0.886-4.413,2.495-6.022
	c1.66-1.66,3.84-2.49,6.021-2.49c2.181,0,4.362,0.831,6.022,2.49C302.944,434.63,302.944,440.033,299.623,443.353z"/>
<path d="M328.311,349.363c-6.289,0-12.202,2.45-16.649,6.896c-2.896,2.896-2.895,7.732,0.001,10.627
	c2.896,2.895,7.732,2.893,10.626,0c3.521-3.521,9.482-3.212,12.626,0.646c2.72,3.338,2.46,8.355-0.584,11.398
	c-2.735,2.736-2.917,7.255-0.399,10.196c2.81,3.281,7.969,3.487,11.026,0.431c9.178-9.181,9.178-24.117,0-33.297
	C340.514,351.813,334.6,349.363,328.311,349.363z"/>
<path d="M379.723,344.668c-6.289,0-12.202,2.45-16.649,6.896c-2.866,2.867-2.865,7.761,0.001,10.627s7.76,2.865,10.626,0
	c3.286-3.286,8.756-3.276,12.044,0c3.286,3.276,3.278,8.766,0,12.043c-2.736,2.735-2.919,7.254-0.4,10.195
	c2.809,3.281,7.97,3.489,11.026,0.432c4.447-4.446,6.897-10.36,6.897-16.649c0-6.289-2.449-12.202-6.896-16.649
	C391.925,347.118,386.012,344.668,379.723,344.668z"/>
<path d="M374.743,394.42c-6.289,0-12.202,2.45-16.649,6.896c-2.896,2.896-2.895,7.732,0.001,10.627s7.732,2.894,10.626,0
	c3.286-3.286,8.756-3.276,12.044,0c3.287,3.276,3.278,8.765,0,12.043c-2.736,2.735-2.919,7.255-0.4,10.196
	c2.809,3.281,7.97,3.488,11.026,0.432c4.447-4.447,6.897-10.36,6.897-16.65s-2.449-12.202-6.896-16.649
	C386.945,396.869,381.032,394.42,374.743,394.42z"/>
<path d="M106.209,276.048c4.32,0,7.821-3.792,7.49-8.09l-4.512-58.656c45.456,6.182,91.112-9.051,123.791-41.729
	c20.16-20.161,33.938-45.497,39.843-73.267c5.749-27.042,3.816-55.043-5.591-80.976c-0.759-2.093-2.409-3.742-4.502-4.502
	c-25.933-9.407-53.934-11.341-80.976-5.591c-27.77,5.904-53.105,19.682-73.267,39.843c-31.34,31.34-46.799,75.367-42.261,119.255
	H7.524c-6.549,0-9.95,8.191-5.314,12.827l98.683,98.683C102.334,275.288,104.257,276.048,106.209,276.048z M93.467,200.863
	l3.692,47.994l-71.492-71.492H74.81c4.565,0,8.156-4.227,7.414-8.735c-6.907-41.956,6.884-84.918,36.889-114.923
	c35.265-35.267,87.96-47.6,135.151-31.913c15.688,47.191,3.355,99.884-31.913,135.152c-31.432,31.433-76.252,44.884-119.89,35.978
	C97.648,191.944,93.089,195.967,93.467,200.863z"/>
<path d="M201.39,81.209c6.289,0,12.202-2.449,16.65-6.896c9.18-9.181,9.18-24.117,0-33.297c0,0,0,0-0.001,0
	c-4.446-4.446-10.36-6.896-16.649-6.896s-12.202,2.45-16.649,6.896c-9.18,9.181-9.18,24.117,0,33.297
	C189.189,78.759,195.101,81.209,201.39,81.209z M195.37,51.642c1.608-1.608,3.746-2.495,6.021-2.495s4.413,0.886,6.022,2.495
	c3.32,3.32,3.32,8.724,0.001,12.044c-1.609,1.609-3.748,2.495-6.023,2.495s-4.412-0.886-6.021-2.495
	C192.049,60.365,192.049,54.962,195.37,51.642z"/>
<path d="M136.968,115.918c6.289,0,12.202-2.45,16.649-6.896c2.935-2.935,2.935-7.693-0.001-10.627
	c-2.934-2.935-7.692-2.934-10.626,0c-3.286,3.286-8.757,3.276-12.044,0c-3.286-3.276-3.278-8.765,0-12.043
	c2.936-2.935,2.936-7.693,0.001-10.627c-2.936-2.934-7.694-2.935-10.626,0c-4.447,4.447-6.897,10.36-6.897,16.65
	c0,6.289,2.449,12.201,6.896,16.649C124.767,113.47,130.679,115.918,136.968,115.918z"/>
<path d="M132.273,167.33c6.289,0,12.202-2.45,16.649-6.896c2.935-2.935,2.935-7.693-0.001-10.627c-2.934-2.935-7.692-2.934-10.626,0
	c-5.258,5.258-14.538,1.414-14.538-6.021c0-2.274,0.886-4.413,2.494-6.021c2.936-2.935,2.936-7.692,0.001-10.626
	s-7.693-2.937-10.626-0.001c-4.447,4.446-6.897,10.36-6.897,16.649c0,6.289,2.449,12.202,6.896,16.649
	C120.07,164.88,125.984,167.33,132.273,167.33z"/>
<path d="M182.024,162.339c6.03,0,12.059-2.295,16.649-6.885c2.935-2.935,2.935-7.693,0-10.626c-2.936-2.935-7.693-2.935-10.627,0
	c-3.277,3.277-8.766,3.278-12.044,0c-3.278-3.278-3.278-8.767,0-12.044c2.935-2.935,2.935-7.693-0.001-10.627
	c-2.934-2.935-7.692-2.934-10.626,0c-9.178,9.181-9.178,24.117,0.001,33.297C169.965,160.044,175.996,162.339,182.024,162.339z"/>
<g>
</g>
<g>
</g>
<g>
</g>
<g>
</g>
<g>
</g>
<g>
</g>
<g>
</g>
<g>
</g>
<g>
</g>
<g>
</g>
<g>
</g>
<g>
</g>
<g>
</g>
<g>
</g>
<g>
</g>
</svg>
