<?xml version="1.0" encoding="iso-8859-1"?>
<!-- Generator: Adobe Illustrator 19.0.0, SVG Export Plug-In . SVG Version: 6.00 Build 0)  -->
<svg version="1.1" id="Capa_1" xmlns="http://www.w3.org/2000/svg" xmlns:xlink="http://www.w3.org/1999/xlink" x="0px" y="0px"
	 viewBox="0 0 512 512" style="enable-background:new 0 0 512 512;" xml:space="preserve">
<path style="fill:#75E0F1;" d="M328.141,504.485H183.859c-17.708,0-32.063-14.355-32.063-32.063V207.906h208.407v264.517
	C360.204,490.13,345.848,504.485,328.141,504.485z"/>
<path style="fill:#53D9ED;" d="M151.796,207.906V256H312.11c8.854,0,16.031,7.177,16.031,16.031v200.391
	c0,17.708-14.355,32.063-32.063,32.063h32.063c17.708,0,32.063-14.355,32.063-32.063V207.906H151.796z"/>
<path style="fill:#FDC572;" d="M344.172,123.566c-31.232-24.047-66.129-12.349-67.096-50.654
	c-0.251-9.985,10.986-17.304,10.986-33.335c0-17.708-14.355-32.063-32.063-32.063s-32.063,14.355-32.063,32.063
	c0,16.031,11.238,23.351,10.986,33.334c-0.967,38.306-35.864,26.608-67.096,50.655c-18.435,14.194-16.862,32.466-16.862,44.261
	h210.068C361.034,156.033,362.607,137.76,344.172,123.566z"/>
<path style="fill:#FCB74F;" d="M344.172,123.566c-31.232-24.047-66.129-12.349-67.096-50.654
	c-0.251-9.985,10.986-17.304,10.986-33.335c0-17.708-14.355-32.063-32.063-32.063c-3.661,0-7.175,0.622-10.451,1.751
	c10.909,5.116,18.467,16.193,18.467,29.039c0,16.031-8.016,25.318-8.016,41.35c0,40.078,40.045,35.895,71.277,59.942
	c11.286,8.689,7.64,18.906,8.879,28.23h24.878C361.034,156.033,362.607,137.76,344.172,123.566z"/>
<rect x="127.75" y="167.828" style="fill:#8B8A7B;" width="256.501" height="64.125"/>
<rect x="352.188" y="167.828" style="fill:#7A7A69;" width="32.063" height="64.125"/>
<path style="fill:#FFFFFF;" d="M215.922,376.235c0-22.134,40.078-72.141,40.078-72.141s40.078,50.007,40.078,72.141
	S278.134,416.313,256,416.313S215.922,398.369,215.922,376.235z"/>
<path d="M384.25,160.313h-15.684c-0.179-12.139-2.28-29.205-19.811-42.701c-12.809-9.863-26.306-14.236-37.152-17.749
	c-18.885-6.118-26.567-9.311-27.016-27.14c-0.062-2.413,1.542-5.302,3.571-8.959c3.306-5.957,7.418-13.369,7.418-24.186
	C295.577,17.755,277.823,0,256,0s-39.577,17.755-39.577,39.577c0,10.817,4.112,18.23,7.417,24.185
	c2.029,3.657,3.632,6.547,3.571,8.96c-0.45,17.829-8.132,21.022-27.016,27.141c-10.845,3.513-24.343,7.886-37.153,17.749
	c-17.529,13.497-19.631,30.563-19.81,42.701H127.75c-4.15,0-7.515,3.365-7.515,7.515v64.125c0,4.15,3.365,7.515,7.515,7.515h16.532
	v232.955c0,21.823,17.755,39.577,39.577,39.577h144.282c21.823,0,39.577-17.755,39.577-39.577V356.196
	c0-4.15-3.364-7.515-7.515-7.515s-7.515,3.365-7.515,7.515v116.227c0,13.535-11.012,24.548-24.548,24.548H183.859
	c-13.535,0-24.548-11.013-24.548-24.548V239.468h193.378v80.658c0,4.15,3.364,7.515,7.515,7.515s7.515-3.365,7.515-7.515v-80.658
	h16.532c4.151,0,7.515-3.365,7.515-7.515v-64.125C391.765,163.678,388.402,160.313,384.25,160.313z M172.413,129.521
	c10.748-8.275,22.366-12.04,32.615-15.36c18.029-5.841,36.673-11.88,37.408-41.059c0.164-6.505-2.692-11.652-5.454-16.63
	c-2.844-5.125-5.53-9.966-5.53-16.894c0-13.535,11.012-24.548,24.548-24.548c13.536,0,24.548,11.013,24.548,24.548
	c0,6.928-2.686,11.769-5.531,16.894c-2.761,4.978-5.617,10.125-5.454,16.63c0.736,29.178,19.38,35.218,37.409,41.059
	c10.249,3.32,21.867,7.085,32.616,15.36c12.153,9.357,13.793,20.778,13.95,30.793H158.461
	C158.62,150.298,160.26,138.877,172.413,129.521z M248.485,175.342v49.096h-49.096v-49.096H248.485z M263.515,175.342h49.096v49.096
	h-49.096V175.342z M135.264,224.438v-49.096h49.096v49.096H135.264z M376.736,224.438H327.64v-49.096h49.096V224.438z"/>
<path d="M256,296.579c-2.28,0-4.438,1.036-5.864,2.815c-4.27,5.328-41.729,52.761-41.729,76.84
	c0,26.242,21.351,47.593,47.593,47.593c26.242,0,47.593-21.351,47.593-47.593c0-24.079-37.458-71.512-41.729-76.84
	C260.438,297.615,258.28,296.579,256,296.579z M288.564,376.235c0,17.955-14.608,32.564-32.564,32.564
	c-17.955,0-32.564-14.609-32.564-32.564c0-12.428,18.091-40.608,32.565-59.873C270.474,335.619,288.564,363.794,288.564,376.235z"/>
<g>
</g>
<g>
</g>
<g>
</g>
<g>
</g>
<g>
</g>
<g>
</g>
<g>
</g>
<g>
</g>
<g>
</g>
<g>
</g>
<g>
</g>
<g>
</g>
<g>
</g>
<g>
</g>
<g>
</g>
</svg>
