<?xml version="1.0" encoding="iso-8859-1"?>
<!-- Generator: Adobe Illustrator 19.0.0, SVG Export Plug-In . SVG Version: 6.00 Build 0)  -->
<svg version="1.1" id="Capa_1" xmlns="http://www.w3.org/2000/svg" xmlns:xlink="http://www.w3.org/1999/xlink" x="0px" y="0px"
	 viewBox="0 0 512 512" style="enable-background:new 0 0 512 512;" xml:space="preserve">
<path style="fill:#AED45B;" d="M87.671,343.17c0-94.626,75.363-171.335,168.329-171.335s168.329,76.709,168.329,171.335
	S348.966,476.431,256,476.431S87.671,437.796,87.671,343.17z"/>
<path style="fill:#9AC932;" d="M124.075,355.194c0-94.626,75.363-171.335,168.329-171.335c11.454,0,22.64,1.169,33.452,3.389
	c-21.28-9.893-44.934-15.412-69.856-15.412c-92.966,0-168.329,76.709-168.329,171.335c0,73.148,45.04,112.829,108.428,127.078
	C152.56,450.365,124.075,413.361,124.075,355.194z"/>
<path style="fill:#AED45B;" d="M7.515,187.867c0-26.562,21.532-56.11,48.094-56.11s48.094,29.548,48.094,56.11
	s-21.532,48.094-48.094,48.094S7.515,214.429,7.515,187.867z"/>
<path style="fill:#9AC932;" d="M35.569,195.883c0-25.116,19.257-52.887,43.809-55.837c-7.013-5.142-15.121-8.288-23.769-8.288
	c-26.562,0-48.094,29.548-48.094,56.11s21.532,48.094,48.094,48.094c0.476,0,0.946-0.022,1.418-0.036
	C44.094,227.305,35.569,212.591,35.569,195.883z"/>
<path style="fill:#AED45B;" d="M127.75,91.679c0-26.562,21.532-56.11,48.094-56.11s48.094,29.548,48.094,56.11
	s-21.532,48.094-48.094,48.094S127.75,118.241,127.75,91.679z"/>
<path style="fill:#9AC932;" d="M155.136,102.612c0-26.467,21.381-55.89,47.811-56.1c-7.718-6.704-17.049-10.943-27.104-10.943
	c-26.562,0-48.094,29.548-48.094,56.11c0,25.454,19.778,46.275,44.801,47.969C161.913,130.827,155.136,117.512,155.136,102.612z"/>
<path style="fill:#AED45B;" d="M504.485,187.867c0-26.562-21.532-56.11-48.094-56.11s-48.094,29.548-48.094,56.11
	s21.532,48.094,48.094,48.094S504.485,214.429,504.485,187.867z"/>
<path style="fill:#9AC932;" d="M431.676,198.291c0-26.562,21.532-56.11,48.094-56.11c1.119,0,2.225,0.071,3.326,0.173
	c-7.64-6.504-16.823-10.598-26.704-10.598c-26.562,0-48.094,29.548-48.094,56.11c0,24.119,17.756,44.088,40.908,47.557
	C438.501,226.604,431.676,213.244,431.676,198.291z"/>
<path style="fill:#AED45B;" d="M384.25,91.679c0-26.562-21.532-56.11-48.094-56.11s-48.094,29.548-48.094,56.11
	s21.532,48.094,48.094,48.094S384.25,118.241,384.25,91.679z"/>
<path style="fill:#9AC932;" d="M314.113,101.03c0-26.281,21.084-55.468,47.259-56.081c-7.332-5.791-15.967-9.38-25.216-9.38
	c-26.562,0-48.094,29.548-48.094,56.11c0,25.711,20.177,46.709,45.561,48.027C321.788,130.945,314.113,116.885,314.113,101.03z"/>
<polygon style="fill:#FFFFFF;" points="328.141,300.086 280.047,300.086 280.047,251.992 231.953,251.992 231.953,300.086 
	183.859,300.086 183.859,348.18 231.953,348.18 231.953,396.274 280.047,396.274 280.047,348.18 328.141,348.18 "/>
<path d="M392.994,243.302c-3.493,2.24-4.509,6.888-2.268,10.382c17.067,26.609,26.089,57.552,26.089,89.486
	c0,42.097-15.516,74.388-46.119,95.974c-27.612,19.476-67.272,29.771-114.695,29.771s-87.083-10.295-114.695-29.771
	c-30.603-21.586-46.119-53.877-46.119-95.974c0-90.33,72.141-163.82,160.814-163.82c42.123,0,81.945,16.476,112.131,46.393
	c2.947,2.922,7.705,2.9,10.627-0.047c2.922-2.948,2.901-7.706-0.048-10.628c-33.017-32.725-76.598-50.747-122.71-50.747
	c-96.96,0-175.843,80.232-175.843,178.849c0,24.045,4.72,45.617,14.029,64.12c8.804,17.497,21.742,32.346,38.456,44.135
	c30.16,21.275,72.817,32.52,123.358,32.52s93.198-11.245,123.358-32.52c16.714-11.789,29.652-26.638,38.456-44.135
	c9.309-18.503,14.029-40.075,14.029-64.12c0-34.816-9.844-68.565-28.468-97.601C401.134,242.077,396.486,241.063,392.994,243.302z"
	/>
<path d="M111.217,187.867c0-14.842-5.748-30.426-15.77-42.756c-10.939-13.457-25.087-20.869-39.839-20.869
	s-28.899,7.411-39.839,20.869C5.748,157.44,0,173.025,0,187.867c0,30.663,24.946,55.609,55.609,55.609
	S111.217,218.53,111.217,187.867z M55.609,228.446c-22.376,0-40.579-18.204-40.579-40.579c0-22.011,18.1-48.595,40.579-48.595
	s40.579,26.584,40.579,48.595C96.188,210.243,77.984,228.446,55.609,228.446z"/>
<path d="M175.843,147.288c30.663,0,55.609-24.946,55.609-55.609c0-14.842-5.748-30.426-15.77-42.756
	c-10.939-13.457-25.087-20.869-39.839-20.869s-28.899,7.411-39.839,20.869c-10.022,12.329-15.77,27.914-15.77,42.756
	C120.235,122.342,145.181,147.288,175.843,147.288z M175.843,43.084c22.479,0,40.579,26.584,40.579,48.595
	c0,22.376-18.204,40.579-40.579,40.579s-40.579-18.204-40.579-40.579C135.264,69.668,153.365,43.084,175.843,43.084z"/>
<path d="M496.23,145.111c-10.939-13.457-25.087-20.869-39.839-20.869s-28.899,7.411-39.839,20.869
	c-10.022,12.329-15.77,27.914-15.77,42.756c0,30.663,24.946,55.609,55.609,55.609S512,218.53,512,187.867
	C512,173.025,506.252,157.44,496.23,145.111z M456.391,228.446c-22.376,0-40.579-18.204-40.579-40.579
	c0-22.011,18.1-48.595,40.579-48.595s40.579,26.584,40.579,48.595C496.971,210.243,478.767,228.446,456.391,228.446z"/>
<path d="M336.157,147.288c30.663,0,55.609-24.946,55.609-55.609c0-14.842-5.748-30.426-15.77-42.756
	c-10.939-13.457-25.087-20.869-39.839-20.869s-28.899,7.411-39.839,20.869c-10.022,12.329-15.77,27.914-15.77,42.756
	C280.548,122.342,305.494,147.288,336.157,147.288z M336.157,43.084c22.479,0,40.579,26.584,40.579,48.595
	c0,22.376-18.204,40.579-40.579,40.579s-40.579-18.204-40.579-40.579C295.577,69.668,313.678,43.084,336.157,43.084z"/>
<path d="M231.953,403.789h48.094c4.15,0,7.515-3.365,7.515-7.515v-40.579h40.579c4.15,0,7.515-3.365,7.515-7.515v-48.094
	c0-4.15-3.365-7.515-7.515-7.515h-40.579v-40.579c0-4.15-3.365-7.515-7.515-7.515h-48.094c-4.15,0-7.515,3.365-7.515,7.515v40.579
	h-40.579c-4.15,0-7.515,3.365-7.515,7.515v48.094c0,4.15,3.365,7.515,7.515,7.515h40.579v40.579
	C224.438,400.424,227.803,403.789,231.953,403.789z M191.374,340.665v-33.065h40.579c4.15,0,7.515-3.365,7.515-7.515v-40.579h33.065
	v40.579c0,4.15,3.365,7.515,7.515,7.515h40.579v33.065h-40.579c-4.15,0-7.515,3.365-7.515,7.515v40.579h-33.065V348.18
	c0-4.15-3.365-7.515-7.515-7.515H191.374z"/>
<g>
</g>
<g>
</g>
<g>
</g>
<g>
</g>
<g>
</g>
<g>
</g>
<g>
</g>
<g>
</g>
<g>
</g>
<g>
</g>
<g>
</g>
<g>
</g>
<g>
</g>
<g>
</g>
<g>
</g>
</svg>
