<?xml version="1.0" encoding="iso-8859-1"?>
<!-- Generator: Adobe Illustrator 19.0.0, SVG Export Plug-In . SVG Version: 6.00 Build 0)  -->
<svg version="1.1" id="Capa_1" xmlns="http://www.w3.org/2000/svg" xmlns:xlink="http://www.w3.org/1999/xlink" x="0px" y="0px"
	 viewBox="0 0 512 512" style="enable-background:new 0 0 512 512;" xml:space="preserve">
<path style="fill:#EEEEEC;" d="M352.198,111.677H159.802L47.572,7.463v200.412c0,115.112,93.317,208.428,208.428,208.428
	s208.428-93.317,208.428-208.428V7.463L352.198,111.677z"/>
<g>
	<polygon style="fill:#DEDED9;" points="135.753,95.645 142.536,95.645 47.572,7.463 47.572,13.762 	"/>
	<path style="fill:#DEDED9;" d="M440.379,29.795v162.047c0,115.112-93.317,208.428-208.428,208.428
		c-37.517,0-72.714-9.918-103.125-27.267c35.192,27.144,79.293,43.3,127.174,43.3c115.112,0,208.428-93.317,208.428-208.428V7.463
		L440.379,29.795z"/>
</g>
<g>
	<polygon style="fill:#7A7A69;" points="256,223.908 207.901,111.677 304.099,111.677 	"/>
	<polygon style="fill:#7A7A69;" points="352.198,191.842 304.099,111.677 352.198,111.677 	"/>
	<polygon style="fill:#7A7A69;" points="159.802,191.842 159.802,111.677 207.901,111.677 	"/>
</g>
<polygon style="fill:#F498AC;" points="256,336.139 223.934,304.073 288.066,304.073 "/>
<circle style="fill:#FDC572;" cx="255.996" cy="464.404" r="40.082"/>
<path style="fill:#FCB74F;" d="M275.173,429.196c3.108,5.696,4.876,12.227,4.876,19.173c0,22.136-17.946,40.082-40.082,40.082
	c-6.945,0-13.478-1.768-19.173-4.876c6.799,12.458,20.014,20.909,35.206,20.909c22.136,0,40.082-17.946,40.082-40.082
	C296.082,449.211,287.63,435.995,275.173,429.196z"/>
<path d="M464.428,135.727c4.152,0,7.515-3.365,7.515-7.515V7.463c0-6.42-7.913-9.884-12.63-5.507L349.247,104.162H162.753
	L52.686,1.956c-4.715-4.378-12.63-0.913-12.63,5.507v200.412c0,57.681,22.462,111.909,63.248,152.696
	c35.367,35.366,80.841,56.942,129.907,62.056c-14.77,8.09-24.81,23.781-24.81,41.776c0,26.245,21.353,47.598,47.598,47.598
	s47.598-21.353,47.598-47.598c0-17.995-10.04-33.686-24.81-41.776c49.067-5.114,94.541-26.69,129.907-62.056
	c40.786-40.787,63.248-95.015,63.248-152.696v-43.59c0-4.151-3.364-7.515-7.515-7.515c-4.152,0-7.515,3.365-7.515,7.515v43.59
	c0,110.784-90.129,200.913-200.913,200.913S55.085,318.659,55.085,207.875V24.698l97.2,90.257v76.887
	c0,3.135,2.024,6.015,4.976,7.074c3.336,1.196,7.161-0.168,8.984-3.207l40.536-67.561l42.309,98.72
	c2.549,5.947,11.266,5.948,13.815,0l42.309-98.72l40.536,67.561c1.824,3.038,5.648,4.403,8.984,3.207
	c2.952-1.058,4.976-3.938,4.976-7.074v-76.887l97.2-90.257v103.514C456.913,132.362,460.277,135.727,464.428,135.727z
	 M288.567,464.402c0,17.957-14.609,32.567-32.567,32.567s-32.567-14.61-32.567-32.567c0-15.371,10.707-28.279,25.051-31.682v23.666
	c0,0.169,0.014,0.335,0.025,0.501h-0.526c-4.152,0-7.515,3.365-7.515,7.515c0,4.151,3.364,7.515,7.515,7.515h16.033
	c4.152,0,7.515-3.365,7.515-7.515c0-4.151-3.364-7.515-7.515-7.515h-0.526c0.011-0.166,0.025-0.332,0.025-0.501V432.72
	C277.86,436.123,288.567,449.032,288.567,464.402z M167.318,164.709v-45.517h27.31L167.318,164.709z M256,204.829l-36.701-85.636
	h73.403L256,204.829z M344.682,164.709l-27.31-45.517h27.31V164.709z"/>
<path d="M223.934,360.689c-4.152,0-7.515,3.365-7.515,7.515c0,4.151,3.364,7.515,7.515,7.515c13.18,0,24.868-6.481,32.066-16.418
	c7.198,9.936,18.886,16.418,32.066,16.418c4.152,0,7.515-3.365,7.515-7.515c0-4.151-3.364-7.515-7.515-7.515
	c-12.545,0-22.915-9.459-24.369-21.618l29.684-29.684c4.637-4.638,1.237-12.829-5.315-12.829h-64.132
	c-6.55,0-9.951,8.192-5.315,12.829l29.684,29.684C246.849,351.23,236.479,360.689,223.934,360.689z M269.923,311.588L256,325.511
	l-13.923-13.923H269.923z"/>
<path d="M320.633,280.023c0,4.151,3.364,7.515,7.515,7.515c4.152,0,7.515-3.365,7.515-7.515c0-9.117,7.417-16.534,16.534-16.534
	c9.117,0,16.534,7.417,16.534,16.534c0,4.151,3.364,7.515,7.515,7.515c4.152,0,7.515-3.365,7.515-7.515
	c0-17.405-14.16-31.565-31.565-31.565C334.793,248.458,320.633,262.619,320.633,280.023z"/>
<path d="M128.237,280.023c0,4.151,3.364,7.515,7.515,7.515s7.515-3.365,7.515-7.515c0-9.117,7.417-16.534,16.534-16.534
	c9.117,0,16.534,7.417,16.534,16.534c0,4.151,3.364,7.515,7.515,7.515s7.515-3.365,7.515-7.515c0-17.405-14.16-31.565-31.565-31.565
	S128.237,262.619,128.237,280.023z"/>
<path d="M432.362,119.193c4.152,0,7.515-3.365,7.515-7.515V79.612c0-6.551-8.192-9.951-12.83-5.314l-32.066,32.066
	c-2.895,2.895-2.895,7.733,0,10.628c2.896,2.895,7.733,2.895,10.629,0l19.236-19.237v13.923
	C424.847,115.828,428.211,119.193,432.362,119.193z"/>
<path d="M76.762,72.668c-2.809,1.163-4.64,3.904-4.64,6.943v32.066c0,4.151,3.364,7.515,7.515,7.515s7.515-3.365,7.515-7.515V97.755
	l19.236,19.237c2.896,2.895,7.734,2.895,10.629,0c2.895-2.895,2.895-7.733,0-10.628L84.952,74.298
	C82.801,72.148,79.569,71.504,76.762,72.668z"/>
<g>
</g>
<g>
</g>
<g>
</g>
<g>
</g>
<g>
</g>
<g>
</g>
<g>
</g>
<g>
</g>
<g>
</g>
<g>
</g>
<g>
</g>
<g>
</g>
<g>
</g>
<g>
</g>
<g>
</g>
</svg>
