<?xml version="1.0" encoding="iso-8859-1"?>
<!-- Generator: Adobe Illustrator 19.0.0, SVG Export Plug-In . SVG Version: 6.00 Build 0)  -->
<svg version="1.1" id="Capa_1" xmlns="http://www.w3.org/2000/svg" xmlns:xlink="http://www.w3.org/1999/xlink" x="0px" y="0px"
	 viewBox="0 0 512 512" style="enable-background:new 0 0 512 512;" xml:space="preserve">
<path style="fill:#7A7A69;" d="M368.219,215.922H175.844V87.671c0-44.269,35.887-80.157,80.157-80.157h32.063
	c44.269,0,80.157,35.887,80.157,80.157V215.922z"/>
<circle style="fill:#FEE2B9;" cx="272.031" cy="111.718" r="88.172"/>
<path style="fill:#FDD495;" d="M308.194,31.281c17.205,16.09,27.963,38.99,27.963,64.406c0,48.696-39.476,88.172-88.172,88.172
	c-12.887,0-25.127-2.766-36.163-7.735c15.76,14.739,36.929,23.766,60.21,23.766c48.696,0,88.172-39.476,88.172-88.172
	C360.204,75.909,338.856,45.087,308.194,31.281z"/>
<path style="fill:#7A7A69;" d="M368.219,95.687h-24.047l-16.031-16.031L312.11,95.687h-24.047L272.03,63.624L256,95.687h-24.047
	l-16.031-16.031l-16.031,16.031h-24.047v-8.016c0-44.269,35.887-80.157,80.157-80.157h32.063c44.269,0,80.157,35.887,80.157,80.157
	V95.687z"/>
<path style="fill:#6A6956;" d="M288.063,7.515H256c44.269,0,80.157,35.887,80.157,80.157l8.016,8.016h24.047v-8.016
	C368.219,43.402,332.332,7.515,288.063,7.515z"/>
<path style="fill:#75E0F1;" d="M400.282,504.485H143.781v-240.47c0-26.562,21.532-48.094,48.094-48.094h160.313
	c26.562,0,48.094,21.532,48.094,48.094V504.485z"/>
<path style="fill:#3DC9D9;" d="M352.188,215.922h-32.063c26.562,0,48.094,21.532,48.094,48.094v240.47h32.063v-240.47
	C400.282,237.454,378.75,215.922,352.188,215.922z"/>
<path style="fill:#FEE2B9;" d="M272.031,256L272.031,256c-17.708,0-32.063-14.355-32.063-32.063v-34.069h64.125v34.069
	C304.094,241.645,289.739,256,272.031,256z"/>
<rect x="79.656" y="279.807" style="fill:#FDC572;" width="120.235" height="176.585"/>
<rect x="79.656" y="279.807" style="fill:#FCB74F;" width="24.047" height="176.585"/>
<rect x="199.891" y="312.11" style="fill:#EEEEEC;" width="32.063" height="144.282"/>
<path style="fill:#FEE2B9;" d="M95.687,416.077H63.624c-8.854,0-16.031-7.177-16.031-16.031v-40.078
	c0-8.854,7.177-16.031,16.031-16.031h32.063c8.854,0,16.031,7.177,16.031,16.031v40.078
	C111.718,408.9,104.54,416.077,95.687,416.077z"/>
<path style="fill:#FDD495;" d="M53.605,400.282v-40.078c0-8.853,7.177-16.031,16.031-16.031h16.031
	c-8.854,0-16.031,7.178-16.031,16.031v40.078c0,8.853,7.177,16.031,16.031,16.031H69.636
	C60.783,416.313,53.605,409.135,53.605,400.282z"/>
<path style="fill:#FEE2B9;" d="M392.502,385.017h32.063c8.854,0,16.031,7.177,16.031,16.031v40.078
	c0,8.854-7.177,16.031-16.031,16.031h-32.063c-8.854,0-16.031-7.177-16.031-16.031v-40.078
	C376.47,392.194,383.648,385.017,392.502,385.017z"/>
<path style="fill:#FDD495;" d="M424.564,385.016h-24.282c8.854,0,16.031,7.178,16.031,16.031v40.078
	c0,8.854-7.177,16.031-16.031,16.031h24.282c8.854,0,16.031-7.177,16.031-16.031v-40.078
	C440.596,392.194,433.419,385.016,424.564,385.016z"/>
<polygon style="fill:#EEEEEC;" points="379.388,391.058 351.049,385.39 345.381,357.05 413.396,289.036 447.403,323.043 "/>
<polygon style="fill:#DEDED9;" points="447.403,323.043 434.408,310.047 357.729,386.725 379.388,391.058 "/>
<path d="M272.031,167.327c-2.3,0-14.176-0.531-22.043-11.022c-2.49-3.319-1.817-8.031,1.503-10.521
	c3.319-2.489,8.03-1.817,10.521,1.503c3.715,4.953,9.764,5.01,10.02,5.01c6.191,0,9.866-4.805,10.02-5.01
	c2.49-3.319,7.201-3.992,10.521-1.503c3.319,2.49,3.993,7.201,1.503,10.521C292.694,158.146,285.144,167.327,272.031,167.327z"/>
<circle cx="304.595" cy="120.235" r="7.515"/>
<circle cx="239.468" cy="120.235" r="7.515"/>
<circle cx="272.031" cy="319.624" r="7.515"/>
<circle cx="272.031" cy="376.235" r="7.515"/>
<circle cx="272.031" cy="432.845" r="7.515"/>
<path d="M469.721,289.388l-11.333-11.333c-0.001-0.001-0.002-0.002-0.002-0.002s-0.002-0.001-0.003-0.002l-11.333-11.333
	c-2.935-2.934-7.693-2.934-10.627,0c-2.935,2.936-2.935,7.693,0,10.628l6.022,6.022L430.4,295.412l-11.69-11.69
	c-1.409-1.409-3.32-2.2-5.313-2.2c-1.993,0-3.905,0.792-5.313,2.2l-0.287,0.285v-19.991c0-22.249-13.14-41.479-32.063-50.361V87.671
	C375.734,39.329,336.404,0,288.063,0H256c-48.342,0-87.671,39.329-87.671,87.671v125.983c-18.923,8.882-32.063,28.112-32.063,50.361
	v8.281H79.656c-4.15,0-7.515,3.364-7.515,7.515v56.611h-8.517c-12.983,0-23.546,10.563-23.546,23.546v40.078
	c0,12.983,10.563,23.546,23.546,23.546h8.517v32.799c0,4.151,3.365,7.515,7.515,7.515h56.611v40.579
	c0,4.151,3.365,7.515,7.515,7.515h172.337c4.15,0,7.515-3.364,7.515-7.515s-3.365-7.515-7.515-7.515H151.296v-33.065h48.595h32.063
	c4.15,0,7.515-3.364,7.515-7.515V312.11c0-4.151-3.365-7.515-7.515-7.515h-24.548v-24.783c0-4.151-3.365-7.515-7.515-7.515h-48.595
	v-8.281c0-22.376,18.204-40.579,40.579-40.579h40.579v0.501c0,21.823,17.755,39.577,39.577,39.577s39.577-17.755,39.577-39.577
	v-0.501h40.579c22.376,0,40.579,18.204,40.579,40.579v34.735c0,0.092,0.01,0.181,0.014,0.272l-52.714,52.713
	c-1.776,1.776-2.548,4.323-2.055,6.787l4.88,24.396l-19.828,19.829c-2.935,2.936-2.935,7.693,0,10.628
	c1.467,1.467,3.391,2.2,5.313,2.2s3.846-0.733,5.313-2.2l19.828-19.829l15.844,3.169c-0.262,1.405-0.406,2.852-0.406,4.331v40.078
	c0,12.983,10.563,23.546,23.546,23.546h0.264v32.3h-40.579c-4.15,0-7.515,3.364-7.515,7.515s3.365,7.515,7.515,7.515h48.094
	c4.15,0,7.515-3.364,7.515-7.515v-39.813h16.768c12.983,0,23.546-10.563,23.546-23.546v-40.078
	c0-12.983-10.563-23.546-23.546-23.546h-20.993l3.798-3.798c0.001-0.001,0.002-0.002,0.003-0.003s0.002-0.002,0.003-0.003
	l45.341-45.34c2.935-2.936,2.935-7.693,0-10.628l-11.69-11.69l12.045-12.045l6.022,6.022c1.467,1.467,3.391,2.2,5.313,2.2
	s3.846-0.733,5.313-2.2C472.655,297.081,472.655,292.324,469.721,289.388z M207.405,319.624h17.033v129.252h-17.033V319.624z
	 M63.624,408.563c-4.696,0-8.517-3.82-8.517-8.517v-40.078c0-4.696,3.82-8.517,8.517-8.517h32.063c4.696,0,8.517,3.82,8.517,8.517
	v0.501H87.671c-4.15,0-7.515,3.364-7.515,7.515s3.365,7.515,7.515,7.515h16.532v9.018H87.671c-4.15,0-7.515,3.364-7.515,7.515
	s3.365,7.515,7.515,7.515h16.532v0.501c0,4.696-3.82,8.517-8.517,8.517H63.624z M192.376,287.326v24.783v136.767H87.17v-25.284
	h8.517c12.983,0,23.546-10.563,23.546-23.546v-40.078c0-12.983-10.563-23.546-23.546-23.546H87.17v-49.096H192.376z
	 M232.454,208.407h-40.579c-2.896,0-5.739,0.223-8.517,0.652v-61.396c9.225,22.673,26.899,41.041,49.096,51.166V208.407z
	 M296.579,223.937c0,13.536-11.013,24.548-24.548,24.548s-24.548-11.012-24.548-24.548v-19.73
	c7.837,2.082,16.064,3.197,24.548,3.197s16.711-1.115,24.548-3.197V223.937z M272.031,192.376
	c-44.475,0-80.658-36.183-80.658-80.658c0-2.846,0.164-5.693,0.46-8.517h8.057c1.993,0,3.905-0.792,5.313-2.2l10.718-10.719
	L226.64,101c1.409,1.409,3.32,2.2,5.313,2.2H256c2.847,0,5.449-1.608,6.721-4.154l9.309-18.619l9.31,18.62
	c1.273,2.546,3.875,4.154,6.721,4.154h24.047c1.993,0,3.905-0.792,5.313-2.2l10.719-10.719L338.859,101
	c1.409,1.409,3.32,2.2,5.313,2.2h8.056c0.296,2.824,0.461,5.671,0.461,8.517C352.689,156.193,316.506,192.376,272.031,192.376z
	 M360.705,209.059c-2.777-0.429-5.621-0.652-8.517-0.652h-40.579v-9.578c22.197-10.125,39.871-28.493,49.096-51.166V209.059z
	 M360.705,88.172h-13.42l-13.83-13.831c-2.935-2.934-7.693-2.934-10.627,0l-13.831,13.831h-16.29l-13.955-27.909
	c-1.272-2.547-3.875-4.154-6.721-4.154s-5.449,1.608-6.721,4.154l-13.953,27.909h-16.291l-13.83-13.831
	c-2.935-2.934-7.693-2.934-10.627,0l-13.831,13.831h-13.419v-0.501c0-40.055,32.587-72.642,72.642-72.642h32.063
	c40.055,0,72.642,32.587,72.642,72.642V88.172z M424.564,392.532c4.696,0,8.517,3.82,8.517,8.517v40.078
	c0,4.696-3.82,8.517-8.517,8.517h-32.063c-4.696,0-8.517-3.82-8.517-8.517v-0.501h16.532c4.15,0,7.515-3.364,7.515-7.515
	s-3.365-7.515-7.515-7.515h-16.532v-9.018h16.532c4.15,0,7.515-3.364,7.515-7.515s-3.365-7.515-7.515-7.515h-16.532v-0.501
	c0-4.696,3.82-8.517,8.517-8.517H424.564z M424.732,335.087l-6.023-6.023c-2.935-2.934-7.693-2.934-10.627,0
	c-2.935,2.936-2.935,7.693,0,10.628l6.022,6.022l-12.045,12.044l-6.022-6.022c-2.936-2.936-7.693-2.935-10.628-0.001
	c-2.935,2.935-2.935,7.693,0,10.627l6.023,6.023L376.918,382.9l-19.483-3.898l-3.897-19.483l59.858-59.857l11.688,11.689
	c0.001,0.001,0.002,0.002,0.002,0.002s0.002,0.001,0.003,0.002l11.687,11.688L424.732,335.087z"/>
<g>
</g>
<g>
</g>
<g>
</g>
<g>
</g>
<g>
</g>
<g>
</g>
<g>
</g>
<g>
</g>
<g>
</g>
<g>
</g>
<g>
</g>
<g>
</g>
<g>
</g>
<g>
</g>
<g>
</g>
</svg>
