<?xml version="1.0" encoding="iso-8859-1"?>
<!-- Generator: Adobe Illustrator 19.0.0, SVG Export Plug-In . SVG Version: 6.00 Build 0)  -->
<svg version="1.1" id="Capa_1" xmlns="http://www.w3.org/2000/svg" xmlns:xlink="http://www.w3.org/1999/xlink" x="0px" y="0px"
	 viewBox="0 0 512 512" style="enable-background:new 0 0 512 512;" xml:space="preserve">
<polygon style="fill:#F498AC;" points="388.389,154.88 309.038,75.529 127.665,256.903 127.665,313.582 93.657,347.59 
	116.328,370.261 150.336,336.253 207.016,336.253 "/>
<polygon style="fill:#F17E97;" points="365.266,131.757 183.891,313.13 127.665,313.13 127.665,313.582 93.657,347.59 
	116.328,370.261 150.336,336.253 207.016,336.253 388.389,154.88 "/>
<g>
	
		<rect x="105.976" y="317.87" transform="matrix(-0.7071 -0.7071 0.7071 -0.7071 -33.4925 669.9608)" style="fill:#8B8A7B;" width="32.062" height="48.093"/>
	
		<rect x="350.653" y="33.099" transform="matrix(-0.7071 -0.7071 0.7071 -0.7071 595.924 409.2252)" style="fill:#8B8A7B;" width="64.125" height="96.187"/>
</g>
<rect x="382.862" y="46.436" transform="matrix(-0.7071 -0.7071 0.7071 -0.7071 609.2732 441.4289)" style="fill:#7A7A69;" width="26.394" height="96.187"/>
<path style="fill:#F17E97;" d="M55.621,480.438c0-13.281,24.047-48.094,24.047-48.094s24.047,34.813,24.047,48.094
	s-10.766,24.047-24.047,24.047S55.621,493.719,55.621,480.438z"/>
<path d="M461.717,81.551l-79.35-79.35c-2.935-2.935-7.693-2.935-10.627,0c-2.935,2.935-2.935,7.693,0,10.627l11.689,11.69
	l-57.388,57.388l-28.694-28.694c-2.935-2.935-7.693-2.935-10.627,0c-2.935,2.935-2.935,7.693,0,10.627l11.69,11.69l-38.792,38.792
	c-2.935,2.935-2.935,7.693,0,10.627c2.935,2.935,7.693,2.935,10.627,0l38.792-38.792l68.723,68.723l-173.859,173.86h-50.455
	l-18.27-18.27v-50.455l111.157-111.157c2.935-2.935,2.935-7.693,0-10.627c-2.935-2.935-7.693-2.935-10.627,0L122.35,251.589
	c-1.41,1.409-2.201,3.32-2.201,5.313v53.567l-31.806,31.807c-2.935,2.935-2.935,7.693,0,10.627l6.022,6.022L71.34,381.952
	c-2.736,2.735-2.918,7.255-0.4,10.196c2.81,3.281,7.97,3.488,11.027,0.431l23.026-23.026l6.022,6.022
	c2.895,2.895,7.732,2.895,10.627,0l31.806-31.806h53.567c1.993,0,3.905-0.792,5.313-2.201l176.062-176.06l11.69,11.69
	c3.057,3.057,8.216,2.851,11.027-0.431c2.519-2.941,2.337-7.461-0.4-10.196l-28.694-28.694l57.388-57.388l11.69,11.69
	c3.057,3.056,8.216,2.851,11.027-0.431C464.636,88.806,464.453,84.287,461.717,81.551z M116.328,359.634l-12.045-12.045l23.38-23.38
	l12.045,12.045L116.328,359.634z M371.385,127.249l-34.716-34.716l57.387-57.388l34.716,34.716L371.385,127.249z"/>
<path d="M315.06,171.53c3.057,3.057,8.216,2.851,11.027-0.431c2.519-2.941,2.337-7.461-0.4-10.196l-22.671-22.671
	c-2.935-2.935-7.693-2.935-10.627,0c-2.935,2.935-2.935,7.693,0,10.627L315.06,171.53z"/>
<path d="M258.381,172.238c-2.935,2.935-2.935,7.693,0,10.627l22.671,22.671c3.057,3.057,8.216,2.851,11.027-0.431
	c2.519-2.941,2.337-7.461-0.4-10.196l-22.671-22.671C266.074,169.303,261.316,169.303,258.381,172.238z"/>
<path d="M252.358,241.746c6.571,0,9.943-8.199,5.313-12.828L235,206.247c-2.935-2.935-7.693-2.935-10.627,0
	c-2.935,2.935-2.935,7.693,0,10.627l22.671,22.671C248.512,241.012,250.435,241.746,252.358,241.746z"/>
<path d="M218.587,275.517c6.571,0,9.943-8.199,5.313-12.828l-22.671-22.671c-2.935-2.935-7.693-2.935-10.627,0
	c-2.935,2.935-2.935,7.693,0,10.627l22.671,22.671C214.741,274.783,216.664,275.517,218.587,275.517z"/>
<path d="M167.457,273.788c-2.935-2.935-7.693-2.935-10.627,0c-2.935,2.935-2.935,7.693,0,10.627l22.671,22.671
	c3.056,3.057,8.216,2.851,11.027-0.431c2.519-2.941,2.337-7.461-0.4-10.196L167.457,273.788z"/>
<path d="M79.668,424.829c-2.469,0-4.78,1.212-6.183,3.243c-4.237,6.136-25.379,37.494-25.379,52.365
	c0,17.403,14.159,31.562,31.562,31.562s31.562-14.159,31.562-31.562c0-14.871-21.141-46.229-25.379-52.365
	C84.448,426.042,82.137,424.829,79.668,424.829z M79.668,496.97c-9.116,0-16.532-7.417-16.532-16.532
	c0-5.475,7.767-20.506,16.533-34.435c8.765,13.923,16.531,28.953,16.531,34.435C96.2,489.554,88.784,496.97,79.668,496.97z"/>
<g>
</g>
<g>
</g>
<g>
</g>
<g>
</g>
<g>
</g>
<g>
</g>
<g>
</g>
<g>
</g>
<g>
</g>
<g>
</g>
<g>
</g>
<g>
</g>
<g>
</g>
<g>
</g>
<g>
</g>
</svg>
