<?xml version="1.0" encoding="iso-8859-1"?>
<!-- Generator: Adobe Illustrator 19.0.0, SVG Export Plug-In . SVG Version: 6.00 Build 0)  -->
<svg version="1.1" id="Capa_1" xmlns="http://www.w3.org/2000/svg" xmlns:xlink="http://www.w3.org/1999/xlink" x="0px" y="0px"
	 viewBox="0 0 512 512" style="enable-background:new 0 0 512 512;" xml:space="preserve">
<polygon style="fill:#AED45B;" points="167.828,300.086 167.828,195.883 79.656,195.883 7.515,300.086 7.515,412.305 
	79.656,412.305 504.485,412.305 504.485,300.086 "/>
<polygon style="fill:#9AC932;" points="7.515,388.759 7.515,412.305 79.656,412.305 504.485,412.305 504.485,388.759 "/>
<g>
	<polygon style="fill:#8B8A7B;" points="96.455,227.945 46.511,300.086 135.765,300.086 135.765,227.945 	"/>
	<circle style="fill:#8B8A7B;" cx="87.671" cy="412.305" r="48.094"/>
</g>
<circle style="fill:#EEEEEC;" cx="87.671" cy="412.305" r="16.031"/>
<circle style="fill:#8B8A7B;" cx="408.297" cy="412.305" r="48.094"/>
<g>
	<circle style="fill:#EEEEEC;" cx="408.297" cy="412.305" r="16.031"/>
	<rect x="167.828" y="51.601" style="fill:#EEEEEC;" width="336.658" height="248.485"/>
</g>
<rect x="167.828" y="276.039" style="fill:#DEDED9;" width="336.658" height="24.047"/>
<path style="fill:#FDC572;" d="M135.765,195.883h-24.047v-24.047c0-4.427,3.589-8.016,8.016-8.016h8.016
	c4.427,0,8.016,3.589,8.016,8.016V195.883z"/>
<g>
	<path style="fill:#F17E97;" d="M282.051,213.918c0-29.881,24.224-54.106,54.106-54.106s54.106,24.224,54.106,54.106
		S366.038,256,336.157,256S282.051,243.799,282.051,213.918z"/>
	<path style="fill:#F17E97;" d="M288.063,123.742c0-9.96,8.075-24.047,18.035-24.047c9.96,0,18.035,14.087,18.035,24.047
		s-8.075,18.035-18.035,18.035C296.137,141.777,288.063,133.702,288.063,123.742z"/>
	<path style="fill:#F17E97;" d="M348.18,123.742c0-9.96,8.075-24.047,18.035-24.047c9.96,0,18.035,14.087,18.035,24.047
		s-8.075,18.035-18.035,18.035C356.255,141.777,348.18,133.702,348.18,123.742z"/>
	<path style="fill:#F17E97;" d="M396.274,159.812c0-9.96,8.075-24.047,18.035-24.047c9.96,0,18.035,14.087,18.035,24.047
		s-8.075,18.035-18.035,18.035C404.349,177.847,396.274,169.773,396.274,159.812z"/>
	<path style="fill:#F17E97;" d="M239.969,159.812c0-9.96,8.075-24.047,18.035-24.047s18.035,14.087,18.035,24.047
		s-8.075,18.035-18.035,18.035C248.043,177.847,239.969,169.773,239.969,159.812z"/>
</g>
<path d="M46.511,307.601h89.254c4.151,0,7.515-3.364,7.515-7.515v-72.141c0-4.151-3.364-7.515-7.515-7.515h-39.31
	c-2.466,0-4.775,1.209-6.178,3.236l-49.945,72.141c-1.591,2.298-1.775,5.289-0.479,7.765
	C41.151,306.05,43.715,307.601,46.511,307.601z M100.392,235.46h27.858v57.112H60.853L100.392,235.46z"/>
<path d="M87.671,388.759c-12.983,0-23.546,10.563-23.546,23.546c0,12.983,10.563,23.546,23.546,23.546s23.546-10.563,23.546-23.546
	C111.217,399.322,100.655,388.759,87.671,388.759z M87.671,420.822c-4.696,0-8.517-3.82-8.517-8.517c0-4.696,3.82-8.517,8.517-8.517
	s8.517,3.82,8.517,8.517C96.188,417.001,92.367,420.822,87.671,420.822z"/>
<path d="M408.297,388.759c-12.983,0-23.546,10.563-23.546,23.546c0,12.983,10.563,23.546,23.546,23.546s23.546-10.563,23.546-23.546
	C431.843,399.322,421.281,388.759,408.297,388.759z M408.297,420.822c-4.696,0-8.517-3.82-8.517-8.517
	c0-4.696,3.82-8.517,8.517-8.517c4.696,0,8.517,3.82,8.517,8.517C416.814,417.001,412.994,420.822,408.297,420.822z"/>
<path d="M504.485,44.086h-40.078c-4.151,0-7.515,3.364-7.515,7.515s3.364,7.515,7.515,7.515h32.564v233.456H175.342V59.115h253.662
	c4.151,0,7.515-3.364,7.515-7.515s-3.364-7.515-7.515-7.515H167.828c-4.151,0-7.515,3.364-7.515,7.515v136.767H143.28v-16.532
	c0-8.564-6.967-15.53-15.53-15.53h-8.016c-8.564,0-15.53,6.967-15.53,15.53v16.532H79.656c-2.466,0-4.775,1.209-6.178,3.236
	L1.337,295.808C0.466,297.065,0,298.558,0,300.086v112.219c0,4.151,3.364,7.515,7.515,7.515h25.07
	c3.682,27.119,26.974,48.094,55.087,48.094s51.405-20.975,55.087-48.094h210.453c3.682,27.119,26.974,48.094,55.087,48.094
	s51.405-20.975,55.087-48.094h41.101c4.151,0,7.515-3.364,7.515-7.515V51.601C512,47.45,508.636,44.086,504.485,44.086z
	 M119.233,171.836c0-0.276,0.225-0.501,0.501-0.501h8.016c0.276,0,0.501,0.225,0.501,0.501v16.532h-9.018V171.836z M15.029,302.434
	l68.564-99.036h76.72v201.393h-17.555c-3.682-27.119-26.974-48.094-55.087-48.094s-51.405,20.975-55.087,48.094H15.029V302.434z
	 M87.671,452.885c-22.376,0-40.579-18.204-40.579-40.579s18.204-40.579,40.579-40.579s40.579,18.204,40.579,40.579
	S110.047,452.885,87.671,452.885z M408.297,452.885c-22.376,0-40.579-18.204-40.579-40.579s18.204-40.579,40.579-40.579
	s40.579,18.204,40.579,40.579S430.673,452.885,408.297,452.885z M496.971,404.791h-33.587
	c-3.682-27.119-26.974-48.094-55.087-48.094s-51.405,20.975-55.087,48.094H175.342v-97.19h321.628V404.791z"/>
<path d="M135.765,324.634h-16.031c-4.151,0-7.515,3.364-7.515,7.515c0,4.151,3.364,7.515,7.515,7.515h16.031
	c4.151,0,7.515-3.364,7.515-7.515C143.28,327.998,139.916,324.634,135.765,324.634z"/>
<path d="M199.89,347.679h144.282c4.151,0,7.515-3.364,7.515-7.515c0-4.151-3.364-7.515-7.515-7.515H199.89
	c-4.151,0-7.515,3.364-7.515,7.515C192.376,344.315,195.739,347.679,199.89,347.679z"/>
<path d="M320.125,364.712H199.89c-4.151,0-7.515,3.364-7.515,7.515c0,4.151,3.364,7.515,7.515,7.515h120.235
	c4.151,0,7.515-3.364,7.515-7.515C327.64,368.076,324.276,364.712,320.125,364.712z"/>
<path d="M336.157,263.515c38.585,0,61.62-18.541,61.62-49.597c0-33.977-27.643-61.62-61.62-61.62s-61.62,27.643-61.62,61.62
	C274.536,244.973,297.571,263.515,336.157,263.515z M336.157,167.327c25.691,0,46.591,20.9,46.591,46.591
	c0,30.077-29.191,34.568-46.591,34.568s-46.591-4.491-46.591-34.568C289.566,188.227,310.465,167.327,336.157,167.327z"/>
<path d="M306.098,149.292c14.089,0,25.55-11.461,25.55-25.55c0-12.565-10.191-31.562-25.55-31.562s-25.55,18.997-25.55,31.562
	C280.548,137.83,292.009,149.292,306.098,149.292z M306.098,107.209c4.523,0,10.521,9.424,10.521,16.532
	c0,5.801-4.719,10.521-10.521,10.521s-10.521-4.719-10.521-10.521C295.577,116.634,301.575,107.209,306.098,107.209z"/>
<path d="M391.765,123.742c0-12.565-10.191-31.562-25.55-31.562s-25.55,18.997-25.55,31.562c0,14.089,11.461,25.55,25.55,25.55
	C380.304,149.292,391.765,137.83,391.765,123.742z M355.695,123.742c0-7.108,5.998-16.532,10.521-16.532
	c4.523,0,10.521,9.424,10.521,16.532c0,5.801-4.719,10.521-10.521,10.521C360.414,134.262,355.695,129.543,355.695,123.742z"/>
<path d="M439.859,159.812c0-12.565-10.191-31.562-25.55-31.562s-25.55,18.997-25.55,31.562c0,14.089,11.461,25.55,25.55,25.55
	C428.398,185.362,439.859,173.901,439.859,159.812z M403.789,159.812c0-7.108,5.998-16.532,10.521-16.532
	c4.523,0,10.521,9.424,10.521,16.532c0,5.801-4.719,10.521-10.521,10.521C408.508,170.333,403.789,165.613,403.789,159.812z"/>
<path d="M258.004,128.25c-15.359,0-25.55,18.997-25.55,31.562c0,14.089,11.461,25.55,25.55,25.55c14.089,0,25.55-11.461,25.55-25.55
	C283.554,147.248,273.363,128.25,258.004,128.25z M258.004,170.333c-5.801,0-10.521-4.719-10.521-10.521
	c0-7.108,5.998-16.532,10.521-16.532c4.523,0,10.521,9.424,10.521,16.532C268.524,165.613,263.805,170.333,258.004,170.333z"/>
<path d="M320.125,215.421h8.517v8.517c0,4.151,3.364,7.515,7.515,7.515s7.515-3.364,7.515-7.515v-8.517h8.517
	c4.151,0,7.515-3.364,7.515-7.515s-3.364-7.515-7.515-7.515h-8.517v-8.517c0-4.151-3.364-7.515-7.515-7.515
	s-7.515,3.364-7.515,7.515v8.517h-8.517c-4.151,0-7.515,3.364-7.515,7.515S315.974,215.421,320.125,215.421z"/>
<g>
</g>
<g>
</g>
<g>
</g>
<g>
</g>
<g>
</g>
<g>
</g>
<g>
</g>
<g>
</g>
<g>
</g>
<g>
</g>
<g>
</g>
<g>
</g>
<g>
</g>
<g>
</g>
<g>
</g>
</svg>
