<?xml version="1.0" standalone="no"?>
<svg viewBox="0 0 200 200" xmlns="http://www.w3.org/2000/svg">
	<!-- <defs>
		<pattern id="img1" patternUnits="userSpaceOnUse" width="100" height="100">
			<image href="../animal.png" x="0" y="0" width="100" height="100" />
		</pattern>
	</defs> -->
	<path fill="#ecebf7" d="M27.1,-42C35.8,-36.6,44,-30.2,54.4,-20.9C64.9,-11.5,77.6,0.7,75.6,10.5C73.6,20.3,57,27.6,44.1,32.8C31.2,38,22.1,41.1,11,50C0,58.8,-12.9,73.5,-27.4,76.8C-41.8,80.1,-57.8,72,-66.1,59.1C-74.4,46.2,-75,28.5,-73.4,13C-71.8,-2.5,-68,-15.9,-63,-29.5C-58,-43.1,-51.7,-56.9,-41,-61.3C-30.3,-65.7,-15.1,-60.9,-3,-56.3C9.2,-51.7,18.4,-47.3,27.1,-42Z" transform="translate(100 100)" />
</svg>
